# This file uses centimeters as units for non-parametric coordinates.

mtllib AlcoveRoof.mtl
g default
v -9.542591 5.059798 10.805191
v -1.196911 5.059798 10.805191
v -9.542591 4.171596 -11.628351
v -1.196264 3.856962 -11.755873
v -9.605042 4.248915 -9.949960
v -1.258914 3.325634 -10.178353
v -9.767084 4.346219 -8.252798
v -1.069840 3.197570 -8.501622
v -9.776003 4.383400 -6.464512
v -1.375423 2.900826 -6.513954
v -9.615763 4.537425 -4.713914
v -1.205485 3.335708 -4.713914
v -9.542591 4.682001 -2.989569
v -1.177622 4.959161 -2.989569
v -9.542591 4.703288 -1.265224
v -1.145975 4.361626 -1.265224
v -9.542591 4.818128 0.459121
v -1.192243 3.679065 0.459121
v -9.542591 5.001071 2.183466
v -1.235700 3.581117 2.183466
v -9.542591 5.059798 3.907811
v -1.211740 4.075840 3.907811
v -9.542591 5.059798 5.632156
v -1.196557 4.786826 5.632156
v -9.542591 5.059798 7.356502
v -1.196911 4.996157 7.356502
v -9.542591 5.059798 9.080847
v -1.196911 5.059798 9.080847
v -1.824392 3.661522 -11.659664
v -2.012598 2.672174 -10.082740
v -1.711154 2.903335 -8.457636
v -2.021890 2.937033 -6.511267
v -2.004274 3.152804 -4.713914
v -1.822776 4.870410 -2.989569
v -1.783607 4.454102 -1.265224
v -1.796443 3.900228 0.459121
v -1.843551 3.794054 2.183466
v -1.848567 4.172169 3.907811
v -1.838712 4.748020 5.632156
v -1.838883 4.978210 7.356502
v -1.838883 5.059798 9.080847
v -1.838883 5.059798 10.805191
v -2.462581 3.507786 -11.599193
v -2.658088 2.684459 -10.091029
v -2.289551 3.192057 -8.429051
v -2.550579 3.345945 -6.490675
v -2.611016 3.414546 -4.713914
v -2.480423 4.771242 -2.989569
v -2.428546 4.572942 -1.265224
v -2.405550 4.181463 0.459121
v -2.446502 4.081049 2.183466
v -2.480069 4.329703 3.907811
v -2.480808 4.739058 5.632156
v -2.480861 4.971629 7.356502
v -2.480861 5.059798 9.080847
v -2.480861 5.059798 10.805191
v -3.109504 3.239901 -11.599213
v -3.181380 3.278481 -10.107780
v -2.907592 4.138312 -8.443339
v -3.175085 3.811573 -6.467485
v -3.213981 3.668499 -4.713914
v -3.122836 4.664275 -2.989569
v -3.089531 4.689944 -1.265224
v -3.050917 4.476524 0.459121
v -3.078090 4.390031 2.183466
v -3.118583 4.504979 3.907811
v -3.122836 4.742260 5.632156
v -3.122836 4.971629 7.356502
v -3.122836 5.059798 9.080847
v -3.122836 5.059798 10.805191
v -3.765429 2.862164 -11.586225
v -3.795805 3.536472 -10.090107
v -3.769641 4.517084 -8.441469
v -3.901891 3.535381 -6.452366
v -3.853129 3.432100 -4.713914
v -3.764813 4.554528 -2.989569
v -3.755466 4.720808 -1.265224
v -3.728196 4.665822 0.459121
v -3.737689 4.342805 2.183466
v -3.763288 4.630543 3.907811
v -3.764813 4.757048 5.632156
v -3.764813 4.978210 7.356502
v -3.764813 5.059798 9.080847
v -3.764813 5.059798 10.805191
v -4.406945 2.560512 -11.537316
v -4.410638 3.002168 -10.100634
v -4.573413 4.379985 -8.453059
v -4.553623 3.577951 -6.444935
v -4.459288 3.177155 -4.713914
v -4.406786 4.220714 -2.989569
v -4.407546 4.441525 -1.265224
v -4.399527 4.720191 0.459121
v -4.397991 3.957747 2.183466
v -4.406496 4.605442 3.907811
v -4.406786 4.798707 5.632156
v -4.406786 4.996157 7.356502
v -4.406786 5.059798 9.080847
v -4.406786 5.059798 10.805191
v -5.048760 2.416755 -11.474740
v -4.980519 2.677235 -9.974189
v -5.263671 4.352874 -8.431957
v -5.132235 3.922655 -6.440748
v -5.108274 3.427438 -4.713914
v -5.048760 3.728667 -2.989569
v -5.048760 4.081903 -1.265224
v -5.049098 4.689798 0.459121
v -5.047626 4.259487 2.183466
v -5.048760 4.531422 3.907811
v -5.048760 4.859608 5.632156
v -5.048760 5.020445 7.356502
v -5.048760 5.059798 9.080847
v -5.048760 5.059798 10.805191
v -5.689115 2.375825 -11.458263
v -5.568419 3.022846 -10.015223
v -5.873924 4.190907 -8.401582
v -5.706079 4.030302 -6.437725
v -5.775061 3.703944 -4.713914
v -5.691439 3.552228 -2.989569
v -5.690738 4.022933 -1.265224
v -5.690738 4.674142 0.459121
v -5.690738 4.583830 2.183466
v -5.690738 4.620283 3.907811
v -5.690738 4.928513 5.632156
v -5.690738 5.044076 7.356502
v -5.690738 5.059798 9.080847
v -5.690738 5.059798 10.805191
v -6.326962 2.535571 -11.573974
v -6.179691 3.334035 -10.112452
v -6.438930 3.827267 -8.379575
v -6.308330 3.639929 -6.435592
v -6.429339 3.949686 -4.713914
v -6.334805 4.004358 -2.989569
v -6.332712 4.282824 -1.265224
v -6.332712 4.687260 0.459121
v -6.332712 4.784133 2.183466
v -6.332712 4.843618 3.907811
v -6.332712 4.992527 5.632156
v -6.332712 5.058215 7.356502
v -6.332712 5.059798 9.080847
v -6.332712 5.059798 10.805191
v -6.969811 2.971670 -11.726513
v -6.856375 3.134604 -10.091025
v -7.023472 3.332418 -8.341927
v -6.983012 3.418039 -6.440701
v -7.080789 3.978850 -4.713914
v -6.977970 4.349612 -2.989569
v -6.974690 4.466849 -1.265224
v -6.974690 4.709414 0.459121
v -6.974690 4.936757 2.183466
v -6.974690 5.012204 3.907811
v -6.974690 5.039358 5.632156
v -6.974690 5.059798 7.356502
v -6.974690 5.059798 9.080847
v -6.974690 5.059798 10.805191
v -7.614962 3.489392 -11.747226
v -7.576678 2.872909 -10.051462
v -7.722656 2.807558 -8.297350
v -7.750779 3.406047 -6.452353
v -7.741403 3.787088 -4.713914
v -7.619474 4.419337 -2.989569
v -7.616665 4.497140 -1.265224
v -7.616665 4.735717 0.459121
v -7.616665 4.971085 2.183466
v -7.616665 5.052442 3.907811
v -7.616665 5.059798 5.632156
v -7.616665 5.059798 7.356502
v -7.616665 5.059798 9.080847
v -7.616665 5.059798 10.805191
v -8.258989 3.827861 -11.683554
v -8.301992 3.080172 -10.007470
v -8.563053 3.106665 -8.260724
v -8.603481 3.570273 -6.462945
v -8.398596 3.841613 -4.713914
v -8.259411 4.494470 -2.989569
v -8.258643 4.550973 -1.265224
v -8.258643 4.753292 0.459121
v -8.258643 4.978137 2.183466
v -8.258643 5.059798 3.907811
v -8.258643 5.059798 5.632156
v -8.258643 5.059798 7.356502
v -8.258643 5.059798 9.080847
v -8.258643 5.059798 10.805191
v -8.901051 4.043211 -11.619923
v -8.985273 3.745174 -9.951413
v -9.267443 3.827745 -8.258321
v -9.281506 3.975152 -6.468264
v -9.025168 4.163678 -4.713914
v -8.900618 4.579576 -2.989569
v -8.900618 4.617947 -1.265224
v -8.900618 4.778296 0.459121
v -8.900618 4.984351 2.183466
v -8.900618 5.059798 3.907811
v -8.900618 5.059798 5.632156
v -8.900618 5.059798 7.356502
v -8.900618 5.059798 9.080847
v -8.900618 5.059798 10.805191
vt 0.642272 0.986640
vt 0.642535 0.967849
vt 0.689514 0.968507
vt 0.689251 0.987298
vt 0.595293 0.985983
vt 0.595556 0.967191
vt 0.642798 0.949058
vt 0.689777 0.949715
vt 0.548315 0.985325
vt 0.548578 0.966533
vt 0.595819 0.948400
vt 0.643061 0.930266
vt 0.690040 0.930924
vt 0.501336 0.984667
vt 0.501599 0.965876
vt 0.548841 0.947742
vt 0.596083 0.929608
vt 0.643324 0.911475
vt 0.690303 0.912132
vt 0.454357 0.984010
vt 0.454620 0.965218
vt 0.501862 0.947084
vt 0.549104 0.928950
vt 0.596346 0.910817
vt 0.643588 0.892683
vt 0.690566 0.893341
vt 0.407378 0.983352
vt 0.407641 0.964560
vt 0.454883 0.946427
vt 0.502125 0.928293
vt 0.549367 0.910159
vt 0.596609 0.892025
vt 0.643851 0.873891
vt 0.690829 0.874549
vt 0.360399 0.982694
vt 0.360663 0.963902
vt 0.407905 0.945769
vt 0.455146 0.927635
vt 0.502388 0.909501
vt 0.549630 0.891367
vt 0.596872 0.873234
vt 0.644114 0.855100
vt 0.691092 0.855758
vt 0.313421 0.982036
vt 0.313684 0.963245
vt 0.360926 0.945111
vt 0.408168 0.926977
vt 0.455409 0.908844
vt 0.502651 0.890710
vt 0.549893 0.872576
vt 0.597135 0.854442
vt 0.644377 0.836308
vt 0.691356 0.836966
vt 0.266412 0.983520
vt 0.266654 0.966233
vt 0.313947 0.944476
vt 0.361189 0.926319
vt 0.408431 0.908186
vt 0.455673 0.890052
vt 0.502914 0.871918
vt 0.550156 0.853784
vt 0.597398 0.835651
vt 0.644640 0.817517
vt 0.691619 0.818175
vt 0.218652 0.987543
vt 0.218753 0.973067
vt 0.266911 0.947892
vt 0.314209 0.925744
vt 0.361452 0.907528
vt 0.408694 0.889394
vt 0.455936 0.871261
vt 0.503177 0.853127
vt 0.550419 0.834993
vt 0.597661 0.816859
vt 0.644903 0.798725
vt 0.691882 0.799383
vt 0.169935 0.986600
vt 0.169990 0.971972
vt 0.219176 0.953222
vt 0.267180 0.928655
vt 0.314472 0.906966
vt 0.361715 0.888736
vt 0.408957 0.870603
vt 0.456199 0.852436
vt 0.503441 0.834327
vt 0.550682 0.816202
vt 0.597924 0.798068
vt 0.645166 0.779934
vt 0.692145 0.780592
vt 0.123763 0.981209
vt 0.123978 0.963067
vt 0.170213 0.951353
vt 0.219814 0.928267
vt 0.267451 0.909318
vt 0.314735 0.888140
vt 0.361978 0.869945
vt 0.409220 0.851821
vt 0.456465 0.833420
vt 0.503704 0.815499
vt 0.550946 0.797410
vt 0.598187 0.779276
vt 0.645429 0.761142
vt 0.692408 0.761800
vt 0.078062 0.978741
vt 0.078555 0.959965
vt 0.122731 0.943045
vt 0.169559 0.926740
vt 0.220446 0.905797
vt 0.267718 0.890249
vt 0.314999 0.869308
vt 0.362241 0.851153
vt 0.409486 0.832807
vt 0.456736 0.814092
vt 0.503969 0.796628
vt 0.551209 0.778617
vt 0.598450 0.760485
vt 0.645692 0.742351
vt 0.692671 0.743009
vt 0.077084 0.941147
vt 0.121829 0.921798
vt 0.168631 0.906256
vt 0.220861 0.886050
vt 0.267986 0.871098
vt 0.315262 0.850496
vt 0.362504 0.832384
vt 0.409761 0.813156
vt 0.457006 0.794785
vt 0.504230 0.777938
vt 0.551472 0.759822
vt 0.598714 0.741693
vt 0.075614 0.922271
vt 0.121047 0.900698
vt 0.167845 0.889132
vt 0.221050 0.868421
vt 0.268259 0.851580
vt 0.315526 0.831704
vt 0.362771 0.813297
vt 0.410039 0.793332
vt 0.457265 0.776297
vt 0.504489 0.759453
vt 0.551735 0.741025
vt 0.076442 0.903395
vt 0.120740 0.880883
vt 0.167477 0.872585
vt 0.221203 0.851623
vt 0.268525 0.832583
vt 0.315789 0.812913
vt 0.363044 0.793804
vt 0.410303 0.774441
vt 0.457512 0.758648
vt 0.504750 0.740812
vt 0.080862 0.884636
vt 0.123640 0.863027
vt 0.166900 0.854710
vt 0.221326 0.834684
vt 0.268774 0.814840
vt 0.316052 0.794121
vt 0.363315 0.774456
vt 0.410553 0.756611
vt 0.457761 0.740855
vt 0.084275 0.866009
vt 0.124999 0.845834
vt 0.166608 0.834498
vt 0.221391 0.815604
vt 0.269036 0.796131
vt 0.316315 0.775317
vt 0.363579 0.755578
vt 0.410801 0.738926
vt 0.084089 0.847259
vt 0.121787 0.829104
vt 0.167253 0.810974
vt 0.221277 0.794324
vt 0.269283 0.778482
vt 0.316585 0.756067
vt 0.363841 0.736914
vt 0.082647 0.828448
vt 0.122326 0.811111
vt 0.167555 0.785740
vt 0.220901 0.776035
vt 0.269531 0.760722
vt 0.316849 0.737182
vt 0.081578 0.809652
vt 0.122096 0.793120
vt 0.168198 0.767655
vt 0.220556 0.760552
vt 0.269859 0.737340
vt 0.081493 0.790447
vt 0.122767 0.777809
vt 0.167656 0.750714
vt 0.220748 0.741628
vt 0.081758 0.771511
vt 0.123258 0.758917
vt 0.166720 0.731925
vt 0.080372 0.752807
vt 0.120962 0.736820
vt 0.078009 0.734384
vn 0.000000 -1.000000 0.000000
vn 0.000000 -1.000000 0.000000
vn 0.000000 -1.000000 0.000000
vn 0.000000 -1.000000 0.000000
vn -0.446324 -0.891435 -0.078347
vn -0.507185 -0.841774 -0.184878
vn -0.614379 -0.778968 -0.125491
vn -0.576211 -0.814872 -0.062964
vn -0.673030 -0.739587 0.006517
vn -0.678154 -0.734885 -0.007148
vn -0.596718 -0.793437 0.119936
vn -0.632354 -0.769423 0.090091
vn -0.430289 -0.879796 0.202019
vn -0.472450 -0.866803 0.159512
vn -0.232253 -0.963137 0.135742
vn -0.254826 -0.962190 0.096196
vn -0.107641 -0.992552 0.057046
vn -0.120752 -0.991510 0.048237
vn -0.058960 -0.992735 0.104889
vn -0.070179 -0.992936 0.095671
vn -0.021492 -0.996540 0.080285
vn -0.028423 -0.996736 0.075561
vn -0.004465 -0.999767 0.021111
vn -0.006510 -0.999790 0.019449
vn 0.000000 -1.000000 0.000000
vn 0.000000 -1.000000 0.000000
vn 0.000000 -1.000000 0.000000
vn 0.000000 -1.000000 0.000000
vn 0.226487 -0.960139 -0.163818
vn 0.322703 -0.850038 -0.416291
vn 0.452213 -0.816963 -0.357875
vn 0.506823 -0.832834 -0.222526
vn 0.069607 -0.997404 0.018457
vn 0.408214 -0.911606 -0.048329
vn -0.203808 -0.978031 0.043789
vn 0.148694 -0.986514 0.068409
vn -0.081312 -0.892290 0.444081
vn 0.126320 -0.852128 0.507860
vn 0.023707 -0.939179 0.342610
vn 0.089978 -0.939280 0.331146
vn -0.139220 -0.954435 -0.263953
vn -0.122023 -0.942854 -0.310059
vn -0.323030 -0.928572 -0.182771
vn -0.287116 -0.936936 -0.199288
vn -0.335195 -0.939486 0.070791
vn -0.289838 -0.953166 0.086426
vn -0.181874 -0.948443 0.259572
vn -0.139705 -0.944904 0.296039
vn -0.025462 -0.974114 0.224619
vn 0.000239 -0.970438 0.241352
vn 0.018791 -0.995951 0.087908
vn 0.028952 -0.996012 0.084390
vn 0.004775 -0.999728 0.022828
vn 0.006987 -0.999754 0.021051
vn 0.000000 -1.000000 0.000000
vn 0.000000 -1.000000 0.000000
vn -0.417176 -0.908305 0.030765
vn -0.045240 -0.905214 -0.422542
vn -0.639210 -0.759591 0.120131
vn -0.608020 -0.792407 -0.049027
vn -0.308984 -0.877315 0.367215
vn -0.062885 -0.945417 0.319738
vn -0.158715 -0.973867 -0.162459
vn -0.362484 -0.922109 -0.135352
vn -0.387414 -0.921311 0.033116
vn -0.237202 -0.954847 0.178894
vn -0.060373 -0.981484 0.181784
vn 0.003670 -0.995776 0.091747
vn 0.001281 -0.999685 0.025081
vn 0.000000 -1.000000 0.000000
vn -0.436758 -0.850233 0.293848
vn -0.084630 -0.996237 -0.018716
vn -0.535845 -0.839003 0.094573
vn -0.303290 -0.937129 -0.172641
vn 0.004277 -0.957181 0.289458
vn 0.042400 -0.951559 0.304527
vn -0.105375 -0.992674 -0.059119
vn -0.253126 -0.961831 -0.103967
vn -0.245839 -0.969292 0.006054
vn -0.165870 -0.978297 0.124183
vn -0.066108 -0.988284 0.137565
vn -0.006043 -0.995845 0.090868
vn -0.001281 -0.999685 0.025081
vn 0.000000 -1.000000 0.000000
vn 0.133718 -0.872542 0.469883
vn 0.363598 -0.887085 0.284389
vn 0.007669 -0.997500 0.070251
vn 0.120091 -0.959331 -0.255466
vn 0.305066 -0.926038 0.222234
vn 0.283088 -0.910156 0.302452
vn 0.129582 -0.990870 0.037213
vn 0.036172 -0.993112 -0.111445
vn 0.103224 -0.994555 -0.014358
vn 0.034091 -0.988706 0.145938
vn -0.045876 -0.992687 0.111661
vn -0.020479 -0.996126 0.085524
vn -0.004775 -0.999728 0.022828
vn 0.000000 -1.000000 0.000000
vn 0.389530 -0.790244 0.473055
vn 0.465613 -0.845405 0.261715
vn 0.146396 -0.973474 0.175831
vn -0.114319 -0.952156 -0.283425
vn 0.081777 -0.987305 0.136171
vn 0.405691 -0.869577 0.281514
vn 0.367695 -0.919582 0.138457
vn 0.126984 -0.988322 -0.084229
vn 0.044151 -0.998599 -0.029151
vn 0.035552 -0.980674 0.192391
vn -0.028555 -0.992773 0.116560
vn -0.036309 -0.996593 0.074060
vn -0.008222 -0.999804 0.017991
vn 0.000000 -1.000000 0.000000
vn 0.099061 -0.853773 0.511134
vn 0.077137 -0.960661 0.266797
vn -0.012926 -0.962820 0.269835
vn -0.232655 -0.946165 -0.225040
vn -0.165145 -0.986248 -0.006447
vn 0.221146 -0.953409 0.205195
vn 0.284750 -0.928674 0.237661
vn -0.021802 -0.999312 0.030001
vn -0.228122 -0.972966 -0.036029
vn -0.150043 -0.974221 0.168464
vn -0.062502 -0.989704 0.128762
vn -0.043824 -0.997394 0.057306
vn -0.009329 -0.999891 0.011458
vn 0.000000 -1.000000 0.000000
vn -0.184555 -0.847756 0.497241
vn -0.319602 -0.867512 0.381154
vn 0.150599 -0.965017 0.214618
vn 0.123053 -0.983306 -0.134046
vn -0.206433 -0.977309 -0.047460
vn -0.230253 -0.965861 0.118727
vn -0.129939 -0.954854 0.267151
vn -0.137604 -0.982103 0.128602
vn -0.255858 -0.966680 -0.008124
vn -0.240622 -0.964951 0.104739
vn -0.118598 -0.986738 0.110826
vn -0.040518 -0.998443 0.038350
vn -0.007354 -0.999959 0.005247
vn 0.000000 -1.000000 0.000000
vn -0.002408 -0.926008 0.377496
vn -0.289267 -0.881169 0.373986
vn 0.416130 -0.901974 0.115230
vn 0.350329 -0.936476 0.016816
vn -0.140280 -0.984457 0.105666
vn -0.408963 -0.906183 0.107615
vn -0.310316 -0.930807 0.193139
vn -0.164770 -0.975799 0.143762
vn -0.215368 -0.975717 0.039915
vn -0.235644 -0.969915 0.061126
vn -0.121285 -0.990515 0.064570
vn -0.027684 -0.999402 0.020735
vn -0.003061 -0.999994 0.001369
vn 0.000000 -1.000000 0.000000
vn 0.188130 -0.972961 0.133995
vn -0.194852 -0.978364 0.069544
vn 0.451575 -0.886089 0.104532
vn 0.294803 -0.943030 0.154225
vn 0.027088 -0.971446 0.235710
vn -0.168223 -0.975006 0.145136
vn -0.169251 -0.977940 0.122420
vn -0.095615 -0.985971 0.136814
vn -0.121695 -0.989552 0.077313
vn -0.129430 -0.990931 0.036095
vn -0.066976 -0.997491 0.022927
vn -0.013713 -0.999875 0.007839
vn -0.000308 -1.000000 0.000115
vn 0.000000 -1.000000 0.000000
vn -0.068356 -0.991615 -0.109667
vn -0.298336 -0.918220 -0.260514
vn 0.047404 -0.991153 0.123970
vn 0.010696 -0.973135 0.229985
vn -0.006665 -0.962826 0.270040
vn -0.044093 -0.981337 0.187171
vn -0.069102 -0.993526 0.090178
vn -0.041147 -0.990336 0.132443
vn -0.033762 -0.995404 0.089620
vn -0.030533 -0.999191 0.026190
vn -0.017224 -0.999842 0.004516
vn -0.003980 -0.999991 0.001482
vn 0.000000 -1.000000 0.000000
vn 0.000000 -1.000000 0.000000
vn -0.491772 -0.851478 -0.182059
vn -0.467662 -0.828529 -0.307949
vn -0.496306 -0.865200 0.071472
vn -0.399143 -0.896623 0.191707
vn -0.255255 -0.932978 0.253765
vn -0.153589 -0.969714 0.189908
vn -0.086012 -0.993509 0.074447
vn -0.042346 -0.991649 0.121812
vn -0.014832 -0.996058 0.087455
vn -0.005446 -0.999704 0.023731
vn -0.001432 -0.999999 0.000533
vn 0.000000 -1.000000 0.000000
vn 0.000000 -1.000000 0.000000
vn 0.000000 -1.000000 0.000000
s 1
g Roof
usemtl lambert7SG
f 27/1/1 195/2/2 196/3/3 1/4/4
f 3/104/5 183/105/6 184/91/7 5/90/8
f 5/90/8 184/91/7 185/78/9 7/77/10
f 7/77/10 185/78/9 186/66/11 9/65/12
f 9/65/12 186/66/11 187/55/13 11/54/14
f 11/54/14 187/55/13 188/45/15 13/44/16
f 13/44/16 188/45/15 189/36/17 15/35/18
f 15/35/18 189/36/17 190/28/19 17/27/20
f 17/27/20 190/28/19 191/21/21 19/20/22
f 19/20/22 191/21/21 192/15/23 21/14/24
f 21/14/24 192/15/23 193/10/25 23/9/26
f 23/9/26 193/10/25 194/6/27 25/5/28
f 25/5/28 194/6/27 195/2/2 27/1/1
f 30/192/29 29/194/30 4/196/31 6/195/32
f 31/189/33 30/192/29 6/195/32 8/193/34
f 32/185/35 31/189/33 8/193/34 10/190/36
f 33/180/37 32/185/35 10/190/36 12/186/38
f 34/174/39 33/180/37 12/186/38 14/181/40
f 35/167/41 34/174/39 14/181/40 16/175/42
f 36/159/43 35/167/41 16/175/42 18/168/44
f 37/150/45 36/159/43 18/168/44 20/160/46
f 38/140/47 37/150/45 20/160/46 22/151/48
f 39/129/49 38/140/47 22/151/48 24/141/50
f 40/116/51 39/129/49 24/141/50 26/130/52
f 41/102/53 40/116/51 26/130/52 28/117/54
f 42/103/55 41/102/53 28/117/54 2/118/56
f 44/188/57 43/191/58 29/194/30 30/192/29
f 45/184/59 44/188/57 30/192/29 31/189/33
f 46/179/60 45/184/59 31/189/33 32/185/35
f 47/173/61 46/179/60 32/185/35 33/180/37
f 48/166/62 47/173/61 33/180/37 34/174/39
f 49/158/63 48/166/62 34/174/39 35/167/41
f 50/149/64 49/158/63 35/167/41 36/159/43
f 51/139/65 50/149/64 36/159/43 37/150/45
f 52/128/66 51/139/65 37/150/45 38/140/47
f 53/115/67 52/128/66 38/140/47 39/129/49
f 54/101/68 53/115/67 39/129/49 40/116/51
f 55/88/69 54/101/68 40/116/51 41/102/53
f 56/89/70 55/88/69 41/102/53 42/103/55
f 58/183/71 57/187/72 43/191/58 44/188/57
f 59/178/73 58/183/71 44/188/57 45/184/59
f 60/172/74 59/178/73 45/184/59 46/179/60
f 61/165/75 60/172/74 46/179/60 47/173/61
f 62/157/76 61/165/75 47/173/61 48/166/62
f 63/148/77 62/157/76 48/166/62 49/158/63
f 64/138/78 63/148/77 49/158/63 50/149/64
f 65/127/79 64/138/78 50/149/64 51/139/65
f 66/114/80 65/127/79 51/139/65 52/128/66
f 67/100/81 66/114/80 52/128/66 53/115/67
f 68/87/82 67/100/81 53/115/67 54/101/68
f 69/75/83 68/87/82 54/101/68 55/88/69
f 70/76/84 69/75/83 55/88/69 56/89/70
f 72/177/85 71/182/86 57/187/72 58/183/71
f 73/171/87 72/177/85 58/183/71 59/178/73
f 74/164/88 73/171/87 59/178/73 60/172/74
f 75/156/89 74/164/88 60/172/74 61/165/75
f 76/147/90 75/156/89 61/165/75 62/157/76
f 77/137/91 76/147/90 62/157/76 63/148/77
f 78/126/92 77/137/91 63/148/77 64/138/78
f 79/113/93 78/126/92 64/138/78 65/127/79
f 80/99/94 79/113/93 65/127/79 66/114/80
f 81/86/95 80/99/94 66/114/80 67/100/81
f 82/74/96 81/86/95 67/100/81 68/87/82
f 83/63/97 82/74/96 68/87/82 69/75/83
f 84/64/98 83/63/97 69/75/83 70/76/84
f 86/170/99 85/176/100 71/182/86 72/177/85
f 87/163/101 86/170/99 72/177/85 73/171/87
f 88/155/102 87/163/101 73/171/87 74/164/88
f 89/146/103 88/155/102 74/164/88 75/156/89
f 90/136/104 89/146/103 75/156/89 76/147/90
f 91/125/105 90/136/104 76/147/90 77/137/91
f 92/112/106 91/125/105 77/137/91 78/126/92
f 93/98/107 92/112/106 78/126/92 79/113/93
f 94/85/108 93/98/107 79/113/93 80/99/94
f 95/73/109 94/85/108 80/99/94 81/86/95
f 96/62/110 95/73/109 81/86/95 82/74/96
f 97/52/111 96/62/110 82/74/96 83/63/97
f 98/53/112 97/52/111 83/63/97 84/64/98
f 100/162/113 99/169/114 85/176/100 86/170/99
f 101/154/115 100/162/113 86/170/99 87/163/101
f 102/145/116 101/154/115 87/163/101 88/155/102
f 103/135/117 102/145/116 88/155/102 89/146/103
f 104/124/118 103/135/117 89/146/103 90/136/104
f 105/111/119 104/124/118 90/136/104 91/125/105
f 106/97/120 105/111/119 91/125/105 92/112/106
f 107/84/121 106/97/120 92/112/106 93/98/107
f 108/72/122 107/84/121 93/98/107 94/85/108
f 109/61/123 108/72/122 94/85/108 95/73/109
f 110/51/124 109/61/123 95/73/109 96/62/110
f 111/42/125 110/51/124 96/62/110 97/52/111
f 112/43/126 111/42/125 97/52/111 98/53/112
f 114/153/127 113/161/128 99/169/114 100/162/113
f 115/144/129 114/153/127 100/162/113 101/154/115
f 116/134/130 115/144/129 101/154/115 102/145/116
f 117/123/131 116/134/130 102/145/116 103/135/117
f 118/110/132 117/123/131 103/135/117 104/124/118
f 119/96/133 118/110/132 104/124/118 105/111/119
f 120/83/134 119/96/133 105/111/119 106/97/120
f 121/71/135 120/83/134 106/97/120 107/84/121
f 122/60/136 121/71/135 107/84/121 108/72/122
f 123/50/137 122/60/136 108/72/122 109/61/123
f 124/41/138 123/50/137 109/61/123 110/51/124
f 125/33/139 124/41/138 110/51/124 111/42/125
f 126/34/140 125/33/139 111/42/125 112/43/126
f 128/143/141 127/152/142 113/161/128 114/153/127
f 129/133/143 128/143/141 114/153/127 115/144/129
f 130/122/144 129/133/143 115/144/129 116/134/130
f 131/109/145 130/122/144 116/134/130 117/123/131
f 132/95/146 131/109/145 117/123/131 118/110/132
f 133/82/147 132/95/146 118/110/132 119/96/133
f 134/70/148 133/82/147 119/96/133 120/83/134
f 135/59/149 134/70/148 120/83/134 121/71/135
f 136/49/150 135/59/149 121/71/135 122/60/136
f 137/40/151 136/49/150 122/60/136 123/50/137
f 138/32/152 137/40/151 123/50/137 124/41/138
f 139/25/153 138/32/152 124/41/138 125/33/139
f 140/26/154 139/25/153 125/33/139 126/34/140
f 142/132/155 141/142/156 127/152/142 128/143/141
f 143/121/157 142/132/155 128/143/141 129/133/143
f 144/108/158 143/121/157 129/133/143 130/122/144
f 145/94/159 144/108/158 130/122/144 131/109/145
f 146/81/160 145/94/159 131/109/145 132/95/146
f 147/69/161 146/81/160 132/95/146 133/82/147
f 148/58/162 147/69/161 133/82/147 134/70/148
f 149/48/163 148/58/162 134/70/148 135/59/149
f 150/39/164 149/48/163 135/59/149 136/49/150
f 151/31/165 150/39/164 136/49/150 137/40/151
f 152/24/166 151/31/165 137/40/151 138/32/152
f 153/18/167 152/24/166 138/32/152 139/25/153
f 154/19/168 153/18/167 139/25/153 140/26/154
f 156/120/169 155/131/170 141/142/156 142/132/155
f 157/107/171 156/120/169 142/132/155 143/121/157
f 158/93/172 157/107/171 143/121/157 144/108/158
f 159/80/173 158/93/172 144/108/158 145/94/159
f 160/68/174 159/80/173 145/94/159 146/81/160
f 161/57/175 160/68/174 146/81/160 147/69/161
f 162/47/176 161/57/175 147/69/161 148/58/162
f 163/38/177 162/47/176 148/58/162 149/48/163
f 164/30/178 163/38/177 149/48/163 150/39/164
f 165/23/179 164/30/178 150/39/164 151/31/165
f 166/17/180 165/23/179 151/31/165 152/24/166
f 167/12/181 166/17/180 152/24/166 153/18/167
f 168/13/182 167/12/181 153/18/167 154/19/168
f 170/106/183 169/119/184 155/131/170 156/120/169
f 171/92/185 170/106/183 156/120/169 157/107/171
f 172/79/186 171/92/185 157/107/171 158/93/172
f 173/67/187 172/79/186 158/93/172 159/80/173
f 174/56/188 173/67/187 159/80/173 160/68/174
f 175/46/189 174/56/188 160/68/174 161/57/175
f 176/37/190 175/46/189 161/57/175 162/47/176
f 177/29/191 176/37/190 162/47/176 163/38/177
f 178/22/192 177/29/191 163/38/177 164/30/178
f 179/16/193 178/22/192 164/30/178 165/23/179
f 180/11/194 179/16/193 165/23/179 166/17/180
f 181/7/195 180/11/194 166/17/180 167/12/181
f 182/8/196 181/7/195 167/12/181 168/13/182
f 184/91/7 183/105/6 169/119/184 170/106/183
f 185/78/9 184/91/7 170/106/183 171/92/185
f 186/66/11 185/78/9 171/92/185 172/79/186
f 187/55/13 186/66/11 172/79/186 173/67/187
f 188/45/15 187/55/13 173/67/187 174/56/188
f 189/36/17 188/45/15 174/56/188 175/46/189
f 190/28/19 189/36/17 175/46/189 176/37/190
f 191/21/21 190/28/19 176/37/190 177/29/191
f 192/15/23 191/21/21 177/29/191 178/22/192
f 193/10/25 192/15/23 178/22/192 179/16/193
f 194/6/27 193/10/25 179/16/193 180/11/194
f 195/2/2 194/6/27 180/11/194 181/7/195
f 196/3/3 195/2/2 181/7/195 182/8/196
