# This file uses centimeters as units for non-parametric coordinates.

mtllib Mushroom_002.mtl
g default
v 1.958377 0.004251 -1.130669
v 1.130669 0.004251 -1.958377
v 0.000000 0.004251 -2.261338
v -1.130669 0.004251 -1.958377
v -1.958377 0.004251 -1.130669
v -2.261338 0.004251 0.000000
v -1.958377 0.004251 1.130669
v -1.130669 0.004251 1.958377
v 0.000000 0.004251 2.261338
v 1.130669 0.004251 1.958377
v 1.958377 0.004251 1.130669
v 2.261338 0.004251 0.000000
v 1.252924 8.813367 -0.723376
v 0.723376 8.813367 -1.252924
v 0.000000 8.813367 -1.446752
v -0.723376 8.813367 -1.252924
v -1.252924 8.813367 -0.723376
v -1.446752 8.813367 0.000000
v -1.252924 8.813367 0.723376
v -0.723376 8.813367 1.252924
v 0.000000 8.813367 1.446752
v 0.723376 8.813367 1.252924
v 1.252924 8.813367 0.723376
v 1.446752 8.813367 0.000000
v 0.361688 0.004251 0.626462
v 0.000000 0.004251 0.000000
v -0.361688 0.004251 -0.626462
v 0.000000 4.946207 1.920419
v -0.960209 4.946207 1.663132
v -1.663132 4.946207 0.960209
v -1.920419 4.946207 0.000000
v -1.663132 4.946207 -0.960209
v -0.960209 4.946207 -1.663132
v 0.000000 4.946207 -1.920419
v 0.960209 4.946207 -1.663132
v 1.663132 4.946207 -0.960209
v 1.920419 4.946207 0.000000
v 1.663132 4.946207 0.960209
v 0.960209 4.946207 1.663132
v 0.000000 1.874557 2.844676
v -1.422338 1.874557 2.463564
v -2.463564 1.874557 1.422338
v -2.844676 1.874557 0.000000
v -2.463564 1.874557 -1.422338
v -1.422338 1.874557 -2.463564
v 0.000000 1.874557 -2.844676
v 1.422338 1.874557 -2.463564
v 2.463564 1.874557 -1.422338
v 2.844676 1.874557 0.000000
v 2.463564 1.874557 1.422338
v 1.422338 1.874557 2.463564
v 5.095853 9.393918 -2.942094
v 2.942094 9.393918 -5.095853
v 0.000000 9.393918 -5.884185
v -2.942094 9.393918 -5.095853
v -5.095853 9.393918 -2.942094
v -5.884185 9.393918 -0.000000
v -5.095853 9.393918 2.942094
v -2.942094 9.393918 5.095853
v 0.000000 9.393918 5.884185
v 2.942094 9.393918 5.095853
v 5.095853 9.393918 2.942094
v 5.884185 9.393918 -0.000000
v 4.139004 11.216874 -2.389655
v 2.389655 11.216874 -4.139004
v 0.000000 11.216874 -4.779310
v -2.389655 11.216874 -4.139004
v -4.139004 11.216874 -2.389655
v -4.779310 11.216874 0.000000
v -4.139004 11.216874 2.389655
v -2.389655 11.216874 4.139004
v 0.000000 11.216874 4.779310
v 2.389655 11.216874 4.139004
v 4.139004 11.216874 2.389655
v 4.779310 11.216874 -0.000000
v 1.866485 12.844508 -1.077616
v 1.077616 12.844508 -1.866485
v 0.000000 12.844508 -2.155232
v -1.077616 12.844508 -1.866485
v -1.866485 12.844508 -1.077616
v -2.155232 12.844508 -0.000000
v -1.866485 12.844508 1.077616
v -1.077616 12.844508 1.866485
v 0.000000 12.844508 2.155232
v 1.077616 12.844508 1.866485
v 1.866485 12.844508 1.077616
v 2.155232 12.844508 0.000000
v 0.000000 12.844508 0.000000
v 0.538808 12.844508 0.933242
v -0.538808 12.844508 -0.933242
vt 0.181688 0.860568
vt 0.175861 0.838723
vt 0.176120 0.645335
vt 0.152007 0.644510
vt 0.204105 0.610336
vt 0.200280 0.647585
vt 0.138060 0.816841
vt 0.224546 0.651260
vt 0.255069 0.619065
vt 0.249076 0.656346
vt 0.100209 0.838637
vt 0.274207 0.662819
vt 0.094332 0.860470
vt 0.300597 0.670619
vt 0.100159 0.882315
vt 0.029804 0.659791
vt 0.050249 0.617733
vt 0.055080 0.654571
vt 0.137961 0.904197
vt 0.079605 0.650245
vt 0.100583 0.609827
vt 0.103811 0.647034
vt 0.175812 0.882401
vt 0.127915 0.645092
vt 0.137994 0.874491
vt 0.143091 0.206910
vt 0.127730 0.176650
vt 0.145205 0.167782
vt 0.162941 0.202724
vt 0.138010 0.860519
vt 0.138026 0.846547
vt 0.051417 0.720437
vt 0.070792 0.715319
vt 0.174126 0.471409
vt 0.170451 0.485360
vt 0.268417 0.728817
vt 0.160293 0.495604
vt 0.250391 0.721627
vt 0.146374 0.499396
vt 0.231298 0.716127
vt 0.132423 0.495721
vt 0.211641 0.711957
vt 0.122179 0.485563
vt 0.191658 0.708989
vt 0.118386 0.471643
vt 0.171486 0.707183
vt 0.122062 0.457693
vt 0.151219 0.706530
vt 0.132220 0.447449
vt 0.130933 0.707024
vt 0.146139 0.443656
vt 0.110705 0.708655
vt 0.160090 0.447331
vt 0.090618 0.711416
vt 0.170334 0.457490
vt 0.140905 0.303730
vt 0.209455 0.287667
vt 0.073506 0.283368
vt 0.025317 0.232032
vt 0.009253 0.163477
vt 0.029622 0.096078
vt 0.080958 0.047895
vt 0.149506 0.031832
vt 0.216904 0.052194
vt 0.265094 0.103529
vt 0.281158 0.172083
vt 0.260791 0.239483
vt 0.141453 0.263167
vt 0.189649 0.252264
vt 0.094262 0.248513
vt 0.060720 0.212226
vt 0.049816 0.164028
vt 0.064475 0.116837
vt 0.100763 0.083299
vt 0.148958 0.072396
vt 0.196149 0.087049
vt 0.229691 0.123336
vt 0.240595 0.171534
vt 0.225937 0.218724
vt 0.123807 0.200613
vt 0.110256 0.185517
vt 0.106071 0.165668
vt 0.112375 0.146388
vt 0.127471 0.132838
vt 0.147320 0.128653
vt 0.166604 0.134949
vt 0.180155 0.150045
vt 0.184339 0.169894
vt 0.178037 0.189174
vt 0.162680 0.158913
vt 0.145630 0.357406
vt 0.088653 0.373008
vt 0.202774 0.372382
vt 0.244775 0.413923
vt 0.260377 0.470900
vt 0.245401 0.528044
vt 0.203859 0.570044
vt 0.146883 0.585647
vt 0.089738 0.570671
vt 0.047738 0.529129
vt 0.032136 0.472153
vt 0.047112 0.415008
vt 0.062650 0.797642
vt 0.237647 0.798972
vt 0.303370 0.628806
vt 0.003187 0.625363
vt 0.135374 0.782372
vt 0.150531 0.781991
vt 0.120288 0.783643
vt 0.105371 0.785801
vt 0.090725 0.788849
vt 0.076454 0.792793
vt 0.223991 0.793771
vt 0.209917 0.789540
vt 0.195448 0.786266
vt 0.180664 0.783927
vt 0.165659 0.782506
vt 0.126322 0.607715
vt 0.152240 0.607073
vt 0.159807 0.898370
vt 0.075166 0.613272
vt 0.116128 0.898321
vt 0.026086 0.622451
vt 0.279707 0.624500
vt 0.116214 0.822668
vt 0.229785 0.614127
vt 0.159892 0.822717
vt 0.178210 0.607952
vt 0.003035 0.665774
vt 0.032834 0.727000
vn 0.677049 -0.288461 -0.677049
vn 0.677049 -0.288461 -0.677049
vn 0.705954 0.057078 -0.705954
vn 0.705954 0.057078 -0.705954
vn 0.247816 -0.288461 -0.924866
vn 0.247816 -0.288461 -0.924866
vn 0.258396 0.057078 -0.964352
vn 0.258396 0.057078 -0.964352
vn -0.247816 -0.288461 -0.924866
vn -0.247816 -0.288461 -0.924866
vn -0.258396 0.057078 -0.964352
vn -0.258396 0.057078 -0.964352
vn -0.677049 -0.288461 -0.677049
vn -0.677049 -0.288461 -0.677049
vn -0.705954 0.057078 -0.705954
vn -0.705954 0.057078 -0.705954
vn -0.924866 -0.288461 -0.247816
vn -0.924866 -0.288461 -0.247816
vn -0.964352 0.057078 -0.258396
vn -0.964352 0.057078 -0.258396
vn -0.924866 -0.288461 0.247816
vn -0.924866 -0.288461 0.247816
vn -0.964352 0.057078 0.258396
vn -0.964352 0.057078 0.258396
vn -0.677049 -0.288461 0.677049
vn -0.677049 -0.288461 0.677049
vn -0.705954 0.057078 0.705954
vn -0.705954 0.057078 0.705954
vn -0.247816 -0.288461 0.924866
vn -0.247816 -0.288461 0.924866
vn -0.258396 0.057078 0.964352
vn -0.258396 0.057078 0.964352
vn 0.247816 -0.288461 0.924866
vn 0.247816 -0.288461 0.924866
vn 0.258396 0.057078 0.964352
vn 0.258396 0.057078 0.964352
vn 0.677049 -0.288461 0.677049
vn 0.677049 -0.288461 0.677049
vn 0.705954 0.057078 0.705954
vn 0.705954 0.057078 0.705954
vn 0.924866 -0.288461 0.247816
vn 0.924866 -0.288461 0.247816
vn 0.964352 0.057078 0.258396
vn 0.964352 0.057078 0.258396
vn 0.924866 -0.288461 -0.247816
vn 0.924866 -0.288461 -0.247816
vn 0.964352 0.057078 -0.258396
vn 0.964352 0.057078 -0.258396
vn 0.000000 -1.000000 0.000000
vn 0.000000 -1.000000 0.000000
vn 0.000000 -1.000000 0.000000
vn 0.000000 -1.000000 0.000000
vn 0.000000 1.000000 -0.000001
vn 0.000000 1.000000 -0.000000
vn 0.000000 1.000000 -0.000000
vn 0.000000 1.000000 -0.000000
vn 0.000000 -1.000000 0.000000
vn 0.000000 -1.000000 0.000000
vn 0.000000 -1.000000 0.000000
vn 0.000000 -1.000000 0.000000
vn 0.000000 -1.000000 0.000000
vn 0.000000 -1.000000 0.000000
vn 0.000000 -1.000000 0.000000
vn 0.000000 -1.000000 0.000000
vn 0.000000 -1.000000 0.000000
vn 0.000000 -1.000000 0.000000
vn 0.000000 -1.000000 0.000000
vn -0.253172 0.207734 0.944855
vn -0.253172 0.207734 0.944855
vn -0.257026 0.117492 0.959236
vn -0.257026 0.117492 0.959236
vn -0.691681 0.207735 0.691681
vn -0.691681 0.207735 0.691681
vn -0.702209 0.117492 0.702209
vn -0.702209 0.117492 0.702209
vn -0.944855 0.207734 0.253172
vn -0.944855 0.207734 0.253172
vn -0.959236 0.117492 0.257026
vn -0.959236 0.117492 0.257026
vn -0.944855 0.207734 -0.253172
vn -0.944855 0.207734 -0.253172
vn -0.959236 0.117492 -0.257026
vn -0.959236 0.117492 -0.257026
vn -0.691681 0.207735 -0.691681
vn -0.691681 0.207735 -0.691681
vn -0.702209 0.117492 -0.702209
vn -0.702209 0.117492 -0.702209
vn -0.253172 0.207734 -0.944855
vn -0.253172 0.207734 -0.944855
vn -0.257026 0.117492 -0.959236
vn -0.257026 0.117492 -0.959236
vn 0.253172 0.207734 -0.944855
vn 0.253172 0.207734 -0.944855
vn 0.257026 0.117492 -0.959236
vn 0.257026 0.117492 -0.959236
vn 0.691681 0.207735 -0.691681
vn 0.691681 0.207735 -0.691681
vn 0.702209 0.117492 -0.702209
vn 0.702209 0.117492 -0.702209
vn 0.944855 0.207734 -0.253172
vn 0.944855 0.207734 -0.253172
vn 0.959236 0.117492 -0.257026
vn 0.959236 0.117492 -0.257026
vn 0.944855 0.207734 0.253172
vn 0.944855 0.207734 0.253172
vn 0.959236 0.117492 0.257026
vn 0.959236 0.117492 0.257026
vn 0.691681 0.207735 0.691681
vn 0.691681 0.207735 0.691681
vn 0.702209 0.117492 0.702209
vn 0.702209 0.117492 0.702209
vn 0.253172 0.207734 0.944855
vn 0.253172 0.207734 0.944855
vn 0.257026 0.117492 0.959236
vn 0.257026 0.117492 0.959236
vn 0.112345 -0.991550 -0.064862
vn 0.064862 -0.991550 -0.112345
vn 0.064862 -0.991550 -0.112345
vn 0.112345 -0.991550 -0.064862
vn 0.000000 -0.991550 -0.129725
vn 0.000000 -0.991550 -0.129725
vn -0.064862 -0.991550 -0.112345
vn -0.064862 -0.991550 -0.112345
vn -0.112345 -0.991550 -0.064862
vn -0.112345 -0.991550 -0.064862
vn -0.129725 -0.991550 0.000000
vn -0.129725 -0.991550 0.000000
vn -0.112345 -0.991550 0.064862
vn -0.112345 -0.991550 0.064862
vn -0.064862 -0.991550 0.112345
vn -0.064862 -0.991550 0.112345
vn 0.000000 -0.991550 0.129725
vn 0.000000 -0.991550 0.129725
vn 0.064862 -0.991550 0.112345
vn 0.064862 -0.991550 0.112345
vn 0.112345 -0.991550 0.064862
vn 0.112345 -0.991550 0.064862
vn 0.129725 -0.991550 0.000000
vn 0.129725 -0.991550 0.000000
vn 0.610224 0.505226 -0.610224
vn 0.610224 0.505226 -0.610224
vn 0.527861 0.665376 -0.527861
vn 0.527861 0.665376 -0.527861
vn 0.223358 0.505225 -0.833582
vn 0.223358 0.505225 -0.833582
vn 0.193211 0.665376 -0.721072
vn 0.193211 0.665376 -0.721072
vn -0.223358 0.505225 -0.833582
vn -0.223358 0.505225 -0.833582
vn -0.193211 0.665376 -0.721072
vn -0.193211 0.665376 -0.721072
vn -0.610224 0.505226 -0.610224
vn -0.610224 0.505226 -0.610224
vn -0.527861 0.665376 -0.527861
vn -0.527861 0.665376 -0.527861
vn -0.833582 0.505225 -0.223358
vn -0.833582 0.505225 -0.223358
vn -0.721072 0.665376 -0.193211
vn -0.721072 0.665376 -0.193211
vn -0.833582 0.505225 0.223358
vn -0.833582 0.505225 0.223358
vn -0.721072 0.665376 0.193211
vn -0.721072 0.665376 0.193211
vn -0.610224 0.505226 0.610224
vn -0.610224 0.505226 0.610224
vn -0.527861 0.665376 0.527861
vn -0.527861 0.665376 0.527861
vn -0.223358 0.505225 0.833582
vn -0.223358 0.505225 0.833582
vn -0.193211 0.665376 0.721072
vn -0.193211 0.665376 0.721072
vn 0.223358 0.505225 0.833582
vn 0.223358 0.505225 0.833582
vn 0.193211 0.665376 0.721072
vn 0.193211 0.665376 0.721072
vn 0.610224 0.505226 0.610224
vn 0.610224 0.505226 0.610224
vn 0.527861 0.665376 0.527861
vn 0.527861 0.665376 0.527861
vn 0.833582 0.505225 0.223358
vn 0.833582 0.505225 0.223358
vn 0.721072 0.665376 0.193211
vn 0.721072 0.665376 0.193211
vn 0.833582 0.505225 -0.223358
vn 0.833582 0.505225 -0.223358
vn 0.721072 0.665376 -0.193211
vn 0.721072 0.665376 -0.193211
vn 0.382075 0.841449 -0.382076
vn 0.382075 0.841449 -0.382076
vn 0.139850 0.841449 -0.521925
vn 0.139850 0.841449 -0.521925
vn -0.139850 0.841449 -0.521925
vn -0.139850 0.841449 -0.521925
vn -0.382075 0.841449 -0.382076
vn -0.382075 0.841449 -0.382076
vn -0.521925 0.841449 -0.139849
vn -0.521925 0.841449 -0.139849
vn -0.521925 0.841449 0.139850
vn -0.521925 0.841449 0.139850
vn -0.382075 0.841449 0.382076
vn -0.382075 0.841449 0.382076
vn -0.139850 0.841449 0.521925
vn -0.139850 0.841449 0.521925
vn 0.139850 0.841449 0.521925
vn 0.139850 0.841449 0.521925
vn 0.382075 0.841449 0.382076
vn 0.382075 0.841449 0.382076
vn 0.521925 0.841449 0.139849
vn 0.521925 0.841449 0.139849
vn 0.521925 0.841449 -0.139850
vn 0.521925 0.841449 -0.139850
vn 0.000000 1.000000 -0.000000
vn 0.000000 1.000000 0.000000
vn 0.000000 1.000000 -0.000000
vn 0.000000 1.000000 -0.000001
vn 0.000000 1.000000 0.000000
vn 0.000000 1.000000 -0.000000
vn 0.000000 1.000000 0.000001
vn 0.000000 1.000000 0.000000
vn 0.000000 1.000000 0.000000
vn 0.000000 1.000000 0.000000
vn 0.000000 1.000000 0.000001
s 1
g Mushroom_002 Mushrooms
usemtl initialShadingGroup
f 1/119/1 2/128/2 47/3/3 48/4/4
s 2
f 2/128/5 3/5/6 46/6/7 47/3/8
s 3
f 3/5/9 4/126/10 45/8/11 46/6/12
s 4
f 4/126/13 5/9/14 44/10/15 45/8/16
s 5
f 5/9/17 6/124/18 43/12/19 44/10/20
s 6
f 6/124/21 7/105/22 42/14/23 43/12/24
s 7
f 7/106/25 8/123/26 41/16/27 42/129/28
s 8
f 8/123/29 9/17/30 40/18/31 41/16/32
s 9
f 9/17/33 10/121/34 51/20/35 40/18/36
s 10
f 10/121/37 11/21/38 50/22/39 51/20/40
s 11
f 11/21/41 12/118/42 49/24/43 50/22/44
s 12
f 12/118/45 1/119/46 48/4/47 49/24/48
s 13
f 11/120/49 10/19/50 25/25/51 12/23/52
s 14
f 77/26/53 90/27/54 88/28/55 76/29/56
s 13
f 1/1/57 26/30/58 27/31/59 2/2/60
f 12/23/52 25/25/51 26/30/58 1/1/57
f 25/25/51 10/19/50 9/122/61 8/15/62
f 26/30/58 25/25/51 8/15/62 7/13/63
f 6/11/64 27/31/59 26/30/58 7/13/63
f 4/7/65 27/31/59 6/11/64 5/125/66
f 2/2/60 27/31/59 4/7/65 3/127/67
s 8
f 29/32/68 28/33/69 21/111/70 20/112/71
s 7
f 30/130/72 29/32/73 20/112/74 19/103/75
s 6
f 31/38/76 30/36/77 19/104/78 18/113/79
s 5
f 32/40/80 31/38/81 18/113/82 17/114/83
s 4
f 33/42/84 32/40/85 17/114/86 16/115/87
s 3
f 34/44/88 33/42/89 16/115/90 15/116/91
s 2
f 35/46/92 34/44/93 15/116/94 14/117/95
s 1
f 36/48/96 35/46/97 14/117/98 13/108/99
s 12
f 37/50/100 36/48/101 13/108/102 24/107/103
s 11
f 38/52/104 37/50/105 24/107/106 23/109/107
s 10
f 39/54/108 38/52/109 23/109/110 22/110/111
s 9
f 28/33/112 39/54/113 22/110/114 21/111/115
s 8
f 41/16/32 40/18/31 28/33/69 29/32/68
s 7
f 42/129/28 41/16/27 29/32/73 30/130/72
s 6
f 43/12/24 42/14/23 30/36/77 31/38/76
s 5
f 44/10/20 43/12/19 31/38/81 32/40/80
s 4
f 45/8/16 44/10/15 32/40/85 33/42/84
s 3
f 46/6/12 45/8/11 33/42/89 34/44/88
s 2
f 47/3/8 46/6/7 34/44/93 35/46/92
s 1
f 48/4/4 47/3/3 35/46/97 36/48/96
s 12
f 49/24/48 48/4/47 36/48/101 37/50/100
s 11
f 50/22/44 49/24/43 37/50/105 38/52/104
s 10
f 51/20/40 50/22/39 38/52/109 39/54/108
s 9
f 40/18/36 51/20/35 39/54/113 28/33/112
s 15
f 13/49/116 14/47/117 53/102/118 52/92/119
f 14/47/117 15/45/120 54/101/121 53/102/118
f 15/45/120 16/43/122 55/100/123 54/101/121
f 16/43/122 17/41/124 56/99/125 55/100/123
f 17/41/124 18/39/126 57/98/127 56/99/125
f 18/39/126 19/37/128 58/97/129 57/98/127
f 19/37/128 20/35/130 59/96/131 58/97/129
f 20/35/130 21/34/132 60/95/133 59/96/131
f 21/34/132 22/55/134 61/94/135 60/95/133
f 22/55/134 23/53/136 62/93/137 61/94/135
f 23/53/136 24/51/138 63/91/139 62/93/137
f 24/51/138 13/49/116 52/92/119 63/91/139
s 16
f 52/57/140 53/56/141 65/68/142 64/69/143
s 17
f 53/56/144 54/58/145 66/70/146 65/68/147
s 18
f 54/58/148 55/59/149 67/71/150 66/70/151
s 19
f 55/59/152 56/60/153 68/72/154 67/71/155
s 20
f 56/60/156 57/61/157 69/73/158 68/72/159
s 21
f 57/61/160 58/62/161 70/74/162 69/73/163
s 22
f 58/62/164 59/63/165 71/75/166 70/74/167
s 23
f 59/63/168 60/64/169 72/76/170 71/75/171
s 24
f 60/64/172 61/65/173 73/77/174 72/76/175
s 25
f 61/65/176 62/66/177 74/78/178 73/77/179
s 26
f 62/66/180 63/67/181 75/79/182 74/78/183
s 27
f 63/67/184 52/57/185 64/69/186 75/79/187
s 16
f 64/69/143 65/68/142 77/26/188 76/29/189
s 17
f 65/68/147 66/70/146 78/80/190 77/26/191
s 18
f 66/70/151 67/71/150 79/81/192 78/80/193
s 19
f 67/71/155 68/72/154 80/82/194 79/81/195
s 20
f 68/72/159 69/73/158 81/83/196 80/82/197
s 21
f 69/73/163 70/74/162 82/84/198 81/83/199
s 22
f 70/74/167 71/75/166 83/85/200 82/84/201
s 23
f 71/75/171 72/76/170 84/86/202 83/85/203
s 24
f 72/76/175 73/77/174 85/87/204 84/86/205
s 25
f 73/77/179 74/78/178 86/88/206 85/87/207
s 26
f 74/78/183 75/79/182 87/89/208 86/88/209
s 27
f 75/79/187 64/69/186 76/29/210 87/89/211
s 14
f 87/89/212 89/90/213 85/87/214 86/88/215
f 82/84/216 88/28/55 90/27/54 81/83/217
f 85/87/214 89/90/213 83/85/218 84/86/219
f 87/89/212 76/29/56 88/28/55 89/90/213
f 83/85/218 89/90/213 88/28/55 82/84/216
f 79/81/220 90/27/54 77/26/53 78/80/221
f 81/83/217 90/27/54 79/81/220 80/82/222
