# This file uses centimeters as units for non-parametric coordinates.

mtllib Mushroom_001.mtl
g default
v 0.430736 -0.000000 -0.706735
v -0.021238 -0.000000 -1.273492
v -0.674360 -0.000000 -1.588019
v -1.399271 -0.000000 -1.588019
v -2.052392 -0.000000 -1.273493
v -2.504367 -0.000000 -0.706735
v -2.665673 -0.000000 -0.000000
v -2.504367 -0.000000 0.706735
v -2.052392 -0.000000 1.273493
v -1.399270 -0.000000 1.588019
v -0.674360 -0.000000 1.588020
v -0.021238 -0.000000 1.273493
v 0.430736 -0.000000 0.706735
v 0.592044 -0.000000 0.000000
v 1.412774 8.208078 -0.632411
v 1.008332 8.208078 -1.139565
v 0.423897 8.208078 -1.421015
v -0.224778 8.208078 -1.421015
v -0.809213 8.208078 -1.139565
v -1.213655 8.208078 -0.632411
v -1.357999 8.208078 -0.000000
v -1.213655 8.208078 0.632411
v -0.809214 8.208078 1.139565
v -0.224778 8.208078 1.421015
v 0.423896 8.208078 1.421015
v 1.008332 8.208078 1.139565
v 1.412774 8.208078 0.632411
v 1.557118 8.208078 0.000000
v 0.505397 6.754059 1.254010
v -0.067042 6.754059 1.254010
v -0.582792 6.754059 1.005638
v -0.939702 6.754059 0.558087
v -1.067081 6.754059 -0.000000
v -0.939701 6.754059 -0.558087
v -0.582792 6.754059 -1.005638
v -0.067041 6.754059 -1.254009
v 0.505398 6.754059 -1.254009
v 1.021147 6.754059 -1.005638
v 1.378057 6.754059 -0.558086
v 1.505436 6.754059 0.000000
v 1.378057 6.754059 0.558087
v 1.021147 6.754059 1.005638
v 0.179895 4.059033 1.400139
v -0.459250 4.059033 1.400139
v -1.035100 4.059033 1.122824
v -1.433601 4.059033 0.623120
v -1.575823 4.059033 -0.000000
v -1.433601 4.059033 -0.623121
v -1.035099 4.059033 -1.122825
v -0.459250 4.059033 -1.400139
v 0.179895 4.059033 -1.400139
v 0.755746 4.059033 -1.122825
v 1.154246 4.059033 -0.623120
v 1.296468 4.059033 0.000000
v 1.154246 4.059033 0.623121
v 0.755745 4.059033 1.122825
v 0.020843 1.639011 1.358387
v -0.599244 1.639011 1.358387
v -1.157922 1.639011 1.089342
v -1.544540 1.639011 0.604539
v -1.682521 1.639011 -0.000000
v -1.544539 1.639011 -0.604540
v -1.157922 1.639011 -1.089342
v -0.599243 1.639011 -1.358387
v 0.020843 1.639011 -1.358387
v 0.579521 1.639011 -1.089342
v 0.966139 1.639011 -0.604539
v 1.104121 1.639011 0.000000
v 0.966139 1.639011 0.604540
v 0.579521 1.639011 1.089343
v 6.490864 8.352267 -0.000000
v -6.291745 8.352267 -0.000001
v -5.658810 8.352267 2.773084
v 5.857926 8.352267 2.773085
v 5.857929 8.352267 -2.773084
v -5.658807 8.352267 -2.773085
v 4.084473 8.352267 4.996921
v -3.885355 8.352267 4.996921
v -1.322641 8.352267 6.231068
v 1.521758 8.352267 6.231068
v 4.084475 8.352267 -4.996921
v -3.885354 8.352267 -4.996921
v 1.521760 8.352267 -6.231068
v -1.322639 8.352267 -6.231068
v 6.218335 10.135412 0.000000
v -6.019216 10.135412 -0.000001
v -5.413270 10.135412 2.654839
v 5.612386 10.135412 2.654840
v 5.612389 10.135412 -2.654838
v -5.413267 10.135412 -2.654839
v 3.914554 10.135412 4.783849
v -3.715435 10.135412 4.783847
v -1.261998 10.135412 5.965369
v 1.461114 10.135412 5.965369
v 3.914555 10.135412 -4.783849
v -3.715435 10.135412 -4.783849
v 1.461116 10.135412 -5.965371
v -1.261995 10.135412 -5.965371
v 5.733839 11.685974 -0.000000
v -5.534720 11.685974 -0.000001
v -4.976754 11.685974 2.444623
v 5.175870 11.685974 2.444623
v 5.175872 11.685974 -2.444623
v -4.976752 11.685974 -2.444623
v 3.612475 11.685974 4.405054
v -3.413357 11.685974 4.405053
v -1.154187 11.685974 5.493021
v 1.353304 11.685974 5.493021
v 3.612477 11.685974 -4.405055
v -3.413357 11.685974 -4.405054
v 1.353305 11.685974 -5.493021
v -1.154185 11.685974 -5.493021
v 2.830010 12.867426 -0.000000
v -2.630892 12.867426 -0.000001
v -2.360488 12.867426 1.184688
v 2.559604 12.867426 1.184688
v 2.559606 12.867426 -1.184690
v -2.360486 12.867426 -1.184690
v 1.801967 12.867426 2.134720
v -1.602849 12.867426 2.134720
v -0.508021 12.867426 2.661968
v 0.707139 12.867426 2.661968
v 1.801967 12.867426 -2.134722
v -1.602849 12.867426 -2.134722
v 0.707139 12.867426 -2.661971
v -0.508020 12.867426 -2.661971
v 1.139400 8.794816 -4.555838
v 3.013126 8.794816 -3.653493
v 4.309785 8.794816 -2.027537
v 4.772555 8.794816 -0.000000
v 4.309783 8.794816 2.027538
v 3.013125 8.794816 3.653494
v 1.139398 8.794816 4.555839
v -0.940281 8.794816 4.555838
v -2.814006 8.794816 3.653493
v -4.110666 8.794816 2.027537
v -4.573436 8.794816 -0.000001
v -4.110664 8.794816 -2.027538
v -2.814006 8.794816 -3.653494
v -0.940279 8.794816 -4.555838
vt 0.455124 0.875862
vt 0.466285 0.867407
vt 0.506712 0.754533
vt 0.518682 0.752634
vt 0.492008 0.790702
vt 0.494686 0.756994
vt 0.479926 0.794600
vt 0.482454 0.759598
vt 0.467261 0.828187
vt 0.469877 0.761838
vt 0.456535 0.819187
vt 0.456949 0.763264
vt 0.442966 0.815733
vt 0.443834 0.763553
vt 0.429242 0.818508
vt 0.430725 0.763068
vt 0.418081 0.826962
vt 0.417820 0.761448
vt 0.407281 0.794056
vt 0.405278 0.759020
vt 0.395259 0.789978
vt 0.393086 0.756234
vt 0.417104 0.866182
vt 0.381099 0.753593
vt 0.427831 0.875182
vt 0.369159 0.751515
vt 0.441400 0.878636
vt 0.357186 0.750269
vt 0.433857 0.127971
vt 0.471627 0.218627
vt 0.450088 0.222333
vt 0.416059 0.140654
vt 0.409384 0.658477
vt 0.397870 0.657511
vt 0.467884 0.458184
vt 0.473285 0.469388
vt 0.421041 0.659327
vt 0.473290 0.481825
vt 0.432806 0.659939
vt 0.467898 0.493033
vt 0.444607 0.660241
vt 0.458177 0.500793
vt 0.456412 0.660116
vt 0.446052 0.503565
vt 0.468185 0.659680
vt 0.433925 0.500802
vt 0.479853 0.659005
vt 0.424198 0.493051
vt 0.491380 0.658210
vt 0.418797 0.481848
vt 0.502764 0.657431
vt 0.418791 0.469410
vt 0.514024 0.656779
vt 0.424183 0.458202
vt 0.364101 0.655116
vt 0.433904 0.450443
vt 0.375250 0.655740
vt 0.446029 0.447670
vt 0.386499 0.656561
vt 0.458156 0.450433
vt 0.409024 0.711729
vt 0.397153 0.709813
vt 0.420783 0.713435
vt 0.432490 0.714670
vt 0.444196 0.715253
vt 0.455909 0.714845
vt 0.467633 0.713785
vt 0.479416 0.712256
vt 0.491314 0.710518
vt 0.503368 0.708847
vt 0.515576 0.707467
vt 0.360644 0.705245
vt 0.372940 0.706400
vt 0.385125 0.707962
vt 0.455396 0.124265
vt 0.489426 0.205944
vt 0.405526 0.159803
vt 0.429075 0.216327
vt 0.412749 0.201798
vt 0.404345 0.181625
vt 0.476409 0.130271
vt 0.499959 0.186795
vt 0.492736 0.144800
vt 0.501140 0.164973
vt 0.517042 0.531985
vt 0.485554 0.557209
vt 0.406528 0.394026
vt 0.445842 0.384962
vt 0.375040 0.419250
vt 0.446239 0.566273
vt 0.534379 0.455252
vt 0.534468 0.495597
vt 0.516795 0.418940
vt 0.485196 0.393854
vt 0.357614 0.455638
vt 0.406886 0.557382
vt 0.357702 0.495984
vt 0.375287 0.532296
vt 0.500527 0.588003
vt 0.543894 0.553232
vt 0.444228 0.303555
vt 0.505801 0.297367
vt 0.445712 0.350721
vt 0.391554 0.363232
vt 0.399680 0.049233
vt 0.351103 0.084542
vt 0.348188 0.398003
vt 0.458765 0.038496
vt 0.446369 0.600514
vt 0.554378 0.262061
vt 0.567879 0.503090
vt 0.567733 0.447506
vt 0.343591 0.252640
vt 0.388825 0.292140
vt 0.543484 0.397489
vt 0.319976 0.197424
vt 0.499935 0.362948
vt 0.322657 0.137430
vt 0.324203 0.448146
vt 0.516659 0.054458
vt 0.392146 0.588288
vt 0.582826 0.209173
vt 0.324349 0.503730
vt 0.561895 0.093960
vt 0.348597 0.553746
vt 0.585509 0.149178
vt 0.447628 0.278659
vt 0.493847 0.270444
vt 0.411635 0.076155
vt 0.373555 0.103610
vt 0.457856 0.067939
vt 0.531927 0.242990
vt 0.367178 0.234994
vt 0.402420 0.266008
vt 0.348883 0.191760
vt 0.351159 0.144869
vt 0.503064 0.080590
vt 0.554324 0.201732
vt 0.538307 0.111605
vt 0.556602 0.154840
vt 0.615674 0.217737
vt 0.532315 0.024337
vt 0.580257 0.284029
vt 0.459802 0.004565
vt 0.289808 0.128869
vt 0.325222 0.062575
vt 0.445678 0.342034
vt 0.373168 0.322261
vt 0.286665 0.203964
vt 0.316417 0.272985
vt 0.519587 0.328389
vt 0.385892 0.018212
vt 0.530671 0.751567
vt 0.527888 0.706497
vt 0.525182 0.656322
vt 0.525866 0.629132
vt 0.363823 0.627920
vt 0.355466 0.782408
vt 0.531910 0.783729
vt 0.513490 0.629293
vt 0.376195 0.628265
vt 0.388254 0.628855
vt 0.399997 0.629507
vt 0.411449 0.630078
vt 0.422675 0.630471
vt 0.433767 0.630632
vt 0.444830 0.630547
vt 0.455890 0.630797
vt 0.466983 0.630802
vt 0.478213 0.630578
vt 0.489673 0.630178
vt 0.501424 0.629702
vt 0.518002 0.784845
vt 0.369356 0.783732
vt 0.382680 0.786348
vt 0.411345 0.853420
vt 0.411693 0.839423
vt 0.419155 0.797830
vt 0.431212 0.800601
vt 0.443547 0.801871
vt 0.455900 0.800786
vt 0.467997 0.798195
vt 0.473021 0.840949
vt 0.472672 0.854947
vt 0.504641 0.787261
vt 0.589070 0.073616
vt 0.618820 0.142641
vn 0.860402 -0.253495 -0.442097
vn 0.581549 -0.122806 -0.804189
vn 0.633089 -0.097653 -0.767895
vn 0.894259 -0.152877 -0.420630
vn 0.163843 0.068382 -0.984114
vn 0.241744 -0.011188 -0.970276
vn -0.270509 0.261836 -0.926427
vn -0.203075 0.091871 -0.974844
vn -0.603092 0.406258 -0.686466
vn -0.601127 0.187653 -0.776809
vn -0.795865 0.488384 -0.357883
vn -0.868226 0.253474 -0.426538
vn -0.857552 0.514398 -0.000000
vn -0.960989 0.276588 -0.000000
vn -0.795865 0.488384 0.357882
vn -0.868226 0.253474 0.426537
vn -0.603092 0.406258 0.686465
vn -0.601128 0.187653 0.776809
vn -0.270509 0.261836 0.926427
vn -0.203075 0.091871 0.974844
vn 0.163843 0.068383 0.984114
vn 0.241743 -0.011187 0.970276
vn 0.581549 -0.122805 0.804189
vn 0.633088 -0.097653 0.767895
vn 0.860402 -0.253495 0.442097
vn 0.894259 -0.152877 0.420631
vn 0.954499 -0.298215 0.000000
vn 0.985165 -0.171608 0.000000
vn 0.000000 -1.000000 0.000000
vn 0.000000 -1.000000 0.000000
vn 0.000000 -1.000000 0.000000
vn 0.000000 -1.000000 0.000000
vn 0.000000 1.000000 -0.000000
vn 0.000000 1.000000 -0.000000
vn 0.000000 1.000000 -0.000000
vn 0.000000 1.000000 -0.000000
vn -0.207345 0.005724 0.978251
vn 0.237752 -0.019713 0.971126
vn 0.210292 -0.099914 0.972520
vn -0.231513 -0.135759 0.963313
vn -0.613537 0.029176 0.789127
vn -0.621764 -0.167297 0.765128
vn -0.897062 0.045671 0.439539
vn -0.886953 -0.188661 0.421570
vn -0.998668 0.051606 -0.000000
vn -0.980566 -0.196190 -0.000000
vn -0.897062 0.045671 -0.439539
vn -0.886953 -0.188661 -0.421570
vn -0.613536 0.029176 -0.789127
vn -0.621764 -0.167297 -0.765128
vn -0.207344 0.005724 -0.978251
vn -0.231513 -0.135759 -0.963313
vn 0.237752 -0.019713 -0.971126
vn 0.210292 -0.099914 -0.972520
vn 0.632810 -0.042043 -0.773165
vn 0.614915 -0.066955 -0.785746
vn 0.902545 -0.057150 -0.426786
vn 0.897889 -0.043829 -0.438035
vn 0.998047 -0.062470 0.000000
vn 0.999369 -0.035521 0.000000
vn 0.902545 -0.057150 0.426786
vn 0.897889 -0.043829 0.438035
vn 0.632810 -0.042043 0.773165
vn 0.614915 -0.066954 0.785746
vn -0.227521 0.042874 0.972829
vn 0.217287 -0.000743 0.976107
vn -0.624739 0.081458 0.776573
vn -0.896746 0.107679 0.429245
vn -0.993140 0.116932 -0.000000
vn -0.896746 0.107679 -0.429245
vn -0.624739 0.081458 -0.776574
vn -0.227520 0.042874 -0.972829
vn 0.217288 -0.000743 -0.976107
vn 0.619605 -0.040562 -0.783865
vn 0.897827 -0.068303 -0.435020
vn 0.996936 -0.078225 0.000000
vn 0.897827 -0.068303 0.435020
vn 0.619604 -0.040562 0.783866
vn 0.000000 -1.000000 -0.000000
vn 0.000000 -1.000000 -0.000000
vn 0.000000 -1.000000 -0.000000
vn 0.000000 -1.000000 -0.000000
vn 0.000000 -1.000000 0.000000
vn 0.000000 -1.000000 0.000000
vn 0.000000 -1.000000 0.000000
vn 0.000000 -1.000000 0.000000
vn 0.000000 -1.000000 -0.000000
vn 0.000000 -1.000000 -0.000000
vn 0.000000 1.000000 0.000000
vn 0.000000 1.000000 0.000000
vn 0.000000 1.000000 -0.000001
vn 0.000000 1.000000 -0.000001
vn 0.000000 1.000000 0.000003
vn 0.000000 1.000000 0.000003
vn 0.000000 1.000000 0.000001
vn 0.000000 1.000000 0.000001
vn 0.000000 1.000000 -0.000003
vn 0.000000 1.000000 -0.000003
vn -0.179361 -0.982931 0.040938
vn -0.179361 -0.982931 0.040938
vn 0.064185 -0.997831 -0.014650
vn 0.064185 -0.997831 -0.014650
vn 0.179361 -0.982931 0.040938
vn 0.179361 -0.982931 0.040938
vn -0.064185 -0.997830 -0.014650
vn -0.064185 -0.997831 -0.014650
vn 0.179361 -0.982931 -0.040938
vn 0.179361 -0.982931 -0.040938
vn -0.064185 -0.997831 0.014650
vn -0.064185 -0.997831 0.014650
vn -0.179361 -0.982931 -0.040938
vn -0.179361 -0.982931 -0.040938
vn 0.064185 -0.997831 0.014650
vn 0.064185 -0.997830 0.014650
vn -0.079823 -0.982931 0.165753
vn -0.079823 -0.982931 0.165753
vn 0.028565 -0.997831 -0.059316
vn 0.028565 -0.997831 -0.059316
vn -0.000000 -0.982931 0.183973
vn -0.000000 -0.982931 0.183973
vn 0.000000 -0.997831 -0.065835
vn 0.000000 -0.997831 -0.065835
vn 0.079823 -0.982931 0.165753
vn 0.079823 -0.982931 0.165753
vn -0.028565 -0.997831 -0.059316
vn -0.028565 -0.997831 -0.059316
vn -0.143836 -0.982931 0.114705
vn -0.143836 -0.982931 0.114705
vn 0.051472 -0.997831 -0.041048
vn 0.051473 -0.997830 -0.041048
vn 0.143836 -0.982931 0.114706
vn 0.143836 -0.982931 0.114706
vn -0.051472 -0.997831 -0.041048
vn -0.051472 -0.997831 -0.041048
vn 0.143836 -0.982931 -0.114705
vn 0.143836 -0.982931 -0.114705
vn -0.051472 -0.997831 0.041048
vn -0.051473 -0.997831 0.041048
vn -0.143836 -0.982931 -0.114706
vn -0.143836 -0.982931 -0.114706
vn 0.051473 -0.997830 0.041048
vn 0.051472 -0.997831 0.041048
vn 0.079823 -0.982931 -0.165754
vn 0.079823 -0.982931 -0.165754
vn -0.028565 -0.997831 0.059316
vn -0.028565 -0.997831 0.059315
vn 0.000000 -0.982931 -0.183973
vn 0.000000 -0.982931 -0.183973
vn 0.000000 -0.997831 0.065836
vn 0.000000 -0.997831 0.065836
vn -0.079823 -0.982931 -0.165754
vn -0.079823 -0.982931 -0.165754
vn 0.028565 -0.997831 0.059315
vn 0.028565 -0.997830 0.059316
vn -0.988521 0.151082 -0.000000
vn -0.890627 0.151082 0.428903
vn -0.879541 0.216794 0.423565
vn -0.976217 0.216794 -0.000001
vn 0.890627 0.151081 0.428903
vn 0.988521 0.151082 0.000000
vn 0.976218 0.216794 0.000001
vn 0.879541 0.216794 0.423565
vn 0.890627 0.151082 -0.428903
vn 0.879542 0.216794 -0.423565
vn -0.890627 0.151082 -0.428903
vn -0.879541 0.216794 -0.423565
vn -0.616333 0.151083 0.772857
vn -0.219968 0.151083 0.963736
vn -0.217230 0.216795 0.951741
vn -0.608662 0.216794 0.763237
vn 0.219968 0.151083 0.963737
vn 0.217230 0.216794 0.951741
vn 0.616333 0.151082 0.772857
vn 0.608662 0.216794 0.763237
vn 0.616334 0.151082 -0.772857
vn 0.608662 0.216794 -0.763237
vn -0.616333 0.151082 -0.772857
vn -0.608662 0.216794 -0.763237
vn 0.219968 0.151082 -0.963737
vn 0.217230 0.216794 -0.951741
vn -0.219968 0.151082 -0.963737
vn -0.217230 0.216794 -0.951741
vn -0.643539 0.699866 0.309912
vn -0.714274 0.699866 -0.000000
vn 0.714274 0.699866 0.000000
vn 0.643539 0.699866 0.309912
vn 0.643539 0.699866 -0.309912
vn -0.643539 0.699866 -0.309912
vn -0.158942 0.699868 0.696363
vn -0.445342 0.699867 0.558441
vn 0.158941 0.699868 0.696363
vn 0.445342 0.699868 0.558441
vn 0.445342 0.699867 -0.558441
vn -0.445342 0.699867 -0.558441
vn 0.158942 0.699868 -0.696363
vn -0.158942 0.699868 -0.696364
vn -0.339539 0.926270 0.163515
vn -0.376861 0.926270 -0.000000
vn 0.376861 0.926270 0.000000
vn 0.339539 0.926270 0.163514
vn 0.339539 0.926270 -0.163514
vn -0.339539 0.926270 -0.163514
vn -0.083860 0.926271 0.367410
vn -0.234968 0.926270 0.294641
vn 0.083860 0.926271 0.367410
vn 0.234968 0.926270 0.294641
vn 0.234968 0.926270 -0.294641
vn -0.234968 0.926270 -0.294641
vn 0.083860 0.926271 -0.367410
vn -0.083860 0.926271 -0.367410
vn -0.110819 -0.966833 0.230116
vn -0.110819 -0.966833 0.230116
vn -0.199688 -0.966833 0.159246
vn -0.199688 -0.966833 0.159246
vn -0.249007 -0.966833 0.056834
vn -0.249007 -0.966833 0.056834
vn -0.249007 -0.966833 -0.056834
vn -0.249007 -0.966833 -0.056834
vn -0.199688 -0.966833 -0.159246
vn -0.199688 -0.966833 -0.159246
vn -0.110819 -0.966833 -0.230116
vn -0.110819 -0.966833 -0.230116
vn 0.000000 -0.966833 -0.255409
vn 0.000000 -0.966833 -0.255409
vn 0.110819 -0.966833 -0.230116
vn 0.110819 -0.966833 -0.230116
vn 0.199688 -0.966833 -0.159246
vn 0.199688 -0.966833 -0.159246
vn 0.249007 -0.966833 -0.056834
vn 0.249007 -0.966833 -0.056834
vn 0.249007 -0.966833 0.056834
vn 0.249007 -0.966833 0.056834
vn 0.199688 -0.966833 0.159246
vn 0.199688 -0.966833 0.159246
vn 0.110819 -0.966833 0.230116
vn 0.110819 -0.966833 0.230116
vn 0.000000 -0.966833 0.255410
vn 0.000000 -0.966833 0.255410
s 1
g Mushroom_001 Mushrooms
usemtl initialShadingGroup
f 1/173/1 2/185/2 66/3/3 67/4/4
f 2/185/2 3/5/5 65/6/6 66/3/3
f 3/5/5 4/7/7 64/8/8 65/6/6
f 4/7/7 5/182/9 63/10/10 64/8/8
f 5/182/9 6/181/11 62/12/12 63/10/10
f 6/181/11 7/180/13 61/14/14 62/12/12
f 7/180/13 8/179/15 60/16/16 61/14/14
f 8/179/15 9/178/17 59/18/18 60/16/16
f 9/178/17 10/19/19 58/20/20 59/18/18
f 10/19/19 11/21/21 57/22/22 58/20/20
f 11/21/21 12/175/23 70/24/24 57/22/22
f 12/175/23 13/174/25 69/26/26 70/24/24
f 13/174/25 14/158/27 68/28/28 69/26/26
f 14/159/27 1/173/1 67/4/4 68/153/28
s 2
f 12/23/29 11/176/30 10/177/31 9/17/32
s 3
f 113/29/33 114/30/34 115/31/35 116/32/36
s 1
f 30/33/37 29/34/38 25/163/39 24/164/40
f 31/37/41 30/33/37 24/164/40 23/165/42
f 32/39/43 31/37/41 23/165/42 22/166/44
f 33/41/45 32/39/43 22/166/44 21/167/46
f 34/43/47 33/41/45 21/167/46 20/168/48
f 35/45/49 34/43/47 20/168/48 19/169/50
f 36/47/51 35/45/49 19/169/50 18/170/52
f 37/49/53 36/47/51 18/170/52 17/171/54
f 38/51/55 37/49/53 17/171/54 16/172/56
f 39/53/57 38/51/55 16/172/56 15/160/58
f 40/155/59 39/53/57 15/160/58 28/156/60
f 41/57/61 40/55/59 28/157/60 27/161/62
f 42/59/63 41/57/61 27/161/62 26/162/64
f 29/34/38 42/59/63 26/162/64 25/163/39
f 44/61/65 43/62/66 29/34/38 30/33/37
f 45/63/67 44/61/65 30/33/37 31/37/41
f 46/64/68 45/63/67 31/37/41 32/39/43
f 47/65/69 46/64/68 32/39/43 33/41/45
f 48/66/70 47/65/69 33/41/45 34/43/47
f 49/67/71 48/66/70 34/43/47 35/45/49
f 50/68/72 49/67/71 35/45/49 36/47/51
f 51/69/73 50/68/72 36/47/51 37/49/53
f 52/70/74 51/69/73 37/49/53 38/51/55
f 53/71/75 52/70/74 38/51/55 39/53/57
f 54/154/76 53/71/75 39/53/57 40/155/59
f 55/73/77 54/72/76 40/55/59 41/57/61
f 56/74/78 55/73/77 41/57/61 42/59/63
f 43/62/66 56/74/78 42/59/63 29/34/38
f 58/20/20 57/22/22 43/62/66 44/61/65
f 59/18/18 58/20/20 44/61/65 45/63/67
f 60/16/16 59/18/18 45/63/67 46/64/68
f 61/14/14 60/16/16 46/64/68 47/65/69
f 62/12/12 61/14/14 47/65/69 48/66/70
f 63/10/10 62/12/12 48/66/70 49/67/71
f 64/8/8 63/10/10 49/67/71 50/68/72
f 65/6/6 64/8/8 50/68/72 51/69/73
f 66/3/3 65/6/6 51/69/73 52/70/74
f 67/4/4 66/3/3 52/70/74 53/71/75
f 68/153/28 67/4/4 53/71/75 54/154/76
f 69/26/26 68/28/28 54/72/76 55/73/77
f 70/24/24 69/26/26 55/73/77 56/74/78
f 57/22/22 70/24/24 56/74/78 43/62/66
s 2
f 14/27/79 7/13/80 6/11/81 1/1/82
f 13/25/83 8/15/84 7/13/80 14/27/79
f 12/23/29 9/17/32 8/15/84 13/25/83
f 1/1/82 6/11/81 5/9/85 2/2/86
f 2/2/86 5/9/85 4/183/87 3/184/88
s 3
f 113/29/33 117/75/89 118/76/90 114/30/34
f 119/77/91 120/78/92 121/79/93 122/80/94
f 116/32/36 115/31/35 120/78/92 119/77/91
f 118/76/90 117/75/89 123/81/95 124/82/96
f 124/82/96 123/81/95 125/83/97 126/84/98
s 6
f 21/42/99 22/40/100 136/85/101 137/86/102
s 7
f 27/58/103 28/56/104 130/87/105 131/88/106
s 8
f 28/56/107 15/54/108 129/89/109 130/87/110
s 9
f 20/44/111 21/42/112 137/86/113 138/90/114
s 10
f 23/38/115 24/36/116 134/91/117 135/92/118
s 11
f 24/36/119 25/35/120 133/93/121 134/91/122
s 12
f 25/35/123 26/60/124 132/94/125 133/93/126
s 13
f 22/40/127 23/38/128 135/92/129 136/85/130
s 14
f 26/60/131 27/58/132 131/88/133 132/94/134
s 15
f 15/54/135 16/52/136 128/95/137 129/89/138
s 16
f 19/46/139 20/44/140 138/90/141 139/96/142
s 17
f 16/52/143 17/50/144 127/97/145 128/95/146
s 18
f 17/50/147 18/48/148 140/98/149 127/97/150
s 19
f 18/48/151 19/46/152 139/96/153 140/98/154
s 20
f 72/151/155 73/147/156 87/101/157 86/102/158
f 74/146/159 71/152/160 85/105/161 88/106/162
f 71/152/160 75/144/163 89/108/164 85/105/161
f 76/143/165 72/151/155 86/102/158 90/110/166
f 78/148/167 79/150/168 93/113/169 92/114/170
f 79/150/168 80/149/171 94/116/172 93/113/169
f 80/149/171 77/145/173 91/118/174 94/116/172
f 73/147/156 78/148/167 92/114/170 87/101/157
f 77/145/173 74/146/159 88/106/162 91/118/174
f 75/144/163 81/142/175 95/120/176 89/108/164
f 82/141/177 76/143/165 90/110/166 96/122/178
f 81/142/175 83/186/179 97/124/180 95/120/176
f 83/186/179 84/187/181 98/126/182 97/124/180
f 84/187/181 82/141/177 96/122/178 98/126/182
f 86/102/158 87/101/157 101/127/183 100/128/184
f 88/106/162 85/105/161 99/129/185 102/130/186
f 85/105/161 89/108/164 103/131/187 99/129/185
f 90/110/166 86/102/158 100/128/184 104/132/188
f 92/114/170 93/113/169 107/133/189 106/134/190
f 93/113/169 94/116/172 108/135/191 107/133/189
f 94/116/172 91/118/174 105/136/192 108/135/191
f 87/101/157 92/114/170 106/134/190 101/127/183
f 91/118/174 88/106/162 102/130/186 105/136/192
f 89/108/164 95/120/176 109/137/193 103/131/187
f 96/122/178 90/110/166 104/132/188 110/138/194
f 95/120/176 97/124/180 111/139/195 109/137/193
f 97/124/180 98/126/182 112/140/196 111/139/195
f 98/126/182 96/122/178 110/138/194 112/140/196
f 100/128/184 101/127/183 115/31/197 114/30/198
f 102/130/186 99/129/185 113/29/199 116/32/200
f 99/129/185 103/131/187 117/75/201 113/29/199
f 104/132/188 100/128/184 114/30/198 118/76/202
f 106/134/190 107/133/189 121/79/203 120/78/204
f 107/133/189 108/135/191 122/80/205 121/79/203
f 108/135/191 105/136/192 119/77/206 122/80/205
f 101/127/183 106/134/190 120/78/204 115/31/197
f 105/136/192 102/130/186 116/32/200 119/77/206
f 103/131/187 109/137/193 123/81/207 117/75/201
f 110/138/194 104/132/188 118/76/202 124/82/208
f 109/137/193 111/139/195 125/83/209 123/81/207
f 111/139/195 112/140/196 126/84/210 125/83/209
f 112/140/196 110/138/194 124/82/208 126/84/210
s 17
f 128/95/146 127/97/145 83/123/211 81/119/212
s 15
f 129/89/138 128/95/137 81/119/213 75/107/214
s 8
f 130/87/110 129/89/109 75/107/215 71/104/216
s 7
f 131/88/106 130/87/105 71/104/217 74/103/218
s 14
f 132/94/134 131/88/133 74/103/219 77/117/220
s 12
f 133/93/126 132/94/125 77/117/221 80/115/222
s 11
f 134/91/122 133/93/121 80/115/223 79/112/224
s 10
f 135/92/118 134/91/117 79/112/225 78/111/226
s 13
f 136/85/130 135/92/129 78/111/227 73/100/228
s 6
f 137/86/102 136/85/101 73/100/229 72/99/230
s 9
f 138/90/114 137/86/113 72/99/231 76/109/232
s 16
f 139/96/142 138/90/141 76/109/233 82/121/234
s 19
f 140/98/154 139/96/153 82/121/235 84/125/236
s 18
f 127/97/150 140/98/149 84/125/237 83/123/238
