# This file uses centimeters as units for non-parametric coordinates.

mtllib Roof.mtl
g default
v -4.239314 5.304785 5.228791
v -1.110425 5.304785 5.228791
v -4.239314 4.971788 -3.181792
v -1.110183 4.853829 -3.229601
v -4.262727 5.000776 -2.552545
v -1.133671 4.654628 -2.638172
v -4.323479 5.037256 -1.916260
v -1.062786 4.606615 -2.009547
v -4.326822 5.051196 -1.245812
v -1.177351 4.495363 -1.264348
v -4.266746 5.108941 -0.589493
v -1.113641 4.658404 -0.589493
v -4.239314 5.163144 0.056983
v -1.103193 5.267055 0.056983
v -4.239314 5.171125 0.703459
v -1.091329 5.043032 0.703459
v -4.239314 5.214180 1.349935
v -1.108675 4.787133 1.349935
v -4.239314 5.282768 1.996411
v -1.124968 4.750411 1.996411
v -4.239314 5.304785 2.642887
v -1.115985 4.935888 2.642887
v -4.239314 5.304785 3.289363
v -1.110293 5.202445 3.289363
v -4.239314 5.304785 3.935839
v -1.110425 5.280925 3.935839
v -4.239314 5.304785 4.582315
v -1.110425 5.304785 4.582315
v -1.345674 4.780556 -3.193532
v -1.416235 4.409638 -2.602325
v -1.303222 4.496303 -1.993056
v -1.419719 4.508936 -1.263340
v -1.413116 4.589832 -0.589493
v -1.345070 5.233781 0.056983
v -1.330385 5.077703 0.703459
v -1.335196 4.870049 1.349935
v -1.352859 4.830243 1.996411
v -1.354738 4.972003 2.642887
v -1.351044 5.187896 3.289363
v -1.351109 5.274196 3.935839
v -1.351109 5.304785 4.582315
v -1.351109 5.304785 5.228791
v -1.584939 4.722918 -3.170859
v -1.658237 4.414244 -2.605433
v -1.520069 4.604548 -1.982339
v -1.617931 4.662242 -1.255620
v -1.640590 4.687962 -0.589493
v -1.591629 5.196602 0.056983
v -1.572180 5.122257 0.703459
v -1.563558 4.975487 1.349935
v -1.578912 4.937842 1.996411
v -1.591496 5.031065 2.642887
v -1.591771 5.184536 3.289363
v -1.591792 5.271729 3.935839
v -1.591792 5.304785 4.582315
v -1.591792 5.304785 5.228791
v -1.827477 4.622485 -3.170868
v -1.854424 4.636949 -2.611713
v -1.751779 4.959310 -1.987696
v -1.852064 4.836812 -1.246926
v -1.866647 4.783172 -0.589493
v -1.832476 5.156499 0.056983
v -1.819989 5.166123 0.703459
v -1.805512 5.086109 1.349935
v -1.815700 5.053682 1.996411
v -1.830881 5.096777 2.642887
v -1.832476 5.185737 3.289363
v -1.832476 5.271729 3.935839
v -1.832476 5.304785 4.582315
v -1.832476 5.304785 5.228791
v -2.073392 4.480868 -3.165998
v -2.084778 4.733673 -2.605087
v -2.074971 5.101315 -1.986995
v -2.124552 4.733264 -1.241258
v -2.106271 4.694543 -0.589493
v -2.073160 5.115353 0.056983
v -2.069656 5.177694 0.703459
v -2.059433 5.157079 1.349935
v -2.062991 5.035977 1.996411
v -2.072589 5.143853 2.642887
v -2.073160 5.191280 3.289363
v -2.073160 5.274196 3.935839
v -2.073160 5.304785 4.582315
v -2.073160 5.304785 5.228791
v -2.313902 4.367775 -3.147662
v -2.315288 4.533357 -2.609034
v -2.376314 5.049915 -1.991340
v -2.368894 4.749224 -1.238472
v -2.333527 4.598961 -0.589493
v -2.313844 4.990203 0.056983
v -2.314129 5.072988 0.703459
v -2.311123 5.177462 1.349935
v -2.310546 4.891614 1.996411
v -2.313734 5.134442 2.642887
v -2.313844 5.206899 3.289363
v -2.313844 5.280925 3.935839
v -2.313844 5.304785 4.582315
v -2.313844 5.304785 5.228791
v -2.554528 4.313879 -3.124201
v -2.528942 4.411536 -2.561628
v -2.635099 5.039752 -1.983429
v -2.585822 4.878457 -1.236902
v -2.576839 4.692795 -0.589493
v -2.554528 4.805729 0.056983
v -2.554528 4.938161 0.703459
v -2.554653 5.166068 1.349935
v -2.554101 5.004739 1.996411
v -2.554528 5.106691 2.642887
v -2.554528 5.229732 3.289363
v -2.554528 5.290031 3.935839
v -2.554528 5.304785 4.582315
v -2.554528 5.304785 5.228791
v -2.794603 4.298534 -3.118024
v -2.749352 4.541109 -2.577012
v -2.863891 4.979028 -1.972040
v -2.800962 4.918815 -1.235768
v -2.826825 4.796460 -0.589493
v -2.795474 4.739580 0.056983
v -2.795211 4.916053 0.703459
v -2.795211 5.160198 1.349935
v -2.795211 5.126339 1.996411
v -2.795211 5.140006 2.642887
v -2.795211 5.255565 3.289363
v -2.795211 5.298891 3.935839
v -2.795211 5.304785 4.582315
v -2.795211 5.304785 5.228791
v -3.033737 4.358424 -3.161405
v -2.978526 4.657777 -2.613464
v -3.075717 4.842695 -1.963790
v -3.026754 4.772461 -1.234969
v -3.072121 4.888592 -0.589493
v -3.036679 4.909089 0.056983
v -3.035895 5.013489 0.703459
v -3.035895 5.165116 1.349935
v -3.035895 5.201435 1.996411
v -3.035895 5.223737 2.642887
v -3.035895 5.279564 3.289363
v -3.035895 5.304191 3.935839
v -3.035895 5.304785 4.582315
v -3.035895 5.304785 5.228791
v -3.274750 4.521923 -3.218594
v -3.232221 4.583008 -2.605432
v -3.294868 4.657171 -1.949675
v -3.279699 4.689271 -1.236884
v -3.316358 4.899526 -0.589493
v -3.277809 5.038529 0.056983
v -3.276579 5.082482 0.703459
v -3.276579 5.173422 1.349935
v -3.276579 5.258656 1.996411
v -3.276579 5.286942 2.642887
v -3.276579 5.297122 3.289363
v -3.276579 5.304785 3.935839
v -3.276579 5.304785 4.582315
v -3.276579 5.304785 5.228791
v -3.516625 4.716022 -3.226359
v -3.502271 4.484896 -2.590599
v -3.556998 4.460395 -1.932963
v -3.567544 4.684775 -1.241253
v -3.564027 4.827632 -0.589493
v -3.518316 5.064669 0.056983
v -3.517263 5.093838 0.703459
v -3.517263 5.183284 1.349935
v -3.517263 5.271525 1.996411
v -3.517263 5.302027 2.642887
v -3.517263 5.304785 3.289363
v -3.517263 5.304785 3.935839
v -3.517263 5.304785 4.582315
v -3.517263 5.304785 5.228791
v -3.758078 4.842918 -3.202488
v -3.774200 4.562601 -2.574106
v -3.872074 4.572533 -1.919231
v -3.887231 4.746345 -1.245224
v -3.810417 4.848074 -0.589493
v -3.758236 5.092837 0.056983
v -3.757947 5.114021 0.703459
v -3.757947 5.189872 1.349935
v -3.757947 5.274169 1.996411
v -3.757947 5.304785 2.642887
v -3.757947 5.304785 3.289363
v -3.757947 5.304785 3.935839
v -3.757947 5.304785 4.582315
v -3.757947 5.304785 5.228791
v -3.998793 4.923655 -3.178632
v -4.030369 4.811918 -2.553089
v -4.136157 4.842874 -1.918330
v -4.141430 4.898139 -1.247218
v -4.045326 4.968819 -0.589493
v -3.998630 5.124744 0.056983
v -3.998630 5.139130 0.703459
v -3.998630 5.199247 1.349935
v -3.998630 5.276499 1.996411
v -3.998630 5.304785 2.642887
v -3.998630 5.304785 3.289363
v -3.998630 5.304785 3.935839
v -3.998630 5.304785 4.582315
v -3.998630 5.304785 5.228791
vt 0.375000 0.750000
vt 0.625000 0.750000
vt 0.375000 1.000000
vt 0.625000 1.000000
vt 0.375000 0.769231
vt 0.625000 0.769231
vt 0.375000 0.788462
vt 0.625000 0.788462
vt 0.375000 0.807692
vt 0.625000 0.807692
vt 0.375000 0.826923
vt 0.625000 0.826923
vt 0.375000 0.846154
vt 0.625000 0.846154
vt 0.375000 0.865385
vt 0.625000 0.865385
vt 0.375000 0.884615
vt 0.625000 0.884615
vt 0.375000 0.903846
vt 0.625000 0.903846
vt 0.375000 0.923077
vt 0.625000 0.923077
vt 0.375000 0.942308
vt 0.625000 0.942308
vt 0.375000 0.961538
vt 0.625000 0.961538
vt 0.375000 0.980769
vt 0.625000 0.980769
vt 0.605769 0.750000
vt 0.605769 0.769231
vt 0.605769 0.788462
vt 0.605769 0.807692
vt 0.605769 0.826923
vt 0.605769 0.846154
vt 0.605769 0.865385
vt 0.605769 0.884615
vt 0.605769 0.903846
vt 0.605769 0.923077
vt 0.605769 0.942308
vt 0.605769 0.961538
vt 0.605769 0.980769
vt 0.605769 1.000000
vt 0.586538 0.750000
vt 0.586538 0.769231
vt 0.586538 0.788462
vt 0.586538 0.807692
vt 0.586538 0.826923
vt 0.586538 0.846154
vt 0.586538 0.865385
vt 0.586538 0.884615
vt 0.586538 0.903846
vt 0.586538 0.923077
vt 0.586538 0.942308
vt 0.586538 0.961538
vt 0.586538 0.980769
vt 0.586538 1.000000
vt 0.567308 0.750000
vt 0.567308 0.769231
vt 0.567308 0.788462
vt 0.567308 0.807692
vt 0.567308 0.826923
vt 0.567308 0.846154
vt 0.567308 0.865385
vt 0.567308 0.884615
vt 0.567308 0.903846
vt 0.567308 0.923077
vt 0.567308 0.942308
vt 0.567308 0.961538
vt 0.567308 0.980769
vt 0.567308 1.000000
vt 0.548077 0.750000
vt 0.548077 0.769231
vt 0.548077 0.788462
vt 0.548077 0.807692
vt 0.548077 0.826923
vt 0.548077 0.846154
vt 0.548077 0.865385
vt 0.548077 0.884615
vt 0.548077 0.903846
vt 0.548077 0.923077
vt 0.548077 0.942308
vt 0.548077 0.961538
vt 0.548077 0.980769
vt 0.548077 1.000000
vt 0.528846 0.750000
vt 0.528846 0.769231
vt 0.528846 0.788462
vt 0.528846 0.807692
vt 0.528846 0.826923
vt 0.528846 0.846154
vt 0.528846 0.865385
vt 0.528846 0.884615
vt 0.528846 0.903846
vt 0.528846 0.923077
vt 0.528846 0.942308
vt 0.528846 0.961538
vt 0.528846 0.980769
vt 0.528846 1.000000
vt 0.509615 0.750000
vt 0.509615 0.769231
vt 0.509615 0.788462
vt 0.509615 0.807692
vt 0.509615 0.826923
vt 0.509615 0.846154
vt 0.509615 0.865385
vt 0.509615 0.884615
vt 0.509615 0.903846
vt 0.509615 0.923077
vt 0.509615 0.942308
vt 0.509615 0.961538
vt 0.509615 0.980769
vt 0.509615 1.000000
vt 0.490385 0.750000
vt 0.490385 0.769231
vt 0.490385 0.788462
vt 0.490385 0.807692
vt 0.490385 0.826923
vt 0.490385 0.846154
vt 0.490385 0.865385
vt 0.490385 0.884615
vt 0.490385 0.903846
vt 0.490385 0.923077
vt 0.490385 0.942308
vt 0.490385 0.961538
vt 0.490385 0.980769
vt 0.490385 1.000000
vt 0.471154 0.750000
vt 0.471154 0.769231
vt 0.471154 0.788462
vt 0.471154 0.807692
vt 0.471154 0.826923
vt 0.471154 0.846154
vt 0.471154 0.865385
vt 0.471154 0.884616
vt 0.471154 0.903846
vt 0.471154 0.923077
vt 0.471154 0.942308
vt 0.471154 0.961538
vt 0.471154 0.980769
vt 0.471154 1.000000
vt 0.451923 0.750000
vt 0.451923 0.769231
vt 0.451923 0.788462
vt 0.451923 0.807692
vt 0.451923 0.826923
vt 0.451923 0.846154
vt 0.451923 0.865385
vt 0.451923 0.884616
vt 0.451923 0.903846
vt 0.451923 0.923077
vt 0.451923 0.942308
vt 0.451923 0.961538
vt 0.451923 0.980769
vt 0.451923 1.000000
vt 0.432692 0.750000
vt 0.432692 0.769231
vt 0.432692 0.788462
vt 0.432692 0.807692
vt 0.432692 0.826923
vt 0.432692 0.846154
vt 0.432692 0.865385
vt 0.432692 0.884616
vt 0.432692 0.903846
vt 0.432692 0.923077
vt 0.432692 0.942308
vt 0.432692 0.961538
vt 0.432692 0.980769
vt 0.432692 1.000000
vt 0.413462 0.750000
vt 0.413462 0.769231
vt 0.413462 0.788462
vt 0.413462 0.807692
vt 0.413462 0.826923
vt 0.413462 0.846154
vt 0.413462 0.865385
vt 0.413462 0.884616
vt 0.413462 0.903846
vt 0.413462 0.923077
vt 0.413462 0.942308
vt 0.413462 0.961538
vt 0.413462 0.980769
vt 0.413462 1.000000
vt 0.394231 0.750000
vt 0.394231 0.769231
vt 0.394231 0.788462
vt 0.394231 0.807692
vt 0.394231 0.826923
vt 0.394231 0.846154
vt 0.394231 0.865385
vt 0.394231 0.884616
vt 0.394231 0.903846
vt 0.394231 0.923077
vt 0.394231 0.942308
vt 0.394231 0.961538
vt 0.394231 0.980769
vt 0.394231 1.000000
vn 0.000000 -1.000000 0.000000
vn 0.000000 -1.000000 0.000000
vn 0.000000 -1.000000 0.000000
vn 0.000000 -1.000000 0.000000
vn -0.446325 -0.891435 -0.078346
vn -0.507106 -0.841854 -0.184730
vn -0.614420 -0.778879 -0.125841
vn -0.576632 -0.814579 -0.062909
vn -0.672921 -0.739684 0.006706
vn -0.678164 -0.734877 -0.007032
vn -0.596816 -0.793375 0.119858
vn -0.632364 -0.769416 0.090080
vn -0.430212 -0.879813 0.202104
vn -0.472504 -0.866774 0.159506
vn -0.232235 -0.963132 0.135808
vn -0.254890 -0.962169 0.096244
vn -0.107640 -0.992552 0.057048
vn -0.120745 -0.991510 0.048245
vn -0.058962 -0.992735 0.104888
vn -0.070171 -0.992936 0.095675
vn -0.021493 -0.996540 0.080286
vn -0.028421 -0.996736 0.075558
vn -0.004465 -0.999767 0.021111
vn -0.006510 -0.999790 0.019449
vn 0.000000 -1.000000 0.000000
vn 0.000000 -1.000000 0.000000
vn 0.000000 -1.000000 0.000000
vn 0.000000 -1.000000 0.000000
vn 0.222970 -0.961073 -0.163168
vn 0.323147 -0.849958 -0.416111
vn 0.452214 -0.816963 -0.357875
vn 0.506855 -0.832838 -0.222440
vn 0.072921 -0.997178 0.017830
vn 0.408355 -0.911542 -0.048337
vn -0.204919 -0.977798 0.043812
vn 0.148748 -0.986514 0.068291
vn -0.081792 -0.892794 0.442977
vn 0.126397 -0.851352 0.509140
vn 0.024008 -0.939140 0.342696
vn 0.089923 -0.939426 0.330746
vn -0.139268 -0.954417 -0.263994
vn -0.122248 -0.942809 -0.310107
vn -0.322974 -0.928579 -0.182834
vn -0.287229 -0.936963 -0.198999
vn -0.335112 -0.939511 0.070842
vn -0.289937 -0.953162 0.086130
vn -0.181939 -0.948435 0.259556
vn -0.139860 -0.944909 0.295951
vn -0.025463 -0.974106 0.224654
vn 0.000275 -0.970460 0.241262
vn 0.018793 -0.995951 0.087910
vn 0.028951 -0.996013 0.084386
vn 0.004775 -0.999728 0.022828
vn 0.006988 -0.999754 0.021051
vn 0.000000 -1.000000 0.000000
vn 0.000000 -1.000000 0.000000
vn -0.417612 -0.908098 0.030968
vn -0.043994 -0.904884 -0.423378
vn -0.638779 -0.759804 0.121075
vn -0.608413 -0.792096 -0.049181
vn -0.308967 -0.877246 0.367395
vn -0.062889 -0.945349 0.319937
vn -0.158716 -0.973864 -0.162473
vn -0.362485 -0.922093 -0.135460
vn -0.387400 -0.921314 0.033181
vn -0.237213 -0.954842 0.178902
vn -0.060379 -0.981482 0.181788
vn 0.003670 -0.995776 0.091748
vn 0.001281 -0.999685 0.025081
vn 0.000000 -1.000000 0.000000
vn -0.437969 -0.849372 0.294534
vn -0.084835 -0.996214 -0.019007
vn -0.534871 -0.839671 0.094161
vn -0.302996 -0.937142 -0.173084
vn 0.004723 -0.956985 0.290098
vn 0.042010 -0.951545 0.304626
vn -0.105308 -0.992682 -0.059093
vn -0.253210 -0.961801 -0.104036
vn -0.245931 -0.969268 0.006047
vn -0.165737 -0.978314 0.124227
vn -0.066109 -0.988285 0.137562
vn -0.006043 -0.995845 0.090869
vn -0.001281 -0.999685 0.025081
vn -0.000000 -1.000000 0.000000
vn 0.132930 -0.872140 0.470852
vn 0.365537 -0.886192 0.284687
vn 0.008099 -0.997483 0.070434
vn 0.120444 -0.959319 -0.255344
vn 0.305401 -0.925922 0.222259
vn 0.282893 -0.910328 0.302117
vn 0.129476 -0.990884 0.037201
vn 0.036181 -0.993107 -0.111489
vn 0.103580 -0.994516 -0.014435
vn 0.034141 -0.988702 0.145957
vn -0.045870 -0.992687 0.111659
vn -0.020480 -0.996126 0.085525
vn -0.004775 -0.999728 0.022828
vn 0.000000 -1.000000 0.000000
vn 0.389411 -0.789547 0.474315
vn 0.465008 -0.845859 0.261322
vn 0.146235 -0.973609 0.175218
vn -0.114722 -0.952084 -0.283505
vn 0.081657 -0.987400 0.135549
vn 0.406401 -0.869159 0.281781
vn 0.367643 -0.919583 0.138581
vn 0.126977 -0.988328 -0.084169
vn 0.043997 -0.998610 -0.029024
vn 0.035653 -0.980674 0.192372
vn -0.028549 -0.992772 0.116568
vn -0.036310 -0.996592 0.074061
vn -0.008222 -0.999804 0.017991
vn 0.000000 -1.000000 0.000000
vn 0.099745 -0.855420 0.508239
vn 0.075270 -0.960731 0.267079
vn -0.012551 -0.962871 0.269668
vn -0.232675 -0.946111 -0.225246
vn -0.165249 -0.986232 -0.006315
vn 0.220749 -0.953401 0.205662
vn 0.285058 -0.928599 0.237584
vn -0.021766 -0.999314 0.029976
vn -0.227981 -0.972995 -0.036115
vn -0.150135 -0.974208 0.168460
vn -0.062529 -0.989701 0.128773
vn -0.043824 -0.997394 0.057306
vn -0.009329 -0.999891 0.011458
vn -0.000000 -1.000000 0.000000
vn -0.185657 -0.846816 0.498432
vn -0.319497 -0.867594 0.381053
vn 0.151167 -0.964905 0.214727
vn 0.122782 -0.983309 -0.134265
vn -0.206961 -0.977191 -0.047588
vn -0.229714 -0.966004 0.118606
vn -0.130252 -0.954850 0.267013
vn -0.137593 -0.982101 0.128628
vn -0.255869 -0.966677 -0.008156
vn -0.240609 -0.964954 0.104738
vn -0.118618 -0.986737 0.110817
vn -0.040517 -0.998443 0.038349
vn -0.007354 -0.999959 0.005247
vn 0.000000 -1.000000 0.000000
vn -0.000886 -0.925917 0.377725
vn -0.290492 -0.880387 0.374879
vn 0.415810 -0.902111 0.115318
vn 0.350427 -0.936439 0.016787
vn -0.140285 -0.984419 0.106018
vn -0.409136 -0.906100 0.107659
vn -0.310225 -0.930825 0.193196
vn -0.164768 -0.975800 0.143757
vn -0.215376 -0.975715 0.039929
vn -0.235645 -0.969913 0.061154
vn -0.121278 -0.990517 0.064564
vn -0.027684 -0.999402 0.020735
vn -0.003061 -0.999994 0.001369
vn 0.000000 -1.000000 0.000000
vn 0.188358 -0.972817 0.134713
vn -0.194892 -0.978270 0.070740
vn 0.451401 -0.886141 0.104842
vn 0.295035 -0.942987 0.154043
vn 0.027209 -0.971424 0.235785
vn -0.168353 -0.974992 0.145079
vn -0.169209 -0.977944 0.122448
vn -0.095614 -0.985972 0.136810
vn -0.121702 -0.989551 0.077308
vn -0.129416 -0.990933 0.036096
vn -0.066975 -0.997491 0.022927
vn -0.013714 -0.999875 0.007839
vn -0.000309 -1.000000 0.000115
vn -0.000000 -1.000000 0.000000
vn -0.067293 -0.991755 -0.109056
vn -0.299278 -0.917588 -0.261657
vn 0.046518 -0.991235 0.123648
vn 0.010406 -0.973119 0.230069
vn -0.006761 -0.962822 0.270052
vn -0.044037 -0.981344 0.187152
vn -0.069102 -0.993526 0.090176
vn -0.041148 -0.990336 0.132442
vn -0.033761 -0.995404 0.089616
vn -0.030532 -0.999191 0.026190
vn -0.017224 -0.999842 0.004516
vn -0.003980 -0.999991 0.001482
vn -0.000000 -1.000000 -0.000000
vn 0.000000 -1.000000 0.000000
vn -0.491012 -0.851940 -0.181948
vn -0.468548 -0.828177 -0.307547
vn -0.496363 -0.865173 0.071413
vn -0.399943 -0.896310 0.191503
vn -0.255058 -0.933071 0.253621
vn -0.153525 -0.969719 0.189934
vn -0.086011 -0.993509 0.074448
vn -0.042347 -0.991649 0.121812
vn -0.014832 -0.996058 0.087455
vn -0.005446 -0.999704 0.023731
vn -0.001432 -0.999999 0.000533
vn 0.000000 -1.000000 0.000000
vn 0.000000 -1.000000 -0.000000
vn 0.000000 -1.000000 0.000000
s 1
g Roof AlCOVE
usemtl lambert4SG
f 27/27/1 195/195/2 196/196/3 1/3/4
f 3/1/5 183/183/6 184/184/7 5/5/8
f 5/5/8 184/184/7 185/185/9 7/7/10
f 7/7/10 185/185/9 186/186/11 9/9/12
f 9/9/12 186/186/11 187/187/13 11/11/14
f 11/11/14 187/187/13 188/188/15 13/13/16
f 13/13/16 188/188/15 189/189/17 15/15/18
f 15/15/18 189/189/17 190/190/19 17/17/20
f 17/17/20 190/190/19 191/191/21 19/19/22
f 19/19/22 191/191/21 192/192/23 21/21/24
f 21/21/24 192/192/23 193/193/25 23/23/26
f 23/23/26 193/193/25 194/194/27 25/25/28
f 25/25/28 194/194/27 195/195/2 27/27/1
f 30/30/29 29/29/30 4/2/31 6/6/32
f 31/31/33 30/30/29 6/6/32 8/8/34
f 32/32/35 31/31/33 8/8/34 10/10/36
f 33/33/37 32/32/35 10/10/36 12/12/38
f 34/34/39 33/33/37 12/12/38 14/14/40
f 35/35/41 34/34/39 14/14/40 16/16/42
f 36/36/43 35/35/41 16/16/42 18/18/44
f 37/37/45 36/36/43 18/18/44 20/20/46
f 38/38/47 37/37/45 20/20/46 22/22/48
f 39/39/49 38/38/47 22/22/48 24/24/50
f 40/40/51 39/39/49 24/24/50 26/26/52
f 41/41/53 40/40/51 26/26/52 28/28/54
f 42/42/55 41/41/53 28/28/54 2/4/56
f 44/44/57 43/43/58 29/29/30 30/30/29
f 45/45/59 44/44/57 30/30/29 31/31/33
f 46/46/60 45/45/59 31/31/33 32/32/35
f 47/47/61 46/46/60 32/32/35 33/33/37
f 48/48/62 47/47/61 33/33/37 34/34/39
f 49/49/63 48/48/62 34/34/39 35/35/41
f 50/50/64 49/49/63 35/35/41 36/36/43
f 51/51/65 50/50/64 36/36/43 37/37/45
f 52/52/66 51/51/65 37/37/45 38/38/47
f 53/53/67 52/52/66 38/38/47 39/39/49
f 54/54/68 53/53/67 39/39/49 40/40/51
f 55/55/69 54/54/68 40/40/51 41/41/53
f 56/56/70 55/55/69 41/41/53 42/42/55
f 58/58/71 57/57/72 43/43/58 44/44/57
f 59/59/73 58/58/71 44/44/57 45/45/59
f 60/60/74 59/59/73 45/45/59 46/46/60
f 61/61/75 60/60/74 46/46/60 47/47/61
f 62/62/76 61/61/75 47/47/61 48/48/62
f 63/63/77 62/62/76 48/48/62 49/49/63
f 64/64/78 63/63/77 49/49/63 50/50/64
f 65/65/79 64/64/78 50/50/64 51/51/65
f 66/66/80 65/65/79 51/51/65 52/52/66
f 67/67/81 66/66/80 52/52/66 53/53/67
f 68/68/82 67/67/81 53/53/67 54/54/68
f 69/69/83 68/68/82 54/54/68 55/55/69
f 70/70/84 69/69/83 55/55/69 56/56/70
f 72/72/85 71/71/86 57/57/72 58/58/71
f 73/73/87 72/72/85 58/58/71 59/59/73
f 74/74/88 73/73/87 59/59/73 60/60/74
f 75/75/89 74/74/88 60/60/74 61/61/75
f 76/76/90 75/75/89 61/61/75 62/62/76
f 77/77/91 76/76/90 62/62/76 63/63/77
f 78/78/92 77/77/91 63/63/77 64/64/78
f 79/79/93 78/78/92 64/64/78 65/65/79
f 80/80/94 79/79/93 65/65/79 66/66/80
f 81/81/95 80/80/94 66/66/80 67/67/81
f 82/82/96 81/81/95 67/67/81 68/68/82
f 83/83/97 82/82/96 68/68/82 69/69/83
f 84/84/98 83/83/97 69/69/83 70/70/84
f 86/86/99 85/85/100 71/71/86 72/72/85
f 87/87/101 86/86/99 72/72/85 73/73/87
f 88/88/102 87/87/101 73/73/87 74/74/88
f 89/89/103 88/88/102 74/74/88 75/75/89
f 90/90/104 89/89/103 75/75/89 76/76/90
f 91/91/105 90/90/104 76/76/90 77/77/91
f 92/92/106 91/91/105 77/77/91 78/78/92
f 93/93/107 92/92/106 78/78/92 79/79/93
f 94/94/108 93/93/107 79/79/93 80/80/94
f 95/95/109 94/94/108 80/80/94 81/81/95
f 96/96/110 95/95/109 81/81/95 82/82/96
f 97/97/111 96/96/110 82/82/96 83/83/97
f 98/98/112 97/97/111 83/83/97 84/84/98
f 100/100/113 99/99/114 85/85/100 86/86/99
f 101/101/115 100/100/113 86/86/99 87/87/101
f 102/102/116 101/101/115 87/87/101 88/88/102
f 103/103/117 102/102/116 88/88/102 89/89/103
f 104/104/118 103/103/117 89/89/103 90/90/104
f 105/105/119 104/104/118 90/90/104 91/91/105
f 106/106/120 105/105/119 91/91/105 92/92/106
f 107/107/121 106/106/120 92/92/106 93/93/107
f 108/108/122 107/107/121 93/93/107 94/94/108
f 109/109/123 108/108/122 94/94/108 95/95/109
f 110/110/124 109/109/123 95/95/109 96/96/110
f 111/111/125 110/110/124 96/96/110 97/97/111
f 112/112/126 111/111/125 97/97/111 98/98/112
f 114/114/127 113/113/128 99/99/114 100/100/113
f 115/115/129 114/114/127 100/100/113 101/101/115
f 116/116/130 115/115/129 101/101/115 102/102/116
f 117/117/131 116/116/130 102/102/116 103/103/117
f 118/118/132 117/117/131 103/103/117 104/104/118
f 119/119/133 118/118/132 104/104/118 105/105/119
f 120/120/134 119/119/133 105/105/119 106/106/120
f 121/121/135 120/120/134 106/106/120 107/107/121
f 122/122/136 121/121/135 107/107/121 108/108/122
f 123/123/137 122/122/136 108/108/122 109/109/123
f 124/124/138 123/123/137 109/109/123 110/110/124
f 125/125/139 124/124/138 110/110/124 111/111/125
f 126/126/140 125/125/139 111/111/125 112/112/126
f 128/128/141 127/127/142 113/113/128 114/114/127
f 129/129/143 128/128/141 114/114/127 115/115/129
f 130/130/144 129/129/143 115/115/129 116/116/130
f 131/131/145 130/130/144 116/116/130 117/117/131
f 132/132/146 131/131/145 117/117/131 118/118/132
f 133/133/147 132/132/146 118/118/132 119/119/133
f 134/134/148 133/133/147 119/119/133 120/120/134
f 135/135/149 134/134/148 120/120/134 121/121/135
f 136/136/150 135/135/149 121/121/135 122/122/136
f 137/137/151 136/136/150 122/122/136 123/123/137
f 138/138/152 137/137/151 123/123/137 124/124/138
f 139/139/153 138/138/152 124/124/138 125/125/139
f 140/140/154 139/139/153 125/125/139 126/126/140
f 142/142/155 141/141/156 127/127/142 128/128/141
f 143/143/157 142/142/155 128/128/141 129/129/143
f 144/144/158 143/143/157 129/129/143 130/130/144
f 145/145/159 144/144/158 130/130/144 131/131/145
f 146/146/160 145/145/159 131/131/145 132/132/146
f 147/147/161 146/146/160 132/132/146 133/133/147
f 148/148/162 147/147/161 133/133/147 134/134/148
f 149/149/163 148/148/162 134/134/148 135/135/149
f 150/150/164 149/149/163 135/135/149 136/136/150
f 151/151/165 150/150/164 136/136/150 137/137/151
f 152/152/166 151/151/165 137/137/151 138/138/152
f 153/153/167 152/152/166 138/138/152 139/139/153
f 154/154/168 153/153/167 139/139/153 140/140/154
f 156/156/169 155/155/170 141/141/156 142/142/155
f 157/157/171 156/156/169 142/142/155 143/143/157
f 158/158/172 157/157/171 143/143/157 144/144/158
f 159/159/173 158/158/172 144/144/158 145/145/159
f 160/160/174 159/159/173 145/145/159 146/146/160
f 161/161/175 160/160/174 146/146/160 147/147/161
f 162/162/176 161/161/175 147/147/161 148/148/162
f 163/163/177 162/162/176 148/148/162 149/149/163
f 164/164/178 163/163/177 149/149/163 150/150/164
f 165/165/179 164/164/178 150/150/164 151/151/165
f 166/166/180 165/165/179 151/151/165 152/152/166
f 167/167/181 166/166/180 152/152/166 153/153/167
f 168/168/182 167/167/181 153/153/167 154/154/168
f 170/170/183 169/169/184 155/155/170 156/156/169
f 171/171/185 170/170/183 156/156/169 157/157/171
f 172/172/186 171/171/185 157/157/171 158/158/172
f 173/173/187 172/172/186 158/158/172 159/159/173
f 174/174/188 173/173/187 159/159/173 160/160/174
f 175/175/189 174/174/188 160/160/174 161/161/175
f 176/176/190 175/175/189 161/161/175 162/162/176
f 177/177/191 176/176/190 162/162/176 163/163/177
f 178/178/192 177/177/191 163/163/177 164/164/178
f 179/179/193 178/178/192 164/164/178 165/165/179
f 180/180/194 179/179/193 165/165/179 166/166/180
f 181/181/195 180/180/194 166/166/180 167/167/181
f 182/182/196 181/181/195 167/167/181 168/168/182
f 184/184/7 183/183/6 169/169/184 170/170/183
f 185/185/9 184/184/7 170/170/183 171/171/185
f 186/186/11 185/185/9 171/171/185 172/172/186
f 187/187/13 186/186/11 172/172/186 173/173/187
f 188/188/15 187/187/13 173/173/187 174/174/188
f 189/189/17 188/188/15 174/174/188 175/175/189
f 190/190/19 189/189/17 175/175/189 176/176/190
f 191/191/21 190/190/19 176/176/190 177/177/191
f 192/192/23 191/191/21 177/177/191 178/178/192
f 193/193/25 192/192/23 178/178/192 179/179/193
f 194/194/27 193/193/25 179/179/193 180/180/194
f 195/195/2 194/194/27 180/180/194 181/181/195
f 196/196/3 195/195/2 181/181/195 182/182/196
