# This file uses centimeters as units for non-parametric coordinates.

mtllib WoodenPlank_002.mtl
g default
v -50.737633 0.000000 1.050045
v -50.737633 0.449955 1.500000
v -51.187592 0.449955 1.050045
v 52.124886 0.449955 1.050045
v 51.674934 0.449955 1.500000
v 51.674934 0.000000 1.050045
v -51.412563 80.900665 1.050045
v -50.962612 80.900665 1.500000
v -50.962612 81.350616 1.050045
v 51.449959 81.350616 1.050045
v 51.449959 80.900665 1.500000
v 51.899910 80.900665 1.050045
v -51.412563 80.900642 0.478913
v -50.962612 81.350601 0.478913
v -50.962612 80.900642 0.028958
v 51.449959 80.900642 0.028958
v 51.449959 81.350601 0.478913
v 51.899910 80.900642 0.478913
v -51.187592 0.449957 0.478913
v -50.737633 0.449957 0.028958
v -50.737633 0.000002 0.478913
v 51.674934 0.000002 0.478913
v 51.674934 0.449957 0.028958
v 52.124886 0.449957 0.478913
vt 0.020323 0.982289
vt 0.023775 0.985292
vt 0.023793 0.988019
vt 0.017593 0.982295
vt 0.023364 0.982283
vt 0.019246 0.492746
vt 0.022288 0.492739
vt 0.407432 0.985534
vt 0.407863 0.982523
vt 0.022719 0.489727
vt 0.016516 0.492751
vt 0.022702 0.487001
vt 0.406787 0.492980
vt 0.406376 0.489970
vt 0.410905 0.982517
vt 0.413635 0.982511
vt 0.407449 0.988262
vt 0.409169 0.490192
vt 0.406359 0.487244
vt 0.409253 0.487059
vt 0.416677 0.982504
vt 0.023353 0.991030
vt 0.406799 0.484232
vt 0.800162 0.491039
vt 0.013475 0.492758
vt 0.019912 0.486778
vt 0.014551 0.982302
vt 0.020899 0.988203
vt 0.019827 0.489913
vt 0.020982 0.985070
vt 0.412559 0.492967
vt 0.410239 0.988485
vt 0.409829 0.492973
vt 0.410324 0.985350
vt 0.022302 0.483992
vt 0.415601 0.492960
vt 0.407849 0.991271
vt 0.801237 0.980583
vn -0.707103 -0.707111 -0.000002
vn -0.707103 -0.707111 -0.000002
vn -0.707103 -0.707111 -0.000002
vn -0.707103 -0.707111 -0.000002
vn 0.000000 -0.707107 0.707107
vn 0.000000 -0.707107 0.707107
vn 0.000000 -0.707107 0.707107
vn 0.000000 -0.707107 0.707107
vn -0.707106 -0.001977 0.707105
vn -0.707105 -0.001977 0.707105
vn -0.707106 -0.001977 0.707105
vn -0.707105 -0.001977 0.707105
vn 0.707111 -0.707103 -0.000002
vn 0.707111 -0.707103 -0.000002
vn 0.707111 -0.707103 -0.000002
vn 0.707111 -0.707103 -0.000002
vn 0.707108 0.001977 0.707102
vn 0.707108 0.001977 0.707102
vn 0.707108 0.001977 0.707102
vn 0.707108 0.001977 0.707102
vn -0.707111 0.707103 -0.000021
vn -0.707111 0.707103 -0.000021
vn -0.707111 0.707103 -0.000021
vn -0.707111 0.707103 -0.000021
vn 0.000000 0.707114 0.707099
vn 0.000000 0.707114 0.707099
vn 0.000000 0.707114 0.707099
vn 0.000000 0.707114 0.707099
vn 0.707111 0.707103 -0.000021
vn 0.707111 0.707103 -0.000021
vn 0.707111 0.707103 -0.000021
vn 0.707111 0.707103 -0.000021
vn -0.707105 -0.001977 -0.707105
vn -0.707105 -0.001977 -0.707105
vn -0.707105 -0.001977 -0.707105
vn -0.707105 -0.001977 -0.707105
vn 0.000000 0.707099 -0.707114
vn 0.000000 0.707099 -0.707114
vn 0.000000 0.707099 -0.707114
vn 0.000000 0.707099 -0.707114
vn 0.707108 0.001977 -0.707102
vn 0.707108 0.001977 -0.707102
vn 0.707108 0.001977 -0.707102
vn 0.707108 0.001977 -0.707102
vn 0.000000 -0.707107 -0.707107
vn 0.000000 -0.707107 -0.707107
vn 0.000000 -0.707107 -0.707107
vn 0.000000 -0.707107 -0.707107
vn 0.000000 0.000000 1.000000
vn 0.000000 0.000000 1.000000
vn 0.000000 0.000000 1.000000
vn 0.000000 0.000000 1.000000
vn 0.000000 1.000000 -0.000017
vn 0.000000 1.000000 -0.000017
vn 0.000000 1.000000 -0.000017
vn 0.000000 1.000000 -0.000017
vn 0.000000 0.000000 -1.000000
vn 0.000000 0.000000 -1.000000
vn 0.000000 0.000000 -1.000000
vn 0.000000 0.000000 -1.000000
vn 0.000000 -1.000000 -0.000003
vn 0.000000 -1.000000 -0.000003
vn 0.000000 -1.000000 -0.000003
vn 0.000000 -1.000000 -0.000003
vn 0.999996 0.002796 -0.000000
vn 0.999996 0.002796 -0.000000
vn 0.999996 0.002796 -0.000000
vn 0.999996 0.002796 -0.000000
vn -0.999996 -0.002796 0.000000
vn -0.999996 -0.002796 0.000000
vn -0.999996 -0.002796 0.000000
vn -0.999996 -0.002796 0.000000
vn -0.577347 -0.577352 0.577352
vn -0.577347 -0.577352 0.577352
vn -0.577347 -0.577352 0.577352
vn 0.577354 -0.577348 0.577349
vn 0.577354 -0.577348 0.577349
vn 0.577354 -0.577348 0.577349
vn -0.577347 0.577346 0.577357
vn -0.577347 0.577346 0.577357
vn -0.577347 0.577346 0.577357
vn 0.577347 0.577346 0.577357
vn 0.577347 0.577346 0.577357
vn 0.577347 0.577346 0.577357
vn -0.577354 0.577343 -0.577354
vn -0.577354 0.577343 -0.577354
vn -0.577354 0.577343 -0.577354
vn 0.577354 0.577343 -0.577354
vn 0.577354 0.577343 -0.577354
vn 0.577354 0.577343 -0.577354
vn -0.577347 -0.577352 -0.577352
vn -0.577347 -0.577352 -0.577352
vn -0.577347 -0.577352 -0.577352
vn 0.577354 -0.577348 -0.577349
vn 0.577354 -0.577348 -0.577349
vn 0.577354 -0.577348 -0.577349
s off
g WoodenPlank_002 LooseMaterials
usemtl lambert1SG
f 1/30/1 3/2/2 19/3/3 21/28/4
f 2/5/5 1/1/6 6/6/7 5/7/8
f 7/8/9 3/2/10 2/5/11 8/9/12
f 4/10/13 6/29/14 22/26/15 24/12/16
f 11/13/17 5/7/18 4/10/19 12/14/20
f 7/8/21 9/34/22 14/32/23 13/17/24
f 9/15/25 8/9/26 11/13/27 10/33/28
f 10/18/29 12/14/30 18/19/31 17/20/32
f 15/37/33 20/22/34 19/3/35 13/17/36
f 15/21/37 14/16/38 17/31/39 16/36/40
f 18/19/41 24/12/42 23/35/43 16/23/44
f 21/4/45 20/27/46 23/25/47 22/11/48
f 2/5/49 5/7/50 11/13/51 8/9/52
f 9/15/53 10/33/54 17/31/55 14/16/56
f 23/24/57 20/38/58 15/21/59 16/36/60
f 21/4/61 22/11/62 6/6/63 1/1/64
f 4/10/65 24/12/66 18/19/67 12/14/68
f 19/3/69 3/2/70 7/8/71 13/17/72
f 1/30/73 2/5/74 3/2/75
f 4/10/76 5/7/77 6/29/78
f 7/8/79 8/9/80 9/34/81
f 10/18/82 11/13/83 12/14/84
f 13/17/85 14/32/86 15/37/87
f 16/23/88 17/20/89 18/19/90
f 19/3/91 20/22/92 21/28/93
f 22/26/94 23/35/95 24/12/96
