# This file uses centimeters as units for non-parametric coordinates.

mtllib InsideCorner_Standard.mtl
g default
v 0.200000 0.000000 0.200000
v 0.200000 2.400000 0.200000
v 0.000000 2.400000 0.000000
v 0.000000 0.000000 0.000000
v 1.000000 2.400000 0.200000
v 1.000000 2.400000 0.000000
v 1.000000 0.000000 0.000000
v 1.000000 0.000000 0.200000
v 0.000000 2.400000 1.000000
v 0.200000 2.400000 1.000000
v 0.200000 0.000000 1.000000
v 0.000000 0.000000 1.000000
vt 0.375000 0.000000
vt 0.375000 0.250000
vt 0.375000 0.500000
vt 0.375000 0.750000
vt 0.375000 1.000000
vt 0.458333 0.250000
vt 0.458333 0.500000
vt 0.458333 0.750000
vt 0.458333 0.000000
vt 0.458333 1.000000
vt 0.375000 0.000000
vt 0.375000 0.250000
vt 0.375000 0.500000
vt 0.375000 0.750000
vt 0.375000 1.000000
vt 0.458333 0.250000
vt 0.458333 0.500000
vt 0.458333 0.750000
vt 0.458333 1.000000
vt 0.458333 0.000000
vn 0.000000 0.000000 1.000000
vn 0.000000 0.000000 1.000000
vn 0.000000 0.000000 1.000000
vn 0.000000 0.000000 1.000000
vn 0.000000 1.000000 0.000001
vn 0.000000 1.000000 0.000001
vn 0.000000 1.000000 0.000001
vn 0.000000 1.000000 0.000001
vn -0.000000 0.000000 -1.000000
vn -0.000000 0.000000 -1.000000
vn -0.000000 0.000000 -1.000000
vn -0.000000 0.000000 -1.000000
vn 0.000000 -1.000000 0.000000
vn 0.000000 -1.000000 0.000000
vn 0.000000 -1.000000 0.000000
vn 0.000000 -1.000000 0.000000
vn 1.000000 0.000000 0.000000
vn 1.000000 0.000000 0.000000
vn 1.000000 0.000000 0.000000
vn 1.000000 0.000000 0.000000
vn -1.000000 0.000000 0.000000
vn -1.000000 0.000000 0.000000
vn -1.000000 0.000000 0.000000
vn -1.000000 0.000000 0.000000
vn 0.000000 1.000000 -0.000000
vn 0.000000 1.000000 -0.000000
vn 0.000000 1.000000 -0.000000
vn 0.000000 1.000000 -0.000000
vn 1.000000 0.000000 -0.000000
vn 1.000000 0.000000 -0.000000
vn 1.000000 0.000000 -0.000000
vn 1.000000 0.000000 -0.000000
vn 0.000000 -1.000000 0.000000
vn 0.000000 -1.000000 0.000000
vn 0.000000 -1.000000 0.000000
vn 0.000000 -1.000000 0.000000
vn 0.000000 0.000000 1.000000
vn 0.000000 0.000000 1.000000
vn 0.000000 0.000000 1.000000
vn 0.000000 0.000000 1.000000
s off
g InsideCorner_Standard
usemtl initialShadingGroup
f 5/6/1 2/2/2 1/1/3 8/9/4
f 3/3/5 2/2/6 5/6/7 6/7/8
f 4/4/9 3/3/10 6/7/11 7/8/12
f 1/5/13 4/4/14 7/8/15 8/10/16
f 5/6/17 8/10/18 7/8/19 6/7/20
f 9/16/21 3/12/22 4/11/23 12/20/24
f 2/13/25 3/12/26 9/16/27 10/17/28
f 1/14/29 2/13/30 10/17/31 11/18/32
f 4/15/33 1/14/34 11/18/35 12/19/36
f 9/16/37 12/19/38 11/18/39 10/17/40
