# This file uses centimeters as units for non-parametric coordinates.

mtllib TSection_Standard1.mtl
g default
v 0.000000 0.000000 -0.000289
v 0.000000 2.400000 -0.000289
v -0.200000 2.400000 -0.200000
v -0.200000 0.000000 -0.200000
v 1.000000 2.400000 -0.000289
v 1.000000 2.400000 -0.200000
v 1.000000 0.000000 -0.200000
v 1.000000 0.000000 -0.000289
v -0.200000 2.400000 1.000000
v -0.000000 2.400000 1.000000
v 0.000000 0.000000 1.000000
v -0.200000 0.000000 1.000000
v -0.000000 2.400000 -0.200000
v -0.000000 0.000000 -0.200000
v -0.200000 0.000000 -1.000000
v -0.200000 2.400000 -1.000000
v -0.000000 2.400000 -1.000000
v -0.000000 0.000000 -1.000000
v -0.200000 2.400000 0.000289
v -0.200000 0.000000 0.000289
vt 0.375000 0.000000
vt 0.375000 0.250000
vt 0.375000 0.750000
vt 0.375000 1.000000
vt 0.458333 0.250000
vt 0.458333 0.500000
vt 0.458333 0.750000
vt 0.458333 0.000000
vt 0.458333 1.000000
vt 0.375000 0.000000
vt 0.375000 0.250000
vt 0.375000 0.500000
vt 0.375000 0.750000
vt 0.458333 0.250000
vt 0.458333 0.500000
vt 0.458333 0.750000
vt 0.458333 1.000000
vt 0.458333 0.000000
vt 0.458333 0.250000
vt 0.375000 0.250000
vt 0.375000 0.000000
vt 0.458333 0.000000
vt 0.375000 0.500000
vt 0.458333 0.500000
vt 0.375000 0.750000
vt 0.458333 0.750000
vt 0.375000 1.000000
vt 0.458333 1.000000
vt 0.125000 0.000000
vt 0.125000 0.250000
vt 0.389724 0.500000
vt 0.388617 0.250000
vt 0.388929 0.000000
vt 0.388929 1.000000
vt 0.389950 0.750000
vn 0.000000 0.000000 1.000000
vn 0.000000 0.000000 1.000000
vn 0.000000 0.000000 1.000000
vn 0.000000 0.000000 1.000000
vn 0.000000 -1.000000 0.000000
vn 0.000000 -1.000000 0.000000
vn 0.000000 -1.000000 0.000000
vn 0.000000 -1.000000 0.000000
vn 1.000000 0.000000 0.000000
vn 1.000000 0.000000 0.000000
vn 1.000000 0.000000 0.000000
vn 1.000000 0.000000 0.000000
vn -1.000000 0.000000 -0.000000
vn -1.000000 0.000000 -0.000000
vn -1.000000 0.000000 -0.000000
vn -1.000000 0.000000 -0.000000
vn 0.000000 1.000000 -0.000000
vn 0.000000 1.000000 -0.000000
vn 0.000000 1.000000 -0.000000
vn 0.000000 1.000000 -0.000000
vn 1.000000 0.000000 -0.000000
vn 1.000000 0.000000 -0.000000
vn 1.000000 0.000000 -0.000000
vn 1.000000 0.000000 -0.000000
vn 0.000000 -1.000000 0.000000
vn 0.000000 -1.000000 0.000000
vn 0.000000 -1.000000 0.000000
vn 0.000000 0.000000 1.000000
vn 0.000000 0.000000 1.000000
vn 0.000000 0.000000 1.000000
vn 0.000000 0.000000 1.000000
vn -1.000000 0.000000 0.000000
vn -1.000000 0.000000 0.000000
vn -1.000000 0.000000 0.000000
vn -1.000000 0.000000 0.000000
vn 0.000000 1.000000 0.000000
vn 0.000000 1.000000 0.000000
vn 0.000000 1.000000 0.000000
vn 0.000000 1.000000 0.000000
vn 1.000000 0.000000 -0.000000
vn 1.000000 0.000000 -0.000000
vn 1.000000 0.000000 -0.000000
vn 1.000000 0.000000 -0.000000
vn 0.000000 -1.000000 0.000000
vn 0.000000 -1.000000 0.000000
vn 0.000000 -1.000000 0.000000
vn 0.000000 -1.000000 0.000000
vn 0.000000 0.000000 -1.000000
vn 0.000000 0.000000 -1.000000
vn 0.000000 0.000000 -1.000000
vn 0.000000 0.000000 -1.000000
vn 0.000000 1.000000 0.000000
vn 0.000000 1.000000 0.000000
vn 0.000000 1.000000 0.000000
vn 0.000000 1.000000 0.000000
vn -1.000000 0.000000 0.000000
vn -1.000000 0.000000 0.000000
vn 0.000000 -1.000000 0.000000
vn 0.000000 0.000000 -1.000000
vn 0.000000 0.000000 -1.000000
vn 0.000000 0.000000 -1.000000
vn 0.000000 0.000000 -1.000000
s off
g TSection_Standard1
usemtl initialShadingGroup
f 5/5/1 2/2/2 1/1/3 8/8/4
s 1
f 1/4/5 14/35/6 7/7/7 8/9/8
s off
f 5/5/9 8/9/10 7/7/11 6/6/12
s 2
f 9/14/13 19/32/14 20/33/15 12/18/16
s 3
f 2/12/17 19/32/18 9/14/19 10/15/20
s off
f 1/13/21 2/12/22 10/15/23 11/16/24
s 1
f 20/34/25 1/13/5 11/16/26 12/17/27
s off
f 9/14/28 12/17/29 11/16/30 10/15/31
f 3/19/32 16/20/33 15/21/34 4/22/35
f 17/23/36 16/20/37 3/19/38 13/24/39
f 18/25/40 17/23/41 13/24/42 14/26/43
f 15/27/44 18/25/45 14/26/46 4/28/47
f 18/29/48 15/21/49 16/20/50 17/30/51
s 3
f 13/31/52 2/2/17 5/5/53 6/6/54
f 3/11/55 19/32/18 2/2/17 13/31/52
s 2
f 20/33/15 19/32/14 3/11/56 4/10/57
s 1
f 1/13/5 20/34/25 4/3/58 14/35/6
s off
f 7/7/59 14/26/60 13/31/61 6/6/62
