# This file uses centimeters as units for non-parametric coordinates.

mtllib Wall_HighDistortion_L1.mtl
g default
v -3.000000 -0.000000 0.357445
v -3.000000 2.400000 0.514513
v 0.000000 2.400000 0.157068
v 0.000000 -0.000000 -0.021279
v -0.599999 2.400000 0.228557
v -0.599999 -0.000000 0.050210
v -1.200000 2.400000 0.300046
v -1.200000 -0.000000 0.144954
v -1.800000 2.400000 0.371535
v -1.800000 0.000000 0.216443
v -2.400000 2.400000 0.443024
v -2.400000 -0.000000 0.264677
v 0.000000 1.920000 0.157068
v -0.599999 1.920000 0.228557
v -1.200000 1.920000 0.300046
v -1.800000 1.920000 0.371535
v -2.400000 1.920000 0.443024
v -3.000000 1.920000 0.514513
v 0.000000 1.440000 0.019001
v -0.599999 1.440000 0.090490
v -1.200000 1.440000 0.184046
v -1.800000 1.440000 0.255535
v -2.400000 1.440000 0.304957
v -3.000000 1.440000 0.397462
v 0.000000 0.960000 -0.083521
v -0.599999 0.960000 -0.005840
v -1.239724 1.055561 0.220315
v -1.828249 0.938776 0.291804
v -2.400000 0.960000 0.208627
v -3.000000 0.960000 0.351947
v 0.000000 0.480000 -0.083521
v -0.599999 0.480000 -0.005840
v -1.146296 0.584741 0.220315
v -1.734821 0.467956 0.291804
v -2.400000 0.480000 0.208627
v -3.000000 0.480000 0.351947
vt 0.177523 0.329030
vt 0.177523 0.455887
vt 0.018951 0.455887
vt 0.018951 0.329030
vt 0.336094 0.329030
vt 0.353320 0.452704
vt 0.177523 0.582744
vt 0.018951 0.582744
vt 0.494665 0.329030
vt 0.508859 0.483568
vt 0.328628 0.577135
vt 0.177523 0.709601
vt 0.018951 0.709601
vt 0.653237 0.329030
vt 0.653237 0.455887
vt 0.484167 0.607999
vt 0.336094 0.709601
vt 0.177523 0.836459
vt 0.018951 0.836458
vt 0.811808 0.455887
vt 0.811808 0.329030
vt 0.653237 0.582744
vt 0.494665 0.709601
vt 0.336094 0.836459
vt 0.177523 0.963315
vt 0.018951 0.963315
vt 0.811808 0.582744
vt 0.653237 0.709601
vt 0.494665 0.836459
vt 0.336094 0.963315
vt 0.811808 0.709601
vt 0.653237 0.836459
vt 0.494665 0.963315
vt 0.811808 0.836459
vt 0.653237 0.963316
vt 0.811808 0.963316
vn 0.082832 0.022253 0.996315
vn 0.065562 0.007553 0.997820
vn 0.212692 0.031333 0.976617
vn 0.192659 0.062782 0.979255
vn 0.125660 0.060685 0.990216
vn 0.219879 0.029122 0.975093
vn 0.199533 0.041461 0.979014
vn 0.122447 0.121374 0.985025
vn 0.232047 -0.025080 0.972381
vn 0.197905 -0.096097 0.975499
vn 0.035465 -0.050843 0.998077
vn 0.048802 -0.083809 0.995286
vn 0.118312 0.000000 0.992977
vn 0.118311 0.000000 0.992977
vn 0.121767 -0.135642 0.983247
vn 0.117099 -0.142803 0.982800
vn 0.121774 -0.124545 0.984713
vn 0.118311 0.000000 0.992977
vn 0.112837 -0.124875 0.985735
vn 0.118311 0.000000 0.992977
vn 0.117268 -0.130548 0.984482
vn 0.118312 0.000000 0.992977
vn 0.125727 -0.129515 0.983575
vn 0.118312 0.000001 0.992977
vn 0.151881 -0.204757 0.966958
vn 0.117415 -0.237817 0.964187
vn 0.153902 -0.134210 0.978929
vn 0.075637 -0.125557 0.989199
vn 0.099427 -0.180594 0.978519
vn 0.160533 -0.200716 0.966407
vn 0.217808 -0.059394 0.974183
vn 0.125253 -0.101335 0.986936
vn 0.199755 0.014342 0.979741
vn 0.003839 0.000662 0.999992
vn 0.066666 -0.054521 0.996285
vn 0.212015 -0.072498 0.974574
s 1
g Wall_HighDistorition_L1 Wall_HighDistorition
usemtl lambert1SG
f 12/1/1 35/2/2 36/3/3 1/4/4
f 31/20/5 32/15/6 6/14/7 4/21/8
f 6/14/7 32/15/6 33/10/9 8/9/10
f 8/9/10 33/10/9 34/6/11 10/5/12
f 10/5/12 34/6/11 35/2/2 12/1/1
f 3/36/13 5/35/14 14/32/15 13/34/16
f 15/29/17 14/32/15 5/35/14 7/33/18
f 16/24/19 15/29/17 7/33/18 9/30/20
f 17/18/21 16/24/19 9/30/20 11/25/22
f 18/19/23 17/18/21 11/25/22 2/26/24
f 13/34/16 14/32/15 20/28/25 19/31/26
f 21/23/27 20/28/25 14/32/15 15/29/17
f 22/17/28 21/23/27 15/29/17 16/24/19
f 23/12/29 22/17/28 16/24/19 17/18/21
f 24/13/30 23/12/29 17/18/21 18/19/23
f 19/31/26 20/28/25 26/22/31 25/27/32
f 27/16/33 26/22/31 20/28/25 21/23/27
f 28/11/34 27/16/33 21/23/27 22/17/28
f 29/7/35 28/11/34 22/17/28 23/12/29
f 30/8/36 29/7/35 23/12/29 24/13/30
f 25/27/32 26/22/31 32/15/6 31/20/5
f 33/10/9 32/15/6 26/22/31 27/16/33
f 34/6/11 33/10/9 27/16/33 28/11/34
f 35/2/2 34/6/11 28/11/34 29/7/35
f 36/3/3 35/2/2 29/7/35 30/8/36
