# This file uses centimeters as units for non-parametric coordinates.

mtllib Wall_HighDistortion_SmlWave_LR.mtl
g default
v 0.519330 -0.000000 -0.080983
v 0.519330 2.400000 0.053713
v 1.000000 2.400000 0.157068
v 1.000000 -0.000000 -0.021279
v 0.519330 1.920000 0.137370
v 1.000000 1.920000 0.157068
v 0.519330 1.440000 -0.008380
v 1.000000 1.440000 0.019001
v 0.519330 0.960000 -0.116482
v 1.000000 0.960000 -0.083521
v 0.519330 0.480000 -0.091003
v 1.000000 0.480000 -0.083521
v 0.000000 0.000000 -0.021279
v 0.000000 2.400000 0.157068
v 0.000000 1.920000 0.157068
v 0.000000 1.440000 0.019001
v 0.000000 0.960000 -0.083521
v 0.000000 0.480000 -0.083521
vt 0.282483 0.455525
vt 0.155811 0.455525
vt 0.155811 0.329030
vt 0.282483 0.329030
vt 0.282483 0.582021
vt 0.155811 0.582021
vt 0.018951 0.455525
vt 0.018951 0.329030
vt 0.282483 0.708516
vt 0.155811 0.708516
vt 0.018951 0.582021
vt 0.282483 0.835011
vt 0.155811 0.835011
vt 0.018951 0.708516
vt 0.282483 0.961506
vt 0.155811 0.961506
vt 0.018951 0.835011
vt 0.018951 0.961506
vn -0.055827 0.050777 0.997148
vn -0.055814 0.050753 0.997151
vn -0.069521 0.074879 0.994766
vn -0.069521 0.074879 0.994766
vn -0.126494 0.086116 0.988222
vn -0.126494 0.086116 0.988222
vn -0.087608 -0.103578 0.990755
vn -0.087818 -0.102609 0.990838
vn -0.054092 -0.248699 0.967069
vn -0.053963 -0.249324 0.966915
vn -0.052070 -0.095412 0.994075
vn -0.052149 -0.096402 0.993975
vn 0.051671 0.050765 0.997373
vn 0.051683 0.050787 0.997371
vn 0.064369 0.074905 0.995111
vn 0.064369 0.074905 0.995111
vn 0.117212 0.086215 0.989358
vn 0.117212 0.086215 0.989358
vn 0.081315 -0.102717 0.991382
vn 0.081136 -0.103614 0.991303
vn 0.049961 -0.249354 0.967123
vn 0.050071 -0.248776 0.967266
vn 0.048274 -0.096380 0.994173
vn 0.048206 -0.095463 0.994265
s 1
g Wall_HighDistorition_SmlWave_LR Wall_HighDistorition
usemtl lambert1SG
f 12/1/1 11/2/2 1/3/3 4/4/4
f 3/15/5 2/16/6 5/13/7 6/12/8
f 6/12/8 5/13/7 7/10/9 8/9/10
f 8/9/10 7/10/9 9/6/11 10/5/12
f 10/5/12 9/6/11 11/2/2 12/1/1
s 3
f 11/2/13 18/7/14 13/8/15 1/3/16
f 2/16/17 14/18/18 15/17/19 5/13/20
f 5/13/20 15/17/19 16/14/21 7/10/22
f 7/10/22 16/14/21 17/11/23 9/6/24
f 9/6/24 17/11/23 18/7/14 11/2/13
