# This file uses centimeters as units for non-parametric coordinates.

mtllib Wall_SlightDistortion_R2.mtl
g default
v -3.000000 -0.000000 0.059872
v -3.000000 2.400000 0.059872
v -3.000000 2.400000 -0.140544
v -3.000000 -0.000000 -0.140544
v 0.000000 2.400000 0.000000
v 0.000000 2.400000 -0.200000
v 0.000000 -0.000000 -0.200000
v 0.000000 -0.000000 0.000000
v -1.000000 2.400000 0.000000
v -1.000000 2.400000 -0.200000
v -1.000000 -0.000000 -0.200000
v -1.000000 -0.000000 0.000000
v -2.000000 2.400000 0.000554
v -2.000000 2.400000 -0.199819
v -2.000000 -0.000000 -0.199819
v -2.000000 -0.000000 0.000554
v -2.000000 1.600000 -0.078750
v -3.000000 1.600000 0.021620
v -3.000000 1.600000 -0.172716
v -2.000000 1.600000 -0.266910
v -1.000000 1.600000 -0.232195
v 0.000000 1.600000 -0.200000
v 0.000000 1.600000 0.000000
v -1.000000 1.600000 -0.038252
v -2.000000 0.800000 0.000554
v -3.000000 0.800000 0.059872
v -3.000000 0.800000 -0.140544
v -2.000000 0.800000 -0.199819
v -1.000000 0.800000 -0.200000
v 0.000000 0.800000 -0.200000
v 0.000000 0.800000 0.000000
v -1.000000 0.800000 0.000000
vt 0.402778 0.000000
vt 0.402778 0.083333
vt 0.375000 0.083333
vt 0.375000 0.000000
vt 0.375000 0.500000
vt 0.375000 0.250000
vt 0.402778 0.250000
vt 0.402778 0.500000
vt 0.375000 0.750000
vt 0.375000 0.666667
vt 0.402778 0.666667
vt 0.402778 0.750000
vt 0.375000 1.000000
vt 0.402778 1.000000
vt 0.125000 0.000000
vt 0.125000 0.083333
vt 0.458333 0.750000
vt 0.458333 1.000000
vt 0.458333 0.750000
vt 0.458333 0.666667
vt 0.430556 0.500000
vt 0.430556 0.250000
vt 0.458333 0.250000
vt 0.458333 0.500000
vt 0.430556 0.750000
vt 0.430556 0.666667
vt 0.430556 1.000000
vt 0.458333 0.083333
vt 0.430556 0.083333
vt 0.430556 0.000000
vt 0.458333 0.000000
vt 0.402778 0.166667
vt 0.375000 0.166667
vt 0.125000 0.166667
vt 0.125000 0.250000
vt 0.402778 0.583333
vt 0.375000 0.583333
vt 0.430556 0.583333
vt 0.458333 0.583333
vt 0.458333 0.500000
vt 0.430556 0.166667
vt 0.458333 0.166667
vn 0.029922 0.000000 0.999552
vn 0.029949 0.036729 0.998876
vn 0.069357 0.036590 0.996921
vn 0.059213 0.000000 0.998245
vn 0.000000 1.000000 0.000000
vn 0.000000 1.000000 0.000000
vn 0.000000 1.000000 0.000000
vn 0.000000 1.000000 0.000000
vn -0.059171 0.000000 -0.998248
vn -0.067809 -0.030910 -0.997219
vn -0.029740 -0.031019 -0.999076
vn -0.029715 0.000000 -0.999559
vn 0.000000 -1.000000 0.000000
vn 0.000000 -1.000000 0.000000
vn 0.000000 -1.000000 0.000000
vn 0.000000 -1.000000 0.000000
vn -1.000000 0.000000 0.000000
vn -1.000000 0.000000 0.000000
vn -1.000000 -0.000000 0.000000
vn -1.000000 -0.000000 0.000000
vn 1.000000 0.000000 0.000000
vn 1.000000 0.000000 0.000000
vn 1.000000 0.000000 0.000000
vn 1.000000 0.000000 0.000000
vn 0.000000 1.000000 0.000000
vn 0.000000 1.000000 0.000000
vn 0.000000 1.000000 0.000000
vn 0.000000 1.000000 0.000000
vn -0.000090 0.000000 -1.000000
vn 0.008294 -0.020539 -0.999755
vn 0.008048 -0.010060 -0.999917
vn 0.000000 0.000000 -1.000000
vn 0.000000 -1.000000 0.000000
vn 0.000000 -1.000000 0.000000
vn 0.000000 -1.000000 0.000000
vn 0.000000 -1.000000 0.000000
vn -0.009562 0.011952 0.999883
vn -0.009633 0.024337 0.999657
vn 0.000277 0.000000 1.000000
vn 0.000000 0.000000 1.000000
vn 0.029829 0.000000 0.999555
vn 0.029935 -0.073242 0.996865
vn 0.079377 -0.073044 0.994165
vn 0.079590 0.000000 0.996828
vn -1.000000 -0.000000 0.000000
vn -1.000000 -0.000000 0.000000
vn -1.000000 0.000000 0.000000
vn -1.000000 0.000000 0.000000
vn -0.029647 -0.000000 -0.999561
vn -0.076510 0.000000 -0.997069
vn -0.076364 0.061739 -0.995167
vn -0.029737 0.061899 -0.997639
vn 0.016680 -0.000000 -0.999861
vn 0.016666 0.041047 -0.999018
vn 0.016095 0.000000 -0.999871
vn 0.016092 0.020115 -0.999668
vn 1.000000 0.000000 0.000000
vn 1.000000 0.000000 0.000000
vn 1.000000 0.000000 0.000000
vn 1.000000 0.000000 0.000000
vn -0.019117 -0.023896 0.999532
vn -0.019522 -0.048623 0.998626
vn -0.019546 0.000000 0.999809
vn -0.019123 -0.000000 0.999817
s 1
g Wall_SlightDistortion_R2 Wall_SlightDistortion
usemtl initialShadingGroup
f 16/1/1 25/2/2 26/3/3 1/4/4
s 2
f 3/5/5 2/6/6 13/7/7 14/8/8
s 3
f 4/9/9 27/10/10 28/11/11 15/12/12
s 4
f 1/13/13 4/9/14 15/12/15 16/14/16
s 5
f 4/15/17 1/4/18 26/3/19 27/16/20
s 6
f 31/17/21 8/18/22 7/19/23 30/20/24
s 2
f 10/21/25 9/22/26 5/23/27 6/24/28
s 3
f 11/25/29 29/26/30 30/20/31 7/19/32
s 4
f 12/27/33 11/25/34 7/19/35 8/18/36
s 1
f 31/28/37 32/29/38 12/30/39 8/31/40
s 2
f 14/8/8 13/7/7 9/22/26 10/21/25
s 3
f 15/12/12 28/11/11 29/26/30 11/25/29
s 4
f 16/14/16 15/12/15 11/25/34 12/27/33
s 1
f 12/30/39 32/29/38 25/2/2 16/1/1
f 17/32/41 13/7/42 2/6/43 18/33/44
s 5
f 19/34/45 18/33/46 2/6/47 3/35/48
s 3
f 20/36/49 19/37/50 3/5/51 14/8/52
f 21/38/53 20/36/49 14/8/52 10/21/54
f 22/39/55 21/38/53 10/21/54 6/24/56
s 6
f 5/23/57 23/40/58 22/39/59 6/24/60
s 1
f 5/23/61 9/22/62 24/41/63 23/42/64
f 17/32/41 24/41/63 9/22/62 13/7/42
f 25/2/2 17/32/41 18/33/44 26/3/3
s 5
f 27/16/20 26/3/19 18/33/46 19/34/45
s 3
f 28/11/11 27/10/10 19/37/50 20/36/49
f 29/26/30 28/11/11 20/36/49 21/38/53
f 30/20/31 29/26/30 21/38/53 22/39/55
s 6
f 23/40/58 31/17/21 30/20/24 22/39/59
s 1
f 23/42/64 24/41/63 32/29/38 31/28/37
f 25/2/2 32/29/38 24/41/63 17/32/41
