# This file uses centimeters as units for non-parametric coordinates.

mtllib Wall_MidDistortion_L2.mtl
g default
v 0.000000 -0.000000 0.000000
v 0.000000 2.400000 0.000000
v 0.000000 2.400000 -0.200000
v 0.000000 -0.000000 -0.200000
v 3.000000 2.400000 0.215158
v 3.000000 2.400000 -0.018911
v 3.000000 -0.000000 -0.018911
v 3.000000 -0.000000 0.215158
v 0.000000 1.800000 0.000000
v 0.000000 1.800000 -0.200000
v 3.000000 1.800000 -0.018911
v 3.000000 1.800000 0.215158
v 0.000000 1.200000 0.000000
v 0.000000 1.200000 -0.200000
v 3.000000 1.200000 -0.018911
v 3.000000 1.200000 0.215158
v 0.000000 0.600000 0.000000
v 0.000000 0.600000 -0.200000
v 3.000000 0.600000 -0.018911
v 3.000000 0.600000 0.215158
v 2.250000 2.400000 0.161368
v 2.250000 2.400000 -0.064183
v 2.250000 1.800000 -0.064183
v 2.250000 1.200000 -0.064183
v 2.250000 0.600000 -0.064183
v 2.250000 -0.000000 -0.064183
v 2.250000 -0.000000 0.161368
v 2.250000 0.600000 0.161368
v 2.250000 1.200000 0.161368
v 2.250000 1.800000 0.161368
v 1.500000 2.400000 0.107579
v 1.500000 2.400000 -0.109456
v 1.500000 1.800000 -0.109456
v 1.500000 1.200000 -0.109456
v 1.500000 0.600000 -0.109456
v 1.500000 -0.000000 -0.109456
v 1.500000 -0.000000 0.107579
v 1.500000 0.600000 0.107579
v 1.500000 1.200000 0.107579
v 1.500000 1.800000 0.107579
v 0.750000 2.400000 0.053789
v 0.750000 2.400000 -0.154728
v 0.750000 1.800000 -0.154728
v 0.750000 1.200000 -0.154728
v 0.750000 0.600000 -0.154728
v 0.750000 -0.000000 -0.154728
v 0.750000 -0.000000 0.053789
v 0.750000 0.600000 0.053789
v 0.750000 1.200000 0.053789
v 0.750000 1.800000 0.053789
vt 0.395833 0.062500
vt 0.375000 0.062500
vt 0.375000 0.000000
vt 0.395833 0.000000
vt 0.375000 0.500000
vt 0.375000 0.250000
vt 0.395833 0.250000
vt 0.395833 0.500000
vt 0.375000 0.750000
vt 0.375000 0.687500
vt 0.395833 0.687500
vt 0.395833 0.750000
vt 0.375000 1.000000
vt 0.395833 1.000000
vt 0.125000 0.000000
vt 0.125000 0.062500
vt 0.458333 0.812500
vt 0.458333 1.000000
vt 0.458333 0.750000
vt 0.458333 0.687500
vt 0.125000 0.187500
vt 0.375000 0.187500
vt 0.125000 0.250000
vt 0.395833 0.562500
vt 0.375000 0.562500
vt 0.458333 0.250000
vt 0.458333 0.437500
vt 0.458333 0.562500
vt 0.458333 0.500000
vt 0.395833 0.187500
vt 0.125000 0.125000
vt 0.375000 0.125000
vt 0.395833 0.625000
vt 0.375000 0.625000
vt 0.458333 0.625000
vt 0.458333 0.625000
vt 0.395833 0.125000
vt 0.437500 0.500000
vt 0.437500 0.250000
vt 0.437500 0.562500
vt 0.437500 0.625000
vt 0.437500 0.687500
vt 0.437500 0.750000
vt 0.437500 1.000000
vt 0.458333 0.062500
vt 0.437500 0.062500
vt 0.437500 0.000000
vt 0.458333 0.000000
vt 0.458333 0.125000
vt 0.437500 0.125000
vt 0.458333 0.187500
vt 0.437500 0.187500
vt 0.416667 0.500000
vt 0.416667 0.250000
vt 0.416667 0.562500
vt 0.416667 0.625000
vt 0.416667 0.687500
vt 0.416667 0.750000
vt 0.416667 1.000000
vt 0.416667 0.062500
vt 0.416667 0.000000
vt 0.416667 0.125000
vt 0.416667 0.187500
vn -0.071535 0.000000 0.997438
vn -0.071535 0.000000 0.997438
vn -0.071535 0.000000 0.997438
vn -0.071535 0.000000 0.997438
vn 0.000000 1.000000 0.000000
vn 0.000000 1.000000 0.000000
vn 0.000000 1.000000 0.000000
vn 0.000000 1.000000 0.000000
vn 0.060253 0.000000 -0.998183
vn 0.060253 0.000000 -0.998183
vn 0.060253 0.000000 -0.998183
vn 0.060253 0.000000 -0.998183
vn 0.000000 -1.000000 0.000000
vn 0.000000 -1.000000 0.000000
vn 0.000000 -1.000000 0.000000
vn 0.000000 -1.000000 0.000000
vn -1.000000 0.000000 0.000000
vn -1.000000 0.000000 0.000000
vn -1.000000 0.000000 0.000000
vn -1.000000 0.000000 0.000000
vn 1.000000 0.000000 0.000000
vn 1.000000 0.000000 0.000000
vn 1.000000 0.000000 0.000000
vn 1.000000 0.000000 0.000000
vn -1.000000 0.000000 0.000000
vn -1.000000 0.000000 0.000000
vn -1.000000 0.000000 0.000000
vn -1.000000 0.000000 0.000000
vn 0.060253 0.000000 -0.998183
vn 0.060253 0.000000 -0.998183
vn 0.060253 0.000000 -0.998183
vn 0.060253 0.000000 -0.998183
vn 1.000000 0.000000 0.000000
vn 1.000000 0.000000 0.000000
vn 1.000000 0.000000 0.000000
vn 1.000000 0.000000 0.000000
vn -0.071535 0.000000 0.997438
vn -0.071535 0.000000 0.997438
vn -0.071535 0.000000 0.997438
vn -0.071535 0.000000 0.997438
vn -1.000000 0.000000 0.000000
vn -1.000000 0.000000 0.000000
vn 0.060253 0.000000 -0.998183
vn 0.060253 0.000000 -0.998183
vn 1.000000 0.000000 0.000000
vn 1.000000 0.000000 0.000000
vn -0.071535 0.000000 0.997438
vn -0.071535 0.000000 0.997438
vn 0.000000 1.000000 0.000000
vn 0.000000 1.000000 0.000000
vn 0.000000 1.000000 0.000000
vn 0.000000 1.000000 0.000000
vn 0.060253 0.000000 -0.998183
vn 0.060253 0.000000 -0.998183
vn 0.060253 0.000000 -0.998183
vn 0.060253 0.000000 -0.998183
vn 0.060253 0.000000 -0.998183
vn 0.060253 0.000000 -0.998183
vn 0.060253 0.000000 -0.998183
vn 0.060253 0.000000 -0.998183
vn 0.060253 0.000000 -0.998183
vn 0.060253 0.000000 -0.998183
vn 0.000000 -1.000000 0.000000
vn 0.000000 -1.000000 0.000000
vn 0.000000 -1.000000 0.000000
vn 0.000000 -1.000000 0.000000
vn -0.071535 0.000000 0.997438
vn -0.071536 0.000000 0.997438
vn -0.071536 0.000000 0.997438
vn -0.071535 0.000000 0.997438
vn -0.071535 0.000000 0.997438
vn -0.071536 0.000000 0.997438
vn -0.071535 0.000000 0.997438
vn -0.071536 0.000000 0.997438
vn -0.071535 0.000000 0.997438
vn -0.071535 0.000000 0.997438
vn 0.000000 1.000000 0.000000
vn 0.000000 1.000000 0.000000
vn 0.060253 0.000000 -0.998183
vn 0.060253 0.000000 -0.998183
vn 0.060253 0.000000 -0.998183
vn 0.060253 0.000000 -0.998183
vn 0.060253 0.000000 -0.998183
vn 0.000000 -1.000000 0.000000
vn 0.000000 -1.000000 0.000000
vn -0.071536 0.000000 0.997438
vn -0.071536 0.000000 0.997438
vn -0.071536 0.000000 0.997438
vn -0.071536 0.000000 0.997438
vn -0.071535 0.000000 0.997438
s 1
g Wall_MidDistorition_L2 Wall_MidDistorition
usemtl initialShadingGroup
f 48/1/1 17/2/2 1/3/3 47/4/4
s 2
f 3/5/5 2/6/6 41/7/7 42/8/8
s 3
f 4/9/9 18/10/10 45/11/11 46/12/12
s 4
f 1/13/13 4/9/14 46/12/15 47/14/16
s 5
f 4/15/17 1/3/18 17/2/19 18/16/20
s 6
f 20/17/21 8/18/22 7/19/23 19/20/24
s 5
f 10/21/25 9/22/26 2/6/27 3/23/28
s 3
f 43/24/29 10/25/30 3/5/31 42/8/32
s 6
f 5/26/33 12/27/34 11/28/35 6/29/36
s 1
f 50/30/37 41/7/38 2/6/39 9/22/40
s 5
f 14/31/41 13/32/42 9/22/26 10/21/25
s 3
f 44/33/43 14/34/44 10/25/30 43/24/29
s 6
f 12/27/34 16/35/45 15/36/46 11/28/35
s 1
f 50/30/37 9/22/40 13/32/47 49/37/48
s 5
f 18/16/20 17/2/19 13/32/42 14/31/41
s 3
f 45/11/11 18/10/10 14/34/44 44/33/43
s 6
f 16/35/45 20/17/21 19/20/24 15/36/46
s 1
f 49/37/48 13/32/47 17/2/2 48/1/1
s 2
f 22/38/49 21/39/50 5/26/51 6/29/52
s 3
f 11/28/53 23/40/54 22/38/55 6/29/56
f 15/36/57 24/41/58 23/40/54 11/28/53
f 19/20/59 25/42/60 24/41/58 15/36/57
f 26/43/61 25/42/60 19/20/59 7/19/62
s 4
f 27/44/63 26/43/64 7/19/65 8/18/66
s 1
f 20/45/67 28/46/68 27/47/69 8/48/70
f 16/49/71 29/50/72 28/46/68 20/45/67
f 12/51/73 30/52/74 29/50/72 16/49/71
f 5/26/75 21/39/76 30/52/74 12/51/73
s 2
f 32/53/77 31/54/78 21/39/50 22/38/49
s 3
f 23/40/54 33/55/79 32/53/80 22/38/55
f 24/41/58 34/56/81 33/55/79 23/40/54
f 25/42/60 35/57/82 34/56/81 24/41/58
f 36/58/83 35/57/82 25/42/60 26/43/61
s 4
f 37/59/84 36/58/85 26/43/64 27/44/63
s 1
f 28/46/68 38/60/86 37/61/87 27/47/69
f 29/50/72 39/62/88 38/60/86 28/46/68
f 30/52/74 40/63/89 39/62/88 29/50/72
f 30/52/74 21/39/76 31/54/90 40/63/89
s 2
f 42/8/8 41/7/7 31/54/78 32/53/77
s 3
f 33/55/79 43/24/29 42/8/32 32/53/80
f 34/56/81 44/33/43 43/24/29 33/55/79
f 35/57/82 45/11/11 44/33/43 34/56/81
f 46/12/12 45/11/11 35/57/82 36/58/83
s 4
f 47/14/16 46/12/15 36/58/85 37/59/84
s 1
f 38/60/86 48/1/1 47/4/4 37/61/87
f 39/62/88 49/37/48 48/1/1 38/60/86
f 40/63/89 50/30/37 49/37/48 39/62/88
f 40/63/89 31/54/90 41/7/38 50/30/37
