# This file uses centimeters as units for non-parametric coordinates.

mtllib Wall_MidDistortion_R1.mtl
g default
v 3.000000 -0.000000 0.000000
v 3.000000 2.400000 0.000000
v 6.000000 2.400000 -0.018547
v 6.000000 -0.000000 0.039392
v 5.000000 2.400000 -0.041084
v 5.000000 -0.000000 -0.021679
v 4.000000 2.400000 -0.000626
v 4.004291 -0.007935 0.001215
v 4.000000 1.600000 -0.038879
v 3.000000 1.600000 0.000000
v 6.000000 1.600000 -0.022454
v 5.000000 1.600000 -0.083884
v 4.026391 0.673036 -0.028845
v 3.000000 0.800000 0.000000
v 6.000000 0.800000 0.005323
v 5.000000 0.800000 -0.030358
v 3.500000 2.400000 0.000000
v 3.500000 1.600000 -0.019126
v 3.500000 0.800000 -0.020526
v 3.500000 -0.000000 0.000000
v 4.500000 2.400000 -0.010009
v 4.500000 1.600000 -0.049092
v 4.525581 0.701753 -0.017665
v 4.504366 -0.006278 -0.007423
v 5.500000 2.400000 -0.045395
v 5.500000 1.600000 -0.059096
v 5.500000 0.800000 -0.025290
v 5.500000 -0.000000 0.002634
v 3.000000 2.000000 0.000000
v 3.500000 2.000000 -0.009563
v 4.000000 2.000000 -0.019753
v 4.500000 2.000000 -0.029965
v 5.000000 2.000000 -0.064919
v 5.500000 2.000000 -0.062904
v 6.000000 2.000000 -0.024202
v 3.000000 1.200000 0.000000
v 3.500000 1.200000 -0.019826
v 4.000015 1.191850 -0.040266
v 4.500011 1.193666 -0.039369
v 5.000000 1.200000 -0.060135
v 5.500000 1.200000 -0.041649
v 6.000000 1.200000 -0.014474
v 3.000000 0.400000 0.000000
v 3.500000 0.400000 -0.010263
v 4.049140 0.274302 0.001394
v 4.548330 0.302769 0.002315
v 5.000000 0.400000 -0.022259
v 5.500000 0.400000 -0.005256
v 6.000000 0.400000 0.027204
vt 0.290193 0.418579
vt 0.284315 0.522885
vt 0.146985 0.556043
vt 0.146919 0.451629
vt 0.799697 0.555379
vt 0.668994 0.555634
vt 0.669045 0.451147
vt 0.799796 0.450878
vt 0.538450 0.451291
vt 0.538474 0.555681
vt 0.414606 0.530106
vt 0.420424 0.425905
vt 0.277443 0.869225
vt 0.277362 0.973706
vt 0.146913 0.973600
vt 0.146967 0.869205
vt 0.799956 0.973186
vt 0.669265 0.973294
vt 0.669051 0.868871
vt 0.799868 0.868788
vt 0.407908 0.869252
vt 0.538649 0.868997
vt 0.538652 0.973522
vt 0.407857 0.973751
vt 0.277532 0.658248
vt 0.277557 0.764734
vt 0.147022 0.764799
vt 0.146991 0.660420
vt 0.799774 0.764329
vt 0.669036 0.764529
vt 0.669039 0.660071
vt 0.799667 0.659883
vt 0.407980 0.658596
vt 0.538516 0.660281
vt 0.538612 0.764669
vt 0.407988 0.764710
vt 0.016468 0.973560
vt 0.016494 0.869199
vt 0.016485 0.764831
vt 0.016452 0.660453
vt 0.016435 0.556069
vt 0.016436 0.451693
vt 0.146833 0.347226
vt 0.016389 0.347336
vt 0.278420 0.344966
vt 0.408961 0.345256
vt 0.538378 0.346916
vt 0.668992 0.346763
vt 0.799800 0.346478
vn -0.002923 0.029029 0.999574
vn 0.001692 0.039869 0.999204
vn 0.027997 0.017620 0.999453
vn 0.010987 0.024970 0.999628
vn -0.060255 0.048655 0.996997
vn -0.041535 0.047506 0.998007
vn -0.048848 0.030768 0.998332
vn -0.065958 0.038608 0.997075
vn 0.000496 0.019225 0.999815
vn 0.003792 0.047984 0.998841
vn 0.006689 0.046097 0.998915
vn 0.017294 0.018497 0.999679
vn 0.020176 -0.042052 0.998912
vn 0.015189 -0.042313 0.998989
vn 0.010186 -0.023899 0.999663
vn 0.019743 -0.023896 0.999519
vn -0.065383 -0.028880 0.997442
vn -0.031607 -0.040256 0.998689
vn -0.041286 -0.023134 0.998880
vn -0.070267 -0.010981 0.997468
vn 0.043851 -0.049650 0.997804
vn 0.027776 -0.043181 0.998681
vn 0.034137 -0.053105 0.998005
vn 0.042686 -0.051676 0.997751
vn 0.015645 0.013994 0.999780
vn 0.024914 -0.018823 0.999512
vn 0.034430 -0.012787 0.999325
vn 0.036979 0.002428 0.999313
vn -0.069396 0.019321 0.997402
vn -0.052225 0.017798 0.998477
vn -0.047004 0.046431 0.997815
vn -0.060642 0.038398 0.997421
vn 0.017666 0.035537 0.999212
vn 0.004800 0.052299 0.998620
vn 0.013807 0.006673 0.999882
vn 0.038587 -0.010716 0.999198
vn 0.009562 -0.011952 0.999883
vn 0.019121 -0.011951 0.999746
vn 0.033801 -0.006411 0.999408
vn 0.039621 -0.000874 0.999214
vn 0.035547 0.005973 0.999350
vn 0.020520 0.012825 0.999707
vn 0.000457 0.014082 0.999901
vn 0.010261 0.012827 0.999865
vn -0.002839 0.002049 0.999994
vn 0.024915 -0.016820 0.999548
vn -0.002949 -0.001355 0.999995
vn -0.055185 0.017818 0.998317
vn -0.069032 0.025030 0.997300
s 1
g Wall_MidDistortion_R1 Wall_MidDistortion
usemtl lambert1SG
f 45/1/1 13/2/2 19/3/3 44/4/4
f 15/5/5 27/6/6 48/7/7 49/8/8
f 47/9/9 16/10/10 23/11/11 46/12/12
f 31/13/13 7/14/14 17/15/15 30/16/16
f 3/17/17 25/18/18 34/19/19 35/20/20
f 32/21/21 33/22/22 5/23/23 21/24/24
f 38/25/25 9/26/26 18/27/27 37/28/28
f 11/29/29 26/30/30 41/31/31 42/32/32
f 39/33/33 40/34/34 12/35/35 22/36/36
f 30/16/16 17/15/15 2/37/37 29/38/38
f 37/28/28 18/27/27 10/39/39 36/40/40
f 44/4/4 19/3/3 14/41/41 43/42/42
f 31/13/13 32/21/21 21/24/24 7/14/14
f 38/25/25 39/33/33 22/36/36 9/26/26
f 46/12/12 23/11/11 13/2/2 45/1/1
f 25/18/18 5/23/23 33/22/22 34/19/19
f 41/31/31 26/30/30 12/35/35 40/34/34
f 48/7/7 27/6/6 16/10/10 47/9/9
f 18/27/27 30/16/16 29/38/38 10/39/39
f 9/26/26 31/13/13 30/16/16 18/27/27
f 9/26/26 22/36/36 32/21/21 31/13/13
f 22/36/36 12/35/35 33/22/22 32/21/21
f 34/19/19 33/22/22 12/35/35 26/30/30
f 35/20/20 34/19/19 26/30/30 11/29/29
f 19/3/3 37/28/28 36/40/40 14/41/41
f 13/2/2 38/25/25 37/28/28 19/3/3
f 13/2/2 23/11/11 39/33/33 38/25/25
f 23/11/11 16/10/10 40/34/34 39/33/33
f 27/6/6 41/31/31 40/34/34 16/10/10
f 42/32/32 41/31/31 27/6/6 15/5/5
f 20/43/43 44/4/4 43/42/42 1/44/44
f 8/45/45 45/1/1 44/4/4 20/43/43
f 24/46/46 46/12/12 45/1/1 8/45/45
f 6/47/47 47/9/9 46/12/12 24/46/46
f 28/48/48 48/7/7 47/9/9 6/47/47
f 49/8/8 48/7/7 28/48/48 4/49/49
