# This file uses centimeters as units for non-parametric coordinates.

mtllib Wall_HighDistortion_SmlStraight_L.mtl
g default
v -1.000000 0.000000 0.357445
v -1.000000 2.400000 0.514513
v 0.000000 2.400000 0.000000
v 0.000000 -0.000000 0.000000
v 0.000000 1.920000 0.000000
v -1.000000 1.920000 0.514513
v 0.000000 1.440000 0.000000
v -1.000000 1.440000 0.397462
v 0.000000 0.960000 0.000000
v -1.000000 0.960000 0.351947
v 0.000000 0.480000 0.000000
v -1.000000 0.480000 0.351947
vt 0.290925 0.459577
vt 0.018951 0.459577
vt 0.018951 0.329030
vt 0.290925 0.329030
vt 0.290925 0.590125
vt 0.018951 0.590125
vt 0.290925 0.720672
vt 0.018951 0.720672
vt 0.290925 0.851220
vt 0.018951 0.851220
vt 0.290925 0.981767
vt 0.018951 0.981767
vn 0.333138 0.002700 0.942874
vn 0.333139 0.002703 0.942874
vn 0.334285 0.005397 0.942456
vn 0.334285 0.005397 0.942457
vn 0.457508 0.000000 0.889206
vn 0.457508 0.000000 0.889206
vn 0.436719 -0.052788 0.898048
vn 0.435911 -0.054765 0.898322
vn 0.383593 -0.079219 0.920098
vn 0.382409 -0.077955 0.920699
vn 0.341492 -0.022494 0.939616
vn 0.341400 -0.022275 0.939654
s 1
g Wall_HighDistorition_SmlStraight_L Wall_HighDistorition
usemtl lambert1SG
f 11/1/1 12/2/2 1/3/3 4/4/4
f 3/11/5 2/12/6 6/10/7 5/9/8
f 5/9/8 6/10/7 8/8/9 7/7/10
f 7/7/10 8/8/9 10/6/11 9/5/12
f 9/5/12 10/6/11 12/2/2 11/1/1
