# This file uses centimeters as units for non-parametric coordinates.

mtllib Wall_HighDistortion_L1.mtl
g default
v -3.000000 2.400000 -0.126724
v -3.000000 0.000000 -0.126724
v 0.000000 2.400000 0.000887
v 0.000000 -0.000000 0.000887
v -3.000000 1.879139 -0.102495
v -3.000000 1.720861 -0.102495
v -3.000000 1.279139 -0.126724
v -3.000000 1.120861 -0.134360
v -3.000000 0.681392 -0.141088
v -3.000000 0.518608 -0.141088
v 0.000000 1.879139 -0.039487
v 0.000000 1.720861 -0.039487
v -0.296081 1.720861 -0.023025
v -0.296082 1.879139 -0.023025
v -0.453866 1.879139 -0.035494
v -0.453866 1.720861 -0.035494
v 0.000000 1.279139 -0.000887
v 0.000000 1.120861 -0.000887
v -0.296081 1.120887 -0.020970
v -0.296075 1.279145 -0.023025
v -0.453866 1.279139 -0.035494
v -0.453866 1.120887 -0.033439
v 0.000000 0.679139 -0.032939
v 0.000000 0.520861 -0.032939
v -0.295876 0.520859 -0.012770
v -0.295878 0.679139 -0.012770
v -0.454150 0.679141 -0.013732
v -0.454150 0.520859 -0.013732
v -0.670551 0.679139 -0.014338
v -0.829041 0.678822 -0.008516
v -0.829359 0.520861 -0.008529
v -0.670551 0.520861 -0.014338
v -1.044971 0.520194 0.002650
v -1.045641 0.679139 0.002746
v -1.202359 0.679828 -0.014182
v -1.202359 0.520172 -0.014182
v -0.670953 -0.000000 -0.053572
v -0.829212 -0.000000 -0.056026
v -0.671053 1.279220 -0.053581
v -0.829212 1.279320 -0.056026
v -0.829114 1.121106 -0.048838
v -0.671051 1.121105 -0.046387
v -1.045506 1.120727 -0.037522
v -1.045887 1.279220 -0.044730
v -1.203532 1.279604 -0.053629
v -1.203537 1.120720 -0.046401
v -0.671134 1.879139 -0.053587
v -0.829212 1.879320 -0.056026
v -0.829031 1.720861 -0.056035
v -0.671134 1.720861 -0.053587
v -1.045504 1.720396 -0.044750
v -1.045969 1.879139 -0.044726
v -1.203532 1.879604 -0.053629
v -1.203532 1.720396 -0.053629
v -0.829212 2.400000 -0.056026
v -0.670954 2.400000 -0.053572
v -1.423602 0.679139 -0.047475
v -1.579395 0.679523 -0.046440
v -1.579011 0.520861 -0.046495
v -1.423602 0.520861 -0.047475
v -1.795976 0.520824 -0.040703
v -1.794909 0.678481 -0.028845
v -1.952739 0.678317 -0.043546
v -1.953573 0.520824 -0.055363
v -1.421729 -0.000000 -0.069399
v -1.579321 -0.000000 -0.057309
v -1.421922 1.279145 -0.069431
v -1.579218 1.251463 -0.043590
v -1.578372 1.076578 -0.041336
v -1.421921 1.120880 -0.067295
v -1.792602 0.978573 -0.005956
v -1.797719 1.149651 0.007021
v -1.953538 1.104253 0.010469
v -1.950950 0.945108 -0.001271
v -1.421927 1.879139 -0.069432
v -1.579309 1.852914 -0.044964
v -1.578426 1.680307 -0.044979
v -1.421927 1.720861 -0.069432
v -1.819019 1.576332 0.006605
v -1.817846 1.749631 -0.001132
v -1.977369 1.703309 0.002001
v -1.975854 1.544232 0.008745
v -1.579321 2.400000 -0.057309
v -1.421729 2.400000 -0.069399
v -2.170291 0.678268 -0.068623
v -2.328218 0.677998 -0.083108
v -2.329298 0.520565 -0.096819
v -2.171175 0.520570 -0.082373
v -2.545972 0.520835 -0.099699
v -2.545998 0.679139 -0.099513
v -2.703687 0.679165 -0.099410
v -2.703687 0.520835 -0.099571
v -2.171423 -0.000000 -0.082404
v -2.329043 -0.000000 -0.096804
v -2.170730 1.092770 -0.012302
v -2.329244 1.139599 -0.040191
v -2.321588 0.962357 -0.053738
v -2.167293 0.934987 -0.025745
v -2.548011 1.073083 -0.083799
v -2.548181 1.249455 -0.082501
v -2.703835 1.279313 -0.097115
v -2.703835 1.120687 -0.098918
v -2.194573 1.691760 -0.021297
v -2.349326 1.739146 -0.050410
v -2.350265 1.559690 -0.042959
v -2.193371 1.533534 -0.014059
v -2.548248 1.668072 -0.084308
v -2.548454 1.847600 -0.083122
v -2.703873 1.879352 -0.098613
v -2.703873 1.720648 -0.100651
v -2.329074 2.400000 -0.096806
v -2.171405 2.400000 -0.082402
v -2.703687 2.400000 -0.099571
v -2.545972 2.400000 -0.099699
v -2.545972 -0.000000 -0.099699
v -2.703687 -0.000000 -0.099571
v -1.953658 2.400000 -0.055373
v -1.795739 2.400000 -0.043876
v -1.795778 -0.000000 -0.043877
v -1.953637 -0.000000 -0.055371
v -1.203532 2.400000 -0.053629
v -1.045504 2.400000 -0.044750
v -1.045506 -0.000000 -0.044750
v -1.203537 -0.000000 -0.053630
v -0.453866 2.400000 -0.035494
v -0.296081 2.400000 -0.023025
v -0.296081 -0.000000 -0.023025
v -0.453866 -0.000000 -0.035494
vt 0.802544 0.795885
vt 0.725183 0.836968
vt 0.724924 0.972784
vt 0.683946 0.836944
vt 0.802433 0.638991
vt 0.725119 0.680292
vt 0.683894 0.680364
vt 0.802005 0.482294
vt 0.724771 0.523567
vt 0.682991 0.346376
vt 0.683532 0.523635
vt 0.627134 0.523712
vt 0.627149 0.639278
vt 0.585802 0.523649
vt 0.585576 0.482497
vt 0.584898 0.346269
vt 0.486986 0.346787
vt 0.529292 0.523710
vt 0.488246 0.524052
vt 0.627158 0.680525
vt 0.627185 0.795669
vt 0.585981 0.680574
vt 0.529535 0.639064
vt 0.529493 0.680466
vt 0.488390 0.680618
vt 0.627145 0.836942
vt 0.626914 0.972713
vt 0.585957 0.836990
vt 0.529607 0.795548
vt 0.529420 0.836937
vt 0.529179 0.972681
vt 0.488321 0.837054
vt 0.429867 0.524098
vt 0.431267 0.639425
vt 0.389159 0.524255
vt 0.389013 0.482839
vt 0.388668 0.346998
vt 0.290788 0.347074
vt 0.332608 0.524203
vt 0.291142 0.523917
vt 0.431484 0.680628
vt 0.431435 0.795659
vt 0.390099 0.673430
vt 0.333360 0.602582
vt 0.331875 0.647140
vt 0.291481 0.635434
vt 0.431285 0.836893
vt 0.430791 0.972575
vt 0.389830 0.829987
vt 0.326458 0.757830
vt 0.326890 0.802829
vt 0.332875 0.972357
vt 0.285373 0.790819
vt 0.233922 0.523719
vt 0.235502 0.591284
vt 0.192499 0.523706
vt 0.192036 0.482594
vt 0.192126 0.347045
vt 0.094353 0.347148
vt 0.135500 0.524079
vt 0.094381 0.524198
vt 0.016389 0.524856
vt 0.234795 0.632391
vt 0.228926 0.746906
vt 0.192941 0.644448
vt 0.134980 0.626971
vt 0.134893 0.673045
vt 0.094201 0.680906
vt 0.016669 0.680932
vt 0.228527 0.788064
vt 0.234161 0.973118
vt 0.187669 0.800692
vt 0.135071 0.782342
vt 0.135322 0.829223
vt 0.136268 0.973311
vt 0.094644 0.837625
vt 0.017468 0.837787
vt 0.135510 0.482808
vt 0.135492 0.347094
vt 0.192838 0.973281
vt 0.187507 0.753861
vt 0.194591 0.598117
vt 0.724692 0.482249
vt 0.724232 0.346400
vt 0.801608 0.346300
vt 0.725074 0.638932
vt 0.802025 0.523525
vt 0.725246 0.795639
vt 0.802449 0.680248
vt 0.802320 0.973325
vt 0.802442 0.837137
vt 0.529321 0.482571
vt 0.528345 0.346725
vt 0.585985 0.639326
vt 0.586051 0.795679
vt 0.585655 0.972700
vt 0.332227 0.482936
vt 0.332098 0.347097
vt 0.390021 0.627831
vt 0.390275 0.785046
vt 0.389518 0.972485
vt 0.095155 0.973391
vt 0.017609 0.973751
vt 0.094425 0.796193
vt 0.017305 0.796473
vt 0.094183 0.639452
vt 0.016470 0.639558
vt 0.094384 0.482894
vt 0.016402 0.482408
vt 0.016787 0.347187
vt 0.291495 0.972614
vt 0.285720 0.749546
vt 0.292123 0.594080
vt 0.290808 0.482815
vt 0.233493 0.482590
vt 0.233464 0.347037
vt 0.487884 0.972643
vt 0.488423 0.795550
vt 0.488303 0.639137
vt 0.488062 0.482551
vt 0.429633 0.482729
vt 0.429905 0.346778
vt 0.683688 0.972744
vt 0.684001 0.795649
vt 0.683825 0.639048
vt 0.683423 0.482312
vt 0.627002 0.482383
vt 0.626203 0.346209
vn 0.007644 0.032124 0.999455
vn 0.003340 -0.029692 0.999554
vn -0.025301 -0.019381 0.999492
vn -0.022498 0.020974 0.999527
vn -0.081218 -0.000000 0.996696
vn -0.079422 0.005890 0.996824
vn -0.044289 0.023265 0.998748
vn -0.081217 0.000000 0.996696
vn -0.035646 -0.025259 0.999045
vn -0.081217 0.000000 0.996696
vn -0.054626 -0.000008 0.998507
vn -0.054641 0.000002 0.998506
vn -0.018743 -0.018136 0.999660
vn -0.025893 0.033820 0.999093
vn -0.030342 -0.002530 0.999536
vn -0.046073 0.040594 0.998113
vn -0.027568 0.034717 0.999017
vn 0.000342 -0.004859 0.999988
vn -0.052839 0.009500 0.998558
vn -0.022563 0.059748 0.997959
vn 0.011068 0.017340 0.999788
vn 0.018117 -0.019854 0.999639
vn -0.004642 0.003104 0.999984
vn -0.033797 -0.035871 0.998785
vn -0.042760 -0.046752 0.997991
vn -0.018931 0.004021 0.999813
vn -0.006341 0.050323 0.998713
vn -0.012415 -0.052866 0.998524
vn 0.037381 0.063993 0.997250
vn 0.031558 0.075936 0.996613
vn 0.037011 -0.067162 0.997055
vn -0.007084 0.063955 0.997928
vn -0.006648 -0.067253 0.997714
vn 0.034358 -0.087430 0.995578
vn -0.020296 -0.068844 0.997421
vn -0.106138 -0.052695 0.992954
vn -0.098464 -0.068631 0.992771
vn -0.004287 -0.087530 0.996153
vn -0.112090 0.050062 0.992436
vn -0.001362 0.076098 0.997099
vn -0.096598 0.059663 0.993534
vn -0.052055 0.030751 0.998171
vn -0.056552 -0.036315 0.997739
vn 0.023606 0.011996 0.999649
vn 0.023582 0.000002 0.999722
vn 0.006396 0.012061 0.999907
vn -0.067262 0.009545 0.997690
vn 0.006478 -0.000003 0.999979
vn -0.065493 -0.000003 0.997853
vn 0.026122 0.006301 0.999639
vn -0.024910 0.037419 0.998989
vn 0.023606 -0.000008 0.999721
vn -0.054629 -0.000005 0.998507
vn 0.023591 -0.000005 0.999722
vn 0.006369 -0.000000 0.999980
vn -0.065478 -0.000008 0.997854
vn 0.006440 0.000020 0.999979
vn -0.065474 0.000010 0.997854
vn 0.013606 0.004067 0.999899
vn 0.020123 0.000433 0.999797
vn 0.087333 -0.016131 0.996049
vn 0.134720 -0.009443 0.990839
vn 0.041105 -0.021172 0.998931
vn 0.047838 -0.063397 0.996841
vn -0.009009 -0.019372 0.999772
vn 0.043215 -0.020931 0.998847
vn -0.047929 -0.047438 0.997724
vn -0.106583 -0.019034 0.994122
vn -0.106205 -0.001281 0.994344
vn -0.009237 -0.009065 0.999916
vn -0.083817 -0.116848 0.989607
vn 0.099540 -0.058401 0.993318
vn -0.058674 -0.116414 0.991466
vn -0.117828 -0.121970 0.985515
vn -0.109062 -0.019139 0.993851
vn 0.193088 0.002656 0.981178
vn 0.182506 0.007870 0.983173
vn 0.127887 -0.009260 0.991746
vn -0.051302 -0.022458 0.998431
vn 0.136749 0.012498 0.990527
vn -0.054216 0.011491 0.998463
vn -0.135759 -0.027186 0.990369
vn -0.130226 -0.123666 0.983742
vn 0.125840 0.029383 0.991615
vn 0.007366 0.004882 0.999961
vn 0.114782 0.031243 0.992899
vn 0.055165 0.053458 0.997045
vn -0.081996 0.074965 0.993809
vn 0.049986 0.057314 0.997104
vn -0.083696 0.082389 0.993080
vn -0.124187 0.075759 0.989363
vn -0.136581 0.008790 0.990590
vn -0.107354 -0.078939 0.991082
vn -0.145597 -0.078384 0.986234
vn -0.050274 -0.014320 0.998633
vn -0.069733 -0.038722 0.996814
vn -0.011585 -0.006025 0.999915
vn -0.046160 -0.000000 0.998934
vn -0.109685 -0.000007 0.993967
vn -0.078905 0.006685 0.996860
vn -0.075102 0.008986 0.997135
vn -0.007366 0.000006 0.999973
vn -0.099940 -0.008896 0.994954
vn -0.106920 -0.037010 0.993579
vn -0.105976 -0.014431 0.994264
vn -0.131744 -0.006114 0.991265
vn -0.120772 0.010380 0.992626
vn -0.185858 -0.020712 0.982358
vn -0.186467 0.006548 0.982440
vn -0.156836 -0.004925 0.987612
vn -0.078391 -0.015224 0.996807
vn -0.144075 0.005526 0.989551
vn -0.060525 -0.012709 0.998086
vn -0.067985 -0.025055 0.997372
vn -0.123853 -0.013796 0.992205
vn -0.120427 0.059150 0.990959
vn -0.120265 0.085006 0.989096
vn -0.096757 0.066470 0.993086
vn -0.077452 0.034659 0.996393
vn -0.048346 0.014941 0.998719
vn -0.061880 0.038532 0.997340
vn -0.050553 0.021433 0.998491
vn -0.042379 0.017028 0.998957
vn -0.041582 -0.018922 0.998956
vn -0.006321 0.022621 0.999724
vn -0.012571 -0.038724 0.999171
vn -0.052307 0.024152 0.998339
vn -0.115145 0.013726 0.993254
s 1
g Wall_HighDistortion_L1 Wall_HighDistorition
usemtl lambert1SG
f 12/1/1 11/91/2 14/2/3 13/88/4
f 13/88/4 16/124/5 21/7/6 20/6/7
f 15/4/8 14/2/3 126/3/9 125/123/10
f 16/124/5 15/4/8 47/26/11 50/21/12
f 18/5/13 17/89/14 20/6/7 19/86/15
f 19/86/15 22/125/16 27/11/17 26/9/18
f 22/125/16 21/7/6 39/20/19 42/13/20
f 24/8/21 23/87/22 26/9/18 25/83/23
f 25/83/23 28/126/24 128/10/25 127/84/26
f 28/126/24 27/11/17 29/12/27 32/127/28
f 30/14/29 29/12/27 42/13/20 41/94/30
f 31/15/31 30/14/29 34/18/32 33/92/33
f 32/127/28 31/15/31 38/16/34 37/128/35
f 33/92/33 36/120/36 124/17/37 123/93/38
f 35/19/39 34/18/32 43/23/40 46/119/41
f 36/120/36 35/19/39 57/33/42 60/121/43
f 40/22/44 39/20/19 50/21/12 49/95/45
f 41/94/30 40/22/44 44/24/46 43/23/40
f 45/25/47 44/24/46 51/29/48 54/118/49
f 46/119/41 45/25/47 67/41/50 70/34/51
f 48/28/52 47/26/11 56/27/53 55/96/54
f 49/95/45 48/28/52 52/30/55 51/29/48
f 53/32/56 52/30/55 122/31/57 121/117/58
f 54/118/49 53/32/56 75/47/59 78/42/60
f 58/35/61 57/33/42 70/34/51 69/99/62
f 59/36/63 58/35/61 62/39/64 61/97/65
f 60/121/43 59/36/63 66/37/66 65/122/67
f 61/97/65 64/114/68 120/38/69 119/98/70
f 63/40/71 62/39/64 71/44/72 74/113/73
f 64/114/68 63/40/71 85/54/74 88/115/75
f 68/43/76 67/41/50 78/42/60 77/100/77
f 69/99/62 68/43/76 72/45/78 71/44/72
f 73/46/79 72/45/78 79/50/80 82/112/81
f 74/113/73 73/46/79 95/63/82 98/55/83
f 76/49/84 75/47/59 84/48/85 83/101/86
f 77/100/77 76/49/84 80/51/87 79/50/80
f 81/53/88 80/51/87 118/52/89 117/111/90
f 82/112/81 81/53/88 103/70/91 106/64/92
f 86/56/93 85/54/74 98/55/83 97/82/94
f 87/57/95 86/56/93 90/60/96 89/78/97
f 88/115/75 87/57/95 94/58/98 93/116/99
f 89/78/97 92/108/100 116/59/101 115/79/102
f 91/61/103 90/60/96 99/66/104 102/106/105
f 92/108/100 91/61/103 9/62/106 10/109/107
f 96/65/108 95/63/82 106/64/92 105/81/109
f 97/82/94 96/65/108 100/67/110 99/66/104
f 101/68/111 100/67/110 107/73/112 110/104/113
f 102/106/105 101/68/111 7/69/114 8/107/115
f 104/72/116 103/70/91 112/71/117 111/80/118
f 105/81/109 104/72/116 108/74/119 107/73/112
f 109/76/120 108/74/119 114/75/121 113/102/122
f 110/104/113 109/76/120 5/77/123 6/105/124
f 87/57/95 89/78/97 115/79/102 94/58/98
f 104/72/116 111/80/118 114/75/121 108/74/119
f 105/81/109 107/73/112 100/67/110 96/65/108
f 97/82/94 99/66/104 90/60/96 86/56/93
f 24/8/21 25/83/23 127/84/26 4/85/125
f 18/5/13 19/86/15 26/9/18 23/87/22
f 12/1/1 13/88/4 20/6/7 17/89/14
f 3/90/126 126/3/9 14/2/3 11/91/2
f 31/15/31 33/92/33 123/93/38 38/16/34
f 41/94/30 43/23/40 34/18/32 30/14/29
f 49/95/45 51/29/48 44/24/46 40/22/44
f 48/28/52 55/96/54 122/31/57 52/30/55
f 59/36/63 61/97/65 119/98/70 66/37/66
f 69/99/62 71/44/72 62/39/64 58/35/61
f 77/100/77 79/50/80 72/45/78 68/43/76
f 76/49/84 83/101/86 118/52/89 80/51/87
f 109/76/120 113/102/122 1/103/127 5/77/123
f 101/68/111 110/104/113 6/105/124 7/69/114
f 91/61/103 102/106/105 8/107/115 9/62/106
f 116/59/101 92/108/100 10/109/107 2/110/128
f 81/53/88 117/111/90 112/71/117 103/70/91
f 73/46/79 82/112/81 106/64/92 95/63/82
f 63/40/71 74/113/73 98/55/83 85/54/74
f 120/38/69 64/114/68 88/115/75 93/116/99
f 53/32/56 121/117/58 84/48/85 75/47/59
f 45/25/47 54/118/49 78/42/60 67/41/50
f 35/19/39 46/119/41 70/34/51 57/33/42
f 124/17/37 36/120/36 60/121/43 65/122/67
f 15/4/8 125/123/10 56/27/53 47/26/11
f 21/7/6 16/124/5 50/21/12 39/20/19
f 27/11/17 22/125/16 42/13/20 29/12/27
f 128/10/25 28/126/24 32/127/28 37/128/35
f 13/88/4 14/2/3 15/4/8 16/124/5
f 19/86/15 20/6/7 21/7/6 22/125/16
f 25/83/23 26/9/18 27/11/17 28/126/24
f 29/12/27 30/14/29 31/15/31 32/127/28
f 33/92/33 34/18/32 35/19/39 36/120/36
f 39/20/19 40/22/44 41/94/30 42/13/20
f 43/23/40 44/24/46 45/25/47 46/119/41
f 47/26/11 48/28/52 49/95/45 50/21/12
f 51/29/48 52/30/55 53/32/56 54/118/49
f 57/33/42 58/35/61 59/36/63 60/121/43
f 61/97/65 62/39/64 63/40/71 64/114/68
f 67/41/50 68/43/76 69/99/62 70/34/51
f 71/44/72 72/45/78 73/46/79 74/113/73
f 75/47/59 76/49/84 77/100/77 78/42/60
f 79/50/80 80/51/87 81/53/88 82/112/81
f 85/54/74 86/56/93 87/57/95 88/115/75
f 89/78/97 90/60/96 91/61/103 92/108/100
f 95/63/82 96/65/108 97/82/94 98/55/83
f 99/66/104 100/67/110 101/68/111 102/106/105
f 103/70/91 104/72/116 105/81/109 106/64/92
f 107/73/112 108/74/119 109/76/120 110/104/113
