# This file uses centimeters as units for non-parametric coordinates.

mtllib Wall_HighDistortion_R1.mtl
g default
v 0.000000 -0.000000 -0.021279
v 0.000000 2.400000 0.157068
v 3.000000 2.400000 0.514513
v 3.000000 0.000000 0.357445
v 2.400001 2.400000 0.443024
v 2.400001 -0.000000 0.264677
v 1.800000 2.400000 0.371535
v 1.800000 0.000000 0.216443
v 1.200001 2.400000 0.300046
v 1.200001 -0.000000 0.144954
v 0.600000 2.400000 0.228557
v 0.600000 -0.000000 0.050210
v 3.000000 1.920000 0.514513
v 2.400001 1.920000 0.443024
v 1.800000 1.920000 0.371535
v 1.200001 1.920000 0.300046
v 0.600000 1.920000 0.228557
v 0.000000 1.920000 0.157068
v 3.000000 1.440000 0.397462
v 2.400001 1.440000 0.304957
v 1.800000 1.440000 0.255535
v 1.200001 1.440000 0.184046
v 0.600000 1.440000 0.090490
v 0.000000 1.440000 0.019001
v 3.000000 0.960000 0.351947
v 2.400001 0.960000 0.208627
v 1.804808 1.093130 0.225016
v 1.205039 1.076500 0.153527
v 0.600000 0.960000 -0.005840
v 0.000000 0.960000 -0.083521
v 3.000000 0.480000 0.351947
v 2.400001 0.480000 0.208627
v 1.818111 0.613314 0.225016
v 1.218343 0.596684 0.153527
v 0.600000 0.480000 -0.005840
v 0.000000 0.480000 -0.083521
vt 0.177159 0.329030
vt 0.177159 0.455596
vt 0.018951 0.455596
vt 0.018951 0.329030
vt 0.335367 0.329030
vt 0.340203 0.486363
vt 0.177159 0.582162
vt 0.018951 0.582162
vt 0.493575 0.329030
vt 0.498350 0.490748
vt 0.336695 0.612881
vt 0.177159 0.708728
vt 0.018951 0.708728
vt 0.651783 0.329030
vt 0.651783 0.455596
vt 0.494842 0.617266
vt 0.335367 0.708728
vt 0.177159 0.835294
vt 0.018951 0.835294
vt 0.809990 0.455596
vt 0.809990 0.329030
vt 0.651782 0.582162
vt 0.493575 0.708728
vt 0.335367 0.835294
vt 0.177159 0.961861
vt 0.018951 0.961861
vt 0.809990 0.582162
vt 0.651783 0.708728
vt 0.493575 0.835294
vt 0.335367 0.961861
vt 0.809990 0.708728
vt 0.651783 0.835294
vt 0.493575 0.961861
vt 0.809990 0.835294
vt 0.651783 0.961861
vt 0.809990 0.961861
vn -0.168967 0.081210 0.982270
vn -0.178537 0.042676 0.983007
vn -0.125660 0.060685 0.990216
vn -0.122447 0.121374 0.985025
vn -0.212693 0.031333 0.976617
vn -0.105903 0.028945 0.993955
vn -0.104306 0.053078 0.993128
vn -0.192659 0.062782 0.979255
vn -0.058400 0.006308 0.998273
vn -0.074014 0.014481 0.997152
vn -0.173151 0.005733 0.984879
vn -0.162429 0.017440 0.986566
vn -0.118312 0.000000 0.992977
vn -0.118312 0.000000 0.992977
vn -0.117268 -0.130548 0.984482
vn -0.125727 -0.129515 0.983575
vn -0.112837 -0.124875 0.985735
vn -0.118311 0.000000 0.992977
vn -0.121774 -0.124545 0.984713
vn -0.118311 0.000000 0.992977
vn -0.121766 -0.135642 0.983247
vn -0.118311 0.000000 0.992977
vn -0.117099 -0.142803 0.982800
vn -0.118311 0.000000 0.992977
vn -0.119339 -0.203678 0.971738
vn -0.160534 -0.200716 0.966407
vn -0.094016 -0.190895 0.977098
vn -0.138639 -0.189394 0.972064
vn -0.137770 -0.221876 0.965293
vn -0.117414 -0.237817 0.964187
vn -0.111935 -0.066467 0.991490
vn -0.212015 -0.072498 0.974573
vn -0.064017 -0.061612 0.996045
vn -0.172232 -0.059587 0.983253
vn -0.175462 -0.082455 0.981027
vn -0.125253 -0.101335 0.986936
s 1
g Wall_HighDistorition_R1 Wall_HighDistorition
usemtl lambert1SG
f 12/1/1 35/2/2 36/3/3 1/4/4
f 31/20/5 32/15/6 6/14/7 4/21/8
f 6/14/7 32/15/6 33/10/9 8/9/10
f 8/9/10 33/10/9 34/6/11 10/5/12
f 10/5/12 34/6/11 35/2/2 12/1/1
f 3/36/13 5/35/14 14/32/15 13/34/16
f 15/29/17 14/32/15 5/35/14 7/33/18
f 16/24/19 15/29/17 7/33/18 9/30/20
f 17/18/21 16/24/19 9/30/20 11/25/22
f 18/19/23 17/18/21 11/25/22 2/26/24
f 13/34/16 14/32/15 20/28/25 19/31/26
f 21/23/27 20/28/25 14/32/15 15/29/17
f 22/17/28 21/23/27 15/29/17 16/24/19
f 23/12/29 22/17/28 16/24/19 17/18/21
f 24/13/30 23/12/29 17/18/21 18/19/23
f 19/31/26 20/28/25 26/22/31 25/27/32
f 27/16/33 26/22/31 20/28/25 21/23/27
f 28/11/34 27/16/33 21/23/27 22/17/28
f 29/7/35 28/11/34 22/17/28 23/12/29
f 30/8/36 29/7/35 23/12/29 24/13/30
f 25/27/32 26/22/31 32/15/6 31/20/5
f 33/10/9 32/15/6 26/22/31 27/16/33
f 34/6/11 33/10/9 27/16/33 28/11/34
f 35/2/2 34/6/11 28/11/34 29/7/35
f 36/3/3 35/2/2 29/7/35 30/8/36
