# This file uses centimeters as units for non-parametric coordinates.

mtllib Wall_SlightDistortion_R1.mtl
g default
v 0.000000 -0.000000 0.000000
v 0.000000 2.400000 0.000000
v 3.000000 2.400000 0.059872
v 3.000000 -0.000000 0.059872
v 2.000000 2.400000 0.000554
v 2.000000 -0.000000 0.000554
v 1.000000 2.400000 0.000000
v 1.000000 -0.000000 0.000000
v 1.000000 1.600000 -0.038252
v 0.000000 1.600000 0.000000
v 3.000000 1.600000 0.059872
v 2.000000 1.600000 -0.037698
v 1.000000 0.800000 -0.041052
v 0.000000 0.800000 0.000000
v 3.000000 0.800000 0.059872
v 2.000000 0.800000 0.000554
vt 0.280172 0.329030
vt 0.280172 0.538007
vt 0.018951 0.538007
vt 0.018951 0.329030
vt 0.541394 0.329030
vt 0.541394 0.538007
vt 0.280172 0.746984
vt 0.018951 0.746984
vt 0.802615 0.538007
vt 0.802615 0.329030
vt 0.541394 0.746984
vt 0.280172 0.955961
vt 0.018951 0.955961
vt 0.802615 0.746984
vt 0.541394 0.955961
vt 0.802615 0.955961
vn -0.000277 0.025649 0.999671
vn 0.004507 0.017923 0.999829
vn 0.030073 0.011947 0.999476
vn 0.020515 0.025643 0.999461
vn -0.068713 0.011925 0.997565
vn -0.044950 0.017911 0.998829
vn -0.040163 0.012817 0.999111
vn -0.059213 0.000000 0.998245
vn 0.009283 -0.012823 0.999875
vn 0.009280 -0.035837 0.999315
vn 0.019117 -0.023896 0.999532
vn 0.029374 -0.012822 0.999486
vn -0.078181 -0.023828 0.996654
vn -0.039478 -0.035799 0.998579
vn -0.044535 -0.006417 0.998987
vn -0.078203 0.000000 0.996937
s 1
g Wall_SlightDistortion_R1 Wall_SlightDistortion
usemtl lambert1SG
f 8/1/1 13/2/2 14/3/3 1/4/4
f 15/9/5 16/6/6 6/5/7 4/10/8
f 6/5/7 16/6/6 13/2/2 8/1/1
f 9/7/9 7/12/10 2/13/11 10/8/12
f 3/16/13 5/15/14 12/11/15 11/14/16
f 9/7/9 12/11/15 5/15/14 7/12/10
f 13/2/2 9/7/9 10/8/12 14/3/3
f 11/14/16 12/11/15 16/6/6 15/9/5
f 13/2/2 16/6/6 12/11/15 9/7/9
