# This file uses centimeters as units for non-parametric coordinates.

mtllib Wall_SlightDistortion_L1.mtl
g default
v 0.000000 -0.000000 0.000000
v 0.000000 2.400000 0.000000
v 0.000000 2.400000 -0.200000
v 0.000000 -0.000000 -0.200000
v 3.000000 2.400000 0.059872
v 3.000000 2.400000 -0.140544
v 3.000000 -0.000000 -0.140544
v 3.000000 -0.000000 0.059872
v 2.000000 2.400000 0.000554
v 2.000000 2.400000 -0.199819
v 2.000000 -0.000000 -0.199819
v 2.000000 -0.000000 0.000554
v 1.000000 2.400000 0.000000
v 1.000000 2.400000 -0.200000
v 1.000000 -0.000000 -0.200000
v 1.000000 -0.000000 0.000000
v 1.000000 1.600000 -0.038252
v 0.000000 1.600000 -0.038252
v 0.000000 1.600000 -0.232195
v 1.000000 1.600000 -0.232195
v 2.000000 1.600000 -0.231991
v 3.000000 1.600000 -0.172716
v 3.000000 1.600000 0.021620
v 2.000000 1.600000 -0.037698
v 1.000000 0.800000 -0.041052
v 0.000000 0.800000 0.000000
v 0.000000 0.800000 -0.200000
v 1.000000 0.800000 -0.234551
v 2.000000 0.800000 -0.199819
v 3.000000 0.800000 -0.140544
v 3.000000 0.800000 0.059872
v 2.000000 0.800000 0.000554
vt 0.402778 0.000000
vt 0.402778 0.083333
vt 0.375000 0.083333
vt 0.375000 0.000000
vt 0.375000 0.500000
vt 0.375000 0.250000
vt 0.402778 0.250000
vt 0.402778 0.500000
vt 0.375000 0.750000
vt 0.375000 0.666667
vt 0.402778 0.666667
vt 0.402778 0.750000
vt 0.375000 1.000000
vt 0.402778 1.000000
vt 0.125000 0.000000
vt 0.125000 0.083333
vt 0.458333 0.750000
vt 0.458333 1.000000
vt 0.458333 0.750000
vt 0.458333 0.666667
vt 0.430556 0.500000
vt 0.430556 0.250000
vt 0.458333 0.250000
vt 0.458333 0.500000
vt 0.430556 0.750000
vt 0.430556 0.666667
vt 0.430556 1.000000
vt 0.458333 0.083333
vt 0.430556 0.083333
vt 0.430556 0.000000
vt 0.458333 0.000000
vt 0.402778 0.166667
vt 0.375000 0.166667
vt 0.125000 0.166667
vt 0.125000 0.250000
vt 0.402778 0.583333
vt 0.375000 0.583333
vt 0.430556 0.583333
vt 0.458333 0.583333
vt 0.458333 0.500000
vt 0.430556 0.166667
vt 0.458333 0.166667
vn -0.000277 0.025649 0.999671
vn -0.000277 0.023900 0.999714
vn 0.020516 0.023897 0.999504
vn 0.020515 0.025643 0.999461
vn 0.000000 1.000000 0.000000
vn 0.000000 1.000000 0.000000
vn 0.000000 1.000000 0.000000
vn 0.000000 1.000000 0.000000
vn -0.017269 -0.021586 -0.999618
vn -0.017270 -0.020116 -0.999649
vn 0.000093 -0.020113 -0.999798
vn 0.000090 -0.021590 -0.999767
vn 0.000000 -1.000000 0.000000
vn 0.000000 -1.000000 0.000000
vn 0.000000 -1.000000 0.000000
vn 0.000000 -1.000000 0.000000
vn -1.000000 0.000000 0.000000
vn -1.000000 0.000000 0.000000
vn -1.000000 0.000000 0.000000
vn -1.000000 0.000000 0.000000
vn 1.000000 0.000000 0.000000
vn 1.000000 0.000000 0.000000
vn 1.000000 0.000000 0.000000
vn 1.000000 0.000000 0.000000
vn 0.000000 1.000000 0.000000
vn 0.000000 1.000000 0.000000
vn 0.000000 1.000000 0.000000
vn 0.000000 1.000000 0.000000
vn 0.038335 -0.010789 -0.999207
vn 0.038345 -0.020100 -0.999062
vn 0.059159 -0.020053 -0.998047
vn 0.059171 0.000000 -0.998248
vn 0.000000 -1.000000 0.000000
vn 0.000000 -1.000000 0.000000
vn 0.000000 -1.000000 0.000000
vn 0.000000 -1.000000 0.000000
vn -0.059197 0.023837 0.997962
vn -0.040169 0.023893 0.998907
vn -0.040163 0.012817 0.999111
vn -0.059213 0.000000 0.998245
vn -0.000277 -0.012827 0.999918
vn -0.000277 -0.047761 0.998859
vn 0.000000 -0.047761 0.998859
vn 0.010261 -0.012827 0.999865
vn -1.000000 0.000000 0.000000
vn -1.000000 0.000000 0.000000
vn -1.000000 0.000000 0.000000
vn -1.000000 0.000000 0.000000
vn 0.000096 0.010797 -0.999942
vn -0.008637 0.010796 -0.999904
vn -0.000000 0.040211 -0.999191
vn 0.000096 0.040204 -0.999191
vn 0.034013 0.005400 -0.999407
vn 0.029719 0.040171 -0.998751
vn 0.059171 -0.000000 -0.998248
vn 0.059123 0.040111 -0.997445
vn 1.000000 0.000000 0.000000
vn 1.000000 0.000000 0.000000
vn 1.000000 0.000000 0.000000
vn 1.000000 0.000000 0.000000
vn -0.059146 -0.047677 0.997110
vn -0.029915 -0.047739 0.998412
vn -0.035023 -0.006416 0.999366
vn -0.059213 0.000000 0.998245
s 1
g Wall_SlightDistortion_L1 Wall_SlightDistortion
usemtl initialShadingGroup
f 16/1/1 25/2/2 26/3/3 1/4/4
s 2
f 3/5/5 2/6/6 13/7/7 14/8/8
s 3
f 4/9/9 27/10/10 28/11/11 15/12/12
s 4
f 1/13/13 4/9/14 15/12/15 16/14/16
s 5
f 4/15/17 1/4/18 26/3/19 27/16/20
s 6
f 31/17/21 8/18/22 7/19/23 30/20/24
s 2
f 10/21/25 9/22/26 5/23/27 6/24/28
s 3
f 11/25/29 29/26/30 30/20/31 7/19/32
s 4
f 12/27/33 11/25/34 7/19/35 8/18/36
s 1
f 31/28/37 32/29/38 12/30/39 8/31/40
s 2
f 14/8/8 13/7/7 9/22/26 10/21/25
s 3
f 15/12/12 28/11/11 29/26/30 11/25/29
s 4
f 16/14/16 15/12/15 11/25/34 12/27/33
s 1
f 12/30/39 32/29/38 25/2/2 16/1/1
f 17/32/41 13/7/42 2/6/43 18/33/44
s 5
f 19/34/45 18/33/46 2/6/47 3/35/48
s 3
f 20/36/49 19/37/50 3/5/51 14/8/52
f 21/38/53 20/36/49 14/8/52 10/21/54
f 22/39/55 21/38/53 10/21/54 6/24/56
s 6
f 5/23/57 23/40/58 22/39/59 6/24/60
s 1
f 5/23/61 9/22/62 24/41/63 23/42/64
f 17/32/41 24/41/63 9/22/62 13/7/42
f 25/2/2 17/32/41 18/33/44 26/3/3
s 5
f 27/16/20 26/3/19 18/33/46 19/34/45
s 3
f 28/11/11 27/10/10 19/37/50 20/36/49
f 29/26/30 28/11/11 20/36/49 21/38/53
f 30/20/31 29/26/30 21/38/53 22/39/55
s 6
f 23/40/58 31/17/21 30/20/24 22/39/59
s 1
f 23/42/64 24/41/63 32/29/38 31/28/37
f 25/2/2 32/29/38 24/41/63 17/32/41
