# This file uses centimeters as units for non-parametric coordinates.

mtllib Wall_HighDistorition_L2.mtl
g default
v -3.000000 -0.000000 0.357445
v -3.000000 2.400000 0.514513
v -3.000000 2.400000 0.314513
v -3.000000 -0.000000 0.157445
v 0.000000 2.400000 0.157068
v 0.000000 2.400000 -0.042932
v 0.000000 -0.000000 -0.221279
v 0.000000 -0.000000 -0.021279
v -0.600000 2.400000 0.228557
v -0.600000 2.400000 0.028557
v -0.600000 -0.000000 -0.149790
v -0.600000 -0.000000 0.050210
v -1.200000 2.400000 0.324013
v -1.200000 2.400000 0.124013
v -1.200000 -0.000000 -0.078301
v -1.200000 -0.000000 0.121699
v -1.800000 2.400000 0.395502
v -1.800000 2.400000 0.195502
v -1.800000 -0.000000 -0.006812
v -1.800000 -0.000000 0.193188
v -2.400000 2.400000 0.443024
v -2.400000 2.400000 0.243024
v -2.400000 -0.000000 0.064677
v -2.400000 -0.000000 0.264677
v -0.600000 1.920000 0.234749
v -1.218342 1.803316 0.394116
v -1.818111 1.786686 0.465605
v -2.400000 1.920000 0.449216
v -3.000000 1.920000 0.514513
v -3.000000 1.920000 0.314513
v -2.400000 1.920000 0.249216
v -1.818111 1.786686 0.265605
v -1.218342 1.803316 0.194116
v -0.600000 1.920000 0.034749
v 0.000000 1.920000 -0.042932
v 0.000000 1.920000 0.157068
v -0.600000 1.440000 0.096682
v -1.205038 1.323500 0.256049
v -1.804808 1.306870 0.327538
v -2.400000 1.440000 0.311149
v -3.000000 1.440000 0.397462
v -3.000000 1.440000 0.197462
v -2.400000 1.440000 0.111149
v -1.804808 1.306871 0.127538
v -1.205038 1.323500 0.056049
v -0.600000 1.440000 -0.103318
v 0.000000 1.440000 -0.180999
v 0.000000 1.440000 0.019001
v -0.600000 0.960000 -0.012032
v -1.200000 0.960000 0.081702
v -1.800000 0.960000 0.153191
v -2.400000 0.960000 0.202435
v -3.000000 0.960000 0.351947
v -3.000000 0.960000 0.151947
v -2.400000 0.960000 0.002435
v -1.800000 0.960000 -0.046987
v -1.200000 0.960000 -0.118476
v -0.600000 0.960000 -0.212032
v 0.000000 0.960000 -0.283521
v 0.000000 0.960000 -0.083521
v -0.600000 0.480000 -0.012032
v -1.200000 0.480000 0.059457
v -1.800000 0.480000 0.130946
v -2.400000 0.480000 0.202435
v -3.000000 0.480000 0.351947
v -3.000000 0.480000 0.151947
v -2.400000 0.480000 0.002435
v -1.800000 0.480000 -0.069054
v -1.200000 0.480000 -0.140543
v -0.600000 0.480000 -0.212032
v 0.000000 0.480000 -0.283521
v 0.000000 0.480000 -0.083521
vt 0.391667 0.000000
vt 0.391667 0.050000
vt 0.375000 0.050000
vt 0.375000 0.000000
vt 0.375000 0.500000
vt 0.375000 0.250000
vt 0.391667 0.250000
vt 0.391667 0.500000
vt 0.375000 0.750000
vt 0.375000 0.700000
vt 0.391667 0.700000
vt 0.391667 0.750000
vt 0.375000 1.000000
vt 0.391667 1.000000
vt 0.125000 0.000000
vt 0.125000 0.050000
vt 0.458333 0.850000
vt 0.458333 1.000000
vt 0.458333 0.750000
vt 0.458333 0.700000
vt 0.441667 0.500000
vt 0.441667 0.250000
vt 0.458333 0.250000
vt 0.458333 0.500000
vt 0.441667 0.750000
vt 0.441667 0.700000
vt 0.441667 1.000000
vt 0.458333 0.050000
vt 0.441667 0.050000
vt 0.441667 0.000000
vt 0.458333 0.000000
vt 0.425000 0.500000
vt 0.425000 0.250000
vt 0.425000 0.750000
vt 0.425000 0.700000
vt 0.425000 1.000000
vt 0.425000 0.050000
vt 0.425000 0.000000
vt 0.408333 0.500000
vt 0.408333 0.250000
vt 0.408333 0.750000
vt 0.408333 0.700000
vt 0.408333 1.000000
vt 0.408333 0.050000
vt 0.408333 0.000000
vt 0.441667 0.200000
vt 0.425000 0.200000
vt 0.408333 0.200000
vt 0.391667 0.200000
vt 0.375000 0.200000
vt 0.125000 0.200000
vt 0.125000 0.250000
vt 0.391667 0.550000
vt 0.375000 0.550000
vt 0.408333 0.550000
vt 0.425000 0.550000
vt 0.441667 0.550000
vt 0.458333 0.550000
vt 0.458333 0.400000
vt 0.458333 0.200000
vt 0.441667 0.150000
vt 0.425000 0.150000
vt 0.408333 0.150000
vt 0.391667 0.150000
vt 0.375000 0.150000
vt 0.125000 0.150000
vt 0.391667 0.600000
vt 0.375000 0.600000
vt 0.408333 0.600000
vt 0.425000 0.600000
vt 0.441667 0.600000
vt 0.458333 0.600000
vt 0.458333 0.550000
vt 0.458333 0.150000
vt 0.441667 0.100000
vt 0.425000 0.100000
vt 0.408333 0.100000
vt 0.391667 0.100000
vt 0.375000 0.100000
vt 0.125000 0.100000
vt 0.391667 0.650000
vt 0.375000 0.650000
vt 0.408333 0.650000
vt 0.425000 0.650000
vt 0.441667 0.650000
vt 0.458333 0.650000
vt 0.458333 0.700000
vt 0.458333 0.100000
vn 0.158171 0.098045 0.982532
vn 0.164968 0.043691 0.985331
vn 0.219867 0.034426 0.974922
vn 0.197435 0.069001 0.977885
vn 0.000000 1.000000 0.000000
vn 0.000000 1.000000 0.000000
vn 0.000000 1.000000 0.000000
vn 0.000000 1.000000 0.000000
vn -0.197435 -0.069001 -0.977885
vn -0.219867 -0.034426 -0.974922
vn -0.165003 -0.043737 -0.985323
vn -0.158171 -0.098045 -0.982532
vn 0.000000 -1.000000 0.000000
vn 0.000000 -1.000000 0.000000
vn 0.000000 -1.000000 0.000000
vn 0.000000 -1.000000 0.000000
vn -1.000000 0.000000 0.000000
vn -1.000000 0.000000 0.000000
vn -1.000000 0.000000 0.000000
vn -1.000000 0.000000 0.000000
vn 1.000000 0.000000 0.000000
vn 1.000000 0.000000 0.000000
vn 1.000000 0.000000 0.000000
vn 1.000000 0.000000 0.000000
vn 0.000000 1.000000 0.000000
vn 0.000000 1.000000 0.000000
vn 0.000000 1.000000 0.000000
vn 0.000000 1.000000 0.000000
vn -0.117343 -0.127705 -0.984846
vn -0.122598 -0.058540 -0.990728
vn -0.118069 -0.063935 -0.990945
vn -0.117343 -0.127705 -0.984846
vn 0.000000 -1.000000 0.000000
vn 0.000000 -1.000000 0.000000
vn 0.000000 -1.000000 0.000000
vn 0.000000 -1.000000 0.000000
vn 0.118069 0.063935 0.990945
vn 0.122635 0.058494 0.990727
vn 0.117343 0.127705 0.984846
vn 0.117343 0.127705 0.984846
vn 0.000000 1.000000 0.000000
vn 0.000000 1.000000 0.000000
vn -0.117343 -0.127705 -0.984846
vn -0.122687 -0.047202 -0.991322
vn 0.000000 -1.000000 0.000000
vn 0.000000 -1.000000 0.000000
vn 0.122725 0.047064 0.991324
vn 0.117343 0.127705 0.984846
vn 0.000000 1.000000 0.000000
vn 0.000000 1.000000 0.000000
vn -0.117343 -0.127705 -0.984846
vn -0.113695 -0.047213 -0.992393
vn 0.000000 -1.000000 0.000000
vn 0.000000 -1.000000 0.000000
vn 0.113660 0.047075 0.992404
vn 0.117343 0.127705 0.984846
vn 0.187861 -0.106772 0.976375
vn 0.163610 0.038294 0.985782
vn 0.156624 0.088882 0.983651
vn 0.183041 -0.085373 0.979391
vn 0.045157 -0.092738 0.994666
vn 0.078744 0.091873 0.992652
vn 0.049684 -0.100599 0.993686
vn 0.071470 0.039556 0.996658
vn 0.118298 -0.126585 0.984877
vn 0.113252 0.006409 0.993546
vn -1.000000 0.000000 0.000000
vn -1.000000 0.000000 0.000000
vn -1.000000 0.000000 0.000000
vn -1.000000 0.000000 0.000000
vn -0.049684 0.100599 -0.993686
vn -0.118298 0.126585 -0.984877
vn -0.113252 -0.006408 -0.993546
vn -0.071470 -0.039556 -0.996658
vn -0.045157 0.092738 -0.994666
vn -0.078744 -0.091873 -0.992652
vn -0.183041 0.085373 -0.979391
vn -0.156624 -0.088882 -0.983651
vn -0.187861 0.106772 -0.976375
vn -0.163610 -0.038294 -0.985782
vn -0.124672 0.139722 -0.982311
vn -0.123356 -0.006401 -0.992342
vn 1.000000 0.000000 0.000000
vn 1.000000 0.000000 0.000000
vn 1.000000 0.000000 0.000000
vn 1.000000 0.000000 0.000000
vn 0.123356 0.006401 0.992342
vn 0.124672 -0.139722 0.982311
vn 0.192191 -0.263842 0.945225
vn 0.191505 -0.315532 0.929390
vn 0.035357 -0.324160 0.945341
vn 0.053503 -0.250695 0.966587
vn 0.155434 -0.206705 0.965978
vn -1.000000 -0.000000 0.000000
vn -1.000000 -0.000000 0.000000
vn -0.053526 0.250732 -0.966576
vn -0.155434 0.206705 -0.965978
vn -0.035389 0.324295 -0.945294
vn -0.191468 0.315668 -0.929351
vn -0.192165 0.263882 -0.945219
vn -0.122039 0.243588 -0.962170
vn 1.000000 0.000000 0.000000
vn 1.000000 0.000000 0.000000
vn 0.122039 -0.243588 0.962170
vn 0.149562 -0.135159 0.979471
vn 0.152133 -0.193690 0.969196
vn 0.083500 -0.198230 0.976592
vn 0.136043 -0.121904 0.983174
vn 0.216667 -0.078728 0.973066
vn -1.000000 -0.000000 0.000000
vn -1.000000 -0.000000 0.000000
vn -0.136106 0.121905 -0.983166
vn -0.216667 0.078728 -0.973066
vn -0.083572 0.198229 -0.976586
vn -0.152064 0.193687 -0.969207
vn -0.149499 0.135161 -0.979480
vn -0.120113 0.107716 -0.986899
vn 1.000000 0.000000 0.000000
vn 1.000000 0.000000 0.000000
vn 0.120113 -0.107716 0.986899
s 1
g Wall_HighDistorition_L2 Wall_HighDistorition
usemtl initialShadingGroup
f 24/1/1 64/2/2 65/3/3 1/4/4
s 2
f 3/5/5 2/6/6 21/7/7 22/8/8
s 3
f 4/9/9 66/10/10 67/11/11 23/12/12
s 4
f 1/13/13 4/9/14 23/12/15 24/14/16
s 5
f 4/15/17 1/4/18 65/3/19 66/16/20
s 6
f 72/17/21 8/18/22 7/19/23 71/20/24
s 2
f 10/21/25 9/22/26 5/23/27 6/24/28
s 3
f 11/25/29 70/26/30 71/20/31 7/19/32
s 4
f 12/27/33 11/25/34 7/19/35 8/18/36
s 1
f 72/28/37 61/29/38 12/30/39 8/31/40
s 2
f 14/32/41 13/33/42 9/22/26 10/21/25
s 3
f 15/34/43 69/35/44 70/26/30 11/25/29
s 4
f 16/36/45 15/34/46 11/25/34 12/27/33
s 1
f 12/30/39 61/29/38 62/37/47 16/38/48
s 2
f 18/39/49 17/40/50 13/33/42 14/32/41
s 3
f 19/41/51 68/42/52 69/35/44 15/34/43
s 4
f 20/43/53 19/41/54 15/34/46 16/36/45
s 1
f 16/38/48 62/37/47 63/44/55 20/45/56
s 2
f 22/8/8 21/7/7 17/40/50 18/39/49
s 3
f 23/12/12 67/11/11 68/42/52 19/41/51
s 4
f 24/14/16 23/12/15 19/41/54 20/43/53
s 1
f 20/45/56 63/44/55 64/2/2 24/1/1
f 25/46/57 9/22/58 13/33/59 26/47/60
f 27/48/61 26/47/60 13/33/59 17/40/62
f 28/49/63 27/48/61 17/40/62 21/7/64
f 29/50/65 28/49/63 21/7/64 2/6/66
s 5
f 30/51/67 29/50/68 2/6/69 3/52/70
s 3
f 31/53/71 30/54/72 3/5/73 22/8/74
f 32/55/75 31/53/71 22/8/74 18/39/76
f 33/56/77 32/55/75 18/39/76 14/32/78
f 34/57/79 33/56/77 14/32/78 10/21/80
f 35/58/81 34/57/79 10/21/80 6/24/82
s 6
f 5/23/83 36/59/84 35/58/85 6/24/86
s 1
f 5/23/87 9/22/58 25/46/57 36/60/88
f 37/61/89 25/46/57 26/47/60 38/62/90
f 39/63/91 38/62/90 26/47/60 27/48/61
f 40/64/92 39/63/91 27/48/61 28/49/63
f 41/65/93 40/64/92 28/49/63 29/50/65
s 5
f 42/66/94 41/65/95 29/50/68 30/51/67
s 3
f 43/67/96 42/68/97 30/54/72 31/53/71
f 44/69/98 43/67/96 31/53/71 32/55/75
f 45/70/99 44/69/98 32/55/75 33/56/77
f 46/71/100 45/70/99 33/56/77 34/57/79
f 47/72/101 46/71/100 34/57/79 35/58/81
s 6
f 36/59/84 48/73/102 47/72/103 35/58/85
s 1
f 36/60/88 25/46/57 37/61/89 48/74/104
f 49/75/105 37/61/89 38/62/90 50/76/106
f 51/77/107 50/76/106 38/62/90 39/63/91
f 52/78/108 51/77/107 39/63/91 40/64/92
f 53/79/109 52/78/108 40/64/92 41/65/93
s 5
f 54/80/110 53/79/111 41/65/95 42/66/94
s 3
f 55/81/112 54/82/113 42/68/97 43/67/96
f 56/83/114 55/81/112 43/67/96 44/69/98
f 57/84/115 56/83/114 44/69/98 45/70/99
f 58/85/116 57/84/115 45/70/99 46/71/100
f 59/86/117 58/85/116 46/71/100 47/72/101
s 6
f 48/73/102 60/87/118 59/86/119 47/72/103
s 1
f 48/74/104 37/61/89 49/75/105 60/88/120
f 61/29/38 49/75/105 50/76/106 62/37/47
f 63/44/55 62/37/47 50/76/106 51/77/107
f 64/2/2 63/44/55 51/77/107 52/78/108
f 65/3/3 64/2/2 52/78/108 53/79/109
s 5
f 66/16/20 65/3/19 53/79/111 54/80/110
s 3
f 67/11/11 66/10/10 54/82/113 55/81/112
f 68/42/52 67/11/11 55/81/112 56/83/114
f 69/35/44 68/42/52 56/83/114 57/84/115
f 70/26/30 69/35/44 57/84/115 58/85/116
f 71/20/31 70/26/30 58/85/116 59/86/117
s 6
f 60/87/118 72/17/21 71/20/24 59/86/119
s 1
f 60/88/120 49/75/105 61/29/38 72/28/37
