# This file uses centimeters as units for non-parametric coordinates.

mtllib Wall_HighDistortion_R1.mtl
g default
v 0.000000 2.400000 0.000000
v 0.000000 -0.000000 0.000000
v 3.000000 2.400000 -0.126724
v 3.000000 -0.000000 -0.126724
v 0.000000 1.879139 -0.039487
v 0.000000 1.720861 -0.039487
v 0.000000 1.279139 -0.000887
v 0.000000 1.120861 -0.000887
v 0.000000 0.679139 -0.032939
v 0.000000 0.520861 -0.032939
v 3.000000 1.879139 -0.102495
v 3.000000 1.720861 -0.102495
v 2.703687 1.720835 -0.084517
v 2.703661 1.879139 -0.084514
v 2.545972 1.879165 -0.070933
v 2.545972 1.720835 -0.070933
v 3.000000 1.279139 -0.126724
v 3.000000 1.120861 -0.134360
v 2.702260 1.121185 -0.098042
v 2.703748 1.279226 -0.090852
v 2.545972 1.279165 -0.084867
v 2.544537 1.121181 -0.093160
v 3.000000 0.681392 -0.141088
v 3.000000 0.518608 -0.141088
v 2.696280 0.591788 -0.122087
v 2.696289 0.754278 -0.120127
v 2.538132 0.774141 -0.129807
v 2.537663 0.616283 -0.131576
v 2.296278 0.783367 -0.147790
v 2.139848 0.749321 -0.126084
v 2.140409 0.557481 -0.132006
v 2.294667 0.625078 -0.150778
v 1.987556 0.448182 -0.091514
v 1.981884 0.637188 -0.090591
v 1.831181 0.574664 -0.057502
v 1.829595 0.415752 -0.056356
v 2.329142 -0.000000 -0.091268
v 2.171351 -0.000000 -0.082395
v 2.329238 1.279375 -0.088131
v 2.171423 1.279180 -0.079261
v 2.164719 1.121607 -0.094199
v 2.323084 1.121568 -0.103090
v 1.958245 1.120789 -0.058149
v 1.953544 1.279146 -0.052216
v 1.795778 1.279241 -0.040734
v 1.800113 1.120803 -0.046634
v 2.329002 1.879139 -0.069360
v 2.171423 1.879180 -0.060493
v 2.171464 1.720861 -0.060498
v 2.329002 1.720861 -0.069360
v 1.953637 1.720759 -0.033460
v 1.953536 1.879139 -0.033448
v 1.795778 1.879241 -0.021966
v 1.795778 1.720759 -0.021966
v 2.171423 2.400000 -0.060493
v 2.329043 2.400000 -0.073051
v 1.589930 0.582284 -0.031505
v 1.432350 0.606547 -0.012630
v 1.432447 0.443714 -0.013463
v 1.589304 0.423941 -0.032251
v 1.203897 0.499106 0.014438
v 1.211152 0.660190 0.008167
v 1.054374 0.679185 -0.005178
v 1.045696 0.520588 0.001768
v 1.579345 -0.000000 -0.039143
v 1.421715 -0.000000 -0.024425
v 1.579126 1.279145 -0.035995
v 1.420902 1.299968 -0.031112
v 1.422058 1.137116 -0.032736
v 1.580595 1.120882 -0.037104
v 1.271498 1.172719 -0.025893
v 1.265221 1.336782 -0.024806
v 1.104950 1.322004 -0.026271
v 1.111172 1.157474 -0.026426
v 1.579120 1.879139 -0.017227
v 1.420992 1.886498 -0.010697
v 1.421007 1.727581 -0.010698
v 1.579120 1.720861 -0.017227
v 1.134985 1.752885 -0.013006
v 1.117158 1.913393 -0.007445
v 0.956439 1.903110 -0.013489
v 0.973328 1.742993 -0.020802
v 1.421729 2.400000 -0.002517
v 1.579321 2.400000 -0.017232
v 0.844697 0.679064 -0.039873
v 0.684073 0.679106 -0.048752
v 0.671080 0.520807 -0.053583
v 0.829056 0.520836 -0.045009
v 0.453866 0.520861 -0.035494
v 0.453866 0.679139 -0.035494
v 0.296081 0.679139 -0.023025
v 0.296081 0.520861 -0.023025
v 0.829212 -0.000000 -0.045001
v 0.670954 -0.000000 -0.053572
v 0.901671 1.257006 -0.023503
v 0.739615 1.247325 -0.020939
v 0.757694 1.086617 -0.031881
v 0.918467 1.096974 -0.036230
v 0.454200 1.113437 -0.028586
v 0.454138 1.272408 -0.027772
v 0.296020 1.279200 -0.023021
v 0.296020 1.120800 -0.023021
v 0.763681 1.842345 -0.007828
v 0.603295 1.827756 -0.001346
v 0.610041 1.663272 0.001139
v 0.769753 1.678153 -0.002192
v 0.454147 1.699812 -0.013633
v 0.453935 1.862679 -0.013306
v 0.295870 1.879351 -0.020921
v 0.295870 1.720649 -0.021138
v 0.670363 2.400000 -0.031613
v 0.829708 2.400000 -0.022885
v 0.296081 2.400000 -0.016742
v 0.453866 2.400000 -0.020200
v 0.453866 -0.000000 -0.035494
v 0.296081 -0.000000 -0.023025
v 1.044161 2.400000 0.023468
v 1.204648 2.400000 0.032210
v 1.203531 -0.000000 0.010401
v 1.045504 -0.000000 0.001758
v 1.795778 2.400000 -0.021966
v 1.953637 2.400000 -0.033460
v 1.953932 -0.000000 -0.055407
v 1.795511 -0.000000 -0.043871
v 2.545972 2.400000 -0.079911
v 2.703687 2.400000 -0.090386
v 2.703688 -0.000000 -0.090845
v 2.545969 -0.000000 -0.086238
vt 0.801122 0.796065
vt 0.723673 0.837286
vt 0.723823 0.973009
vt 0.682383 0.837277
vt 0.802079 0.639520
vt 0.724034 0.681067
vt 0.682824 0.681040
vt 0.802387 0.482331
vt 0.723020 0.543933
vt 0.683327 0.346822
vt 0.681760 0.549025
vt 0.618740 0.551101
vt 0.624884 0.639623
vt 0.577802 0.542421
vt 0.578215 0.492692
vt 0.585432 0.347144
vt 0.486837 0.346968
vt 0.535682 0.513378
vt 0.495669 0.496989
vt 0.626167 0.680881
vt 0.625749 0.796006
vt 0.584813 0.680802
vt 0.528633 0.639669
vt 0.527393 0.680927
vt 0.486049 0.680942
vt 0.625767 0.837266
vt 0.626040 0.973027
vt 0.584578 0.837288
vt 0.527214 0.796082
vt 0.527262 0.837337
vt 0.527633 0.973090
vt 0.485966 0.837414
vt 0.432607 0.498878
vt 0.429877 0.639534
vt 0.391324 0.505111
vt 0.391555 0.462586
vt 0.389316 0.346813
vt 0.290578 0.346794
vt 0.333468 0.518881
vt 0.292538 0.523872
vt 0.429440 0.680831
vt 0.429312 0.796161
vt 0.388086 0.686220
vt 0.349051 0.652929
vt 0.347381 0.695797
vt 0.305514 0.691883
vt 0.429372 0.837440
vt 0.430002 0.973254
vt 0.388031 0.839426
vt 0.313333 0.804497
vt 0.308632 0.846428
vt 0.331598 0.973751
vt 0.266584 0.843671
vt 0.237194 0.523921
vt 0.256740 0.632974
vt 0.195290 0.523917
vt 0.191807 0.482615
vt 0.191699 0.346824
vt 0.093771 0.346895
vt 0.135224 0.523973
vt 0.093995 0.523986
vt 0.016814 0.523942
vt 0.252395 0.674858
vt 0.217834 0.784793
vt 0.210052 0.672314
vt 0.135502 0.637268
vt 0.135487 0.678720
vt 0.094224 0.680459
vt 0.016848 0.680348
vt 0.216250 0.827633
vt 0.232744 0.973150
vt 0.174343 0.823661
vt 0.135312 0.790244
vt 0.135219 0.832738
vt 0.134750 0.972844
vt 0.093906 0.837011
vt 0.016549 0.836751
vt 0.135105 0.482686
vt 0.134988 0.346870
vt 0.191201 0.973053
vt 0.176184 0.780850
vt 0.214739 0.630302
vt 0.723084 0.501408
vt 0.724454 0.346789
vt 0.802250 0.346985
vt 0.723891 0.639857
vt 0.802358 0.524822
vt 0.723701 0.796058
vt 0.801847 0.680836
vt 0.801653 0.973134
vt 0.801088 0.837280
vt 0.537477 0.464071
vt 0.528241 0.347012
vt 0.583412 0.639574
vt 0.584541 0.796010
vt 0.584826 0.973034
vt 0.331701 0.476894
vt 0.331796 0.346827
vt 0.388457 0.643727
vt 0.387999 0.797945
vt 0.388805 0.973411
vt 0.093656 0.972778
vt 0.016425 0.972729
vt 0.093957 0.795589
vt 0.016612 0.795635
vt 0.094194 0.639151
vt 0.016775 0.639210
vt 0.093903 0.482708
vt 0.016725 0.482707
vt 0.016389 0.346650
vt 0.289796 0.973626
vt 0.271111 0.801813
vt 0.307150 0.648892
vt 0.290487 0.482491
vt 0.232925 0.482614
vt 0.232959 0.346793
vt 0.486390 0.973133
vt 0.485891 0.796124
vt 0.487226 0.639596
vt 0.495465 0.455454
vt 0.432640 0.457490
vt 0.430530 0.346865
vt 0.682613 0.972999
vt 0.682390 0.796062
vt 0.682730 0.639883
vt 0.681761 0.507847
vt 0.618463 0.510261
vt 0.626743 0.347064
vn 0.082605 -0.025385 0.996259
vn 0.084122 0.022083 0.996211
vn 0.082103 0.018191 0.996458
vn 0.077600 -0.022411 0.996733
vn 0.028197 -0.022878 0.999341
vn 0.016760 -0.039484 0.999080
vn 0.083317 -0.035031 0.995907
vn 0.042631 0.009991 0.999041
vn 0.085973 0.023718 0.996015
vn 0.043331 0.013029 0.998976
vn 0.037038 0.006539 0.999292
vn 0.023126 -0.028937 0.999314
vn 0.098768 -0.039247 0.994336
vn 0.098460 -0.037796 0.994423
vn 0.065810 -0.049787 0.996589
vn -0.031991 -0.089323 0.995489
vn -0.052603 -0.073548 0.995903
vn 0.047915 -0.038028 0.998127
vn 0.017012 -0.050794 0.998564
vn 0.005013 -0.105333 0.994424
vn 0.090331 0.032970 0.995366
vn 0.081111 -0.025525 0.996378
vn 0.044980 0.036566 0.998318
vn -0.043737 0.055970 0.997474
vn -0.034565 0.074572 0.996616
vn 0.057625 0.049369 0.997117
vn 0.012980 -0.086259 0.996188
vn -0.000755 0.059041 0.998255
vn 0.182469 -0.070145 0.980706
vn 0.150778 -0.087491 0.984688
vn 0.127675 0.062893 0.989820
vn 0.191177 -0.035764 0.980904
vn 0.166850 0.056622 0.984355
vn 0.109958 0.089683 0.989882
vn -0.005959 0.087422 0.996154
vn 0.112036 0.017041 0.993558
vn 0.093788 0.019459 0.995402
vn 0.148827 0.066131 0.986650
vn 0.117995 -0.008886 0.992974
vn 0.163289 -0.052927 0.985158
vn 0.092185 -0.016898 0.995599
vn 0.084760 0.005701 0.996385
vn 0.088673 -0.006318 0.996041
vn 0.098287 -0.051988 0.993799
vn 0.095213 -0.031132 0.994970
vn 0.105290 -0.044958 0.993425
vn 0.044826 -0.038371 0.998258
vn 0.101940 -0.031095 0.994304
vn 0.043243 -0.031234 0.998576
vn 0.027264 -0.035644 0.998993
vn 0.066941 0.004096 0.997749
vn 0.098924 0.001134 0.995094
vn 0.039816 0.008528 0.999171
vn 0.100049 0.001479 0.994981
vn 0.102024 -0.000000 0.994782
vn 0.043298 -0.000000 0.999062
vn 0.102031 0.000002 0.994781
vn 0.043298 0.000002 0.999062
vn 0.038052 -0.002502 0.999273
vn 0.027185 -0.032187 0.999112
vn 0.089620 0.028130 0.995579
vn 0.072216 0.029249 0.996960
vn 0.122985 -0.013404 0.992318
vn 0.029758 0.047221 0.998441
vn 0.038073 -0.001039 0.999274
vn 0.124417 -0.019526 0.992038
vn 0.080668 -0.007808 0.996710
vn -0.151655 0.006472 0.988412
vn -0.152394 -0.001617 0.988319
vn 0.048946 -0.011627 0.998734
vn -0.097028 0.043268 0.994341
vn 0.027456 0.037864 0.998906
vn -0.053580 0.028237 0.998164
vn -0.086068 0.006256 0.996270
vn -0.141819 -0.000258 0.989893
vn 0.022162 -0.032721 0.999219
vn 0.015339 -0.031735 0.999379
vn -0.001867 -0.028828 0.999583
vn 0.013262 -0.021028 0.999691
vn -0.012664 -0.030587 0.999452
vn 0.023169 -0.019523 0.999541
vn 0.032935 -0.033858 0.998884
vn -0.060329 0.000015 0.998179
vn 0.054300 -0.029104 0.998100
vn 0.040827 -0.003341 0.999161
vn 0.068753 -0.036219 0.996976
vn 0.012799 -0.052894 0.998518
vn -0.060903 -0.025895 0.997808
vn 0.033041 -0.059104 0.997705
vn -0.071939 -0.037181 0.996716
vn -0.022306 0.017854 0.999592
vn 0.041888 -0.018287 0.998955
vn 0.015633 -0.026603 0.999524
vn 0.009707 -0.033640 0.999387
vn 0.024357 -0.005091 0.999690
vn 0.048261 -0.019235 0.998650
vn 0.079411 -0.002504 0.996839
vn 0.025348 0.000007 0.999679
vn -0.146160 0.000010 0.989261
vn 0.033437 0.015809 0.999316
vn 0.041871 0.020604 0.998911
vn 0.081217 -0.000000 0.996696
vn 0.025888 -0.019460 0.999475
vn 0.029879 -0.022864 0.999292
vn 0.040098 -0.019723 0.999001
vn 0.006340 -0.026692 0.999624
vn 0.009163 0.024234 0.999664
vn -0.008655 -0.048047 0.998808
vn -0.028899 -0.036027 0.998933
vn -0.024270 -0.033903 0.999130
vn 0.016162 0.014918 0.999758
vn -0.042700 -0.025916 0.998752
vn -0.015131 0.015638 0.999763
vn 0.024494 0.030542 0.999233
vn 0.034926 -0.026660 0.999034
vn -0.009975 0.031467 0.999455
vn -0.060541 0.013845 0.998070
vn -0.003658 0.037290 0.999298
vn -0.016249 0.017100 0.999722
vn -0.018136 -0.020099 0.999633
vn -0.004931 0.019518 0.999797
vn -0.006565 -0.026274 0.999633
vn -0.016933 -0.032254 0.999336
vn -0.011811 0.030364 0.999469
vn 0.096020 0.041488 0.994514
vn 0.091232 0.028761 0.995414
vn -0.003063 -0.041887 0.999118
vn 0.022126 0.031596 0.999256
s 1
g Wall_HighDistortion_R1 Wall_HighDistorition
usemtl lambert1SG
f 12/1/1 11/91/2 14/2/3 13/88/4
f 13/88/4 16/124/5 21/7/6 20/6/7
f 15/4/8 14/2/3 126/3/9 125/123/10
f 16/124/5 15/4/8 47/26/11 50/21/12
f 18/5/13 17/89/14 20/6/7 19/86/15
f 19/86/15 22/125/16 27/11/17 26/9/18
f 22/125/16 21/7/6 39/20/19 42/13/20
f 24/8/21 23/87/22 26/9/18 25/83/23
f 25/83/23 28/126/24 128/10/25 127/84/26
f 28/126/24 27/11/17 29/12/27 32/127/28
f 30/14/29 29/12/27 42/13/20 41/94/30
f 31/15/31 30/14/29 34/18/32 33/92/33
f 32/127/28 31/15/31 38/16/34 37/128/35
f 33/92/33 36/120/36 124/17/37 123/93/38
f 35/19/39 34/18/32 43/23/40 46/119/41
f 36/120/36 35/19/39 57/33/42 60/121/43
f 40/22/44 39/20/19 50/21/12 49/95/45
f 41/94/30 40/22/44 44/24/46 43/23/40
f 45/25/47 44/24/46 51/29/48 54/118/49
f 46/119/41 45/25/47 67/41/50 70/34/51
f 48/28/52 47/26/11 56/27/53 55/96/54
f 49/95/45 48/28/52 52/30/55 51/29/48
f 53/32/56 52/30/55 122/31/57 121/117/58
f 54/118/49 53/32/56 75/47/59 78/42/60
f 58/35/61 57/33/42 70/34/51 69/99/62
f 59/36/63 58/35/61 62/39/64 61/97/65
f 60/121/43 59/36/63 66/37/66 65/122/67
f 61/97/65 64/114/68 120/38/69 119/98/70
f 63/40/71 62/39/64 71/44/72 74/113/73
f 64/114/68 63/40/71 85/54/74 88/115/75
f 68/43/76 67/41/50 78/42/60 77/100/77
f 69/99/62 68/43/76 72/45/78 71/44/72
f 73/46/79 72/45/78 79/50/80 82/112/81
f 74/113/73 73/46/79 95/63/82 98/55/83
f 76/49/84 75/47/59 84/48/85 83/101/86
f 77/100/77 76/49/84 80/51/87 79/50/80
f 81/53/88 80/51/87 118/52/89 117/111/90
f 82/112/81 81/53/88 103/70/91 106/64/92
f 86/56/93 85/54/74 98/55/83 97/82/94
f 87/57/95 86/56/93 90/60/96 89/78/97
f 88/115/75 87/57/95 94/58/98 93/116/99
f 89/78/97 92/108/100 116/59/101 115/79/102
f 91/61/103 90/60/96 99/66/104 102/106/105
f 92/108/100 91/61/103 9/62/106 10/109/107
f 96/65/108 95/63/82 106/64/92 105/81/109
f 97/82/94 96/65/108 100/67/110 99/66/104
f 101/68/111 100/67/110 107/73/112 110/104/113
f 102/106/105 101/68/111 7/69/114 8/107/115
f 104/72/116 103/70/91 112/71/117 111/80/118
f 105/81/109 104/72/116 108/74/119 107/73/112
f 109/76/120 108/74/119 114/75/121 113/102/122
f 110/104/113 109/76/120 5/77/123 6/105/124
f 87/57/95 89/78/97 115/79/102 94/58/98
f 104/72/116 111/80/118 114/75/121 108/74/119
f 105/81/109 107/73/112 100/67/110 96/65/108
f 97/82/94 99/66/104 90/60/96 86/56/93
f 24/8/21 25/83/23 127/84/26 4/85/125
f 18/5/13 19/86/15 26/9/18 23/87/22
f 12/1/1 13/88/4 20/6/7 17/89/14
f 3/90/126 126/3/9 14/2/3 11/91/2
f 31/15/31 33/92/33 123/93/38 38/16/34
f 41/94/30 43/23/40 34/18/32 30/14/29
f 49/95/45 51/29/48 44/24/46 40/22/44
f 48/28/52 55/96/54 122/31/57 52/30/55
f 59/36/63 61/97/65 119/98/70 66/37/66
f 69/99/62 71/44/72 62/39/64 58/35/61
f 77/100/77 79/50/80 72/45/78 68/43/76
f 76/49/84 83/101/86 118/52/89 80/51/87
f 109/76/120 113/102/122 1/103/127 5/77/123
f 101/68/111 110/104/113 6/105/124 7/69/114
f 91/61/103 102/106/105 8/107/115 9/62/106
f 116/59/101 92/108/100 10/109/107 2/110/128
f 81/53/88 117/111/90 112/71/117 103/70/91
f 73/46/79 82/112/81 106/64/92 95/63/82
f 63/40/71 74/113/73 98/55/83 85/54/74
f 120/38/69 64/114/68 88/115/75 93/116/99
f 53/32/56 121/117/58 84/48/85 75/47/59
f 45/25/47 54/118/49 78/42/60 67/41/50
f 35/19/39 46/119/41 70/34/51 57/33/42
f 124/17/37 36/120/36 60/121/43 65/122/67
f 15/4/8 125/123/10 56/27/53 47/26/11
f 21/7/6 16/124/5 50/21/12 39/20/19
f 27/11/17 22/125/16 42/13/20 29/12/27
f 128/10/25 28/126/24 32/127/28 37/128/35
f 13/88/4 14/2/3 15/4/8 16/124/5
f 19/86/15 20/6/7 21/7/6 22/125/16
f 25/83/23 26/9/18 27/11/17 28/126/24
f 29/12/27 30/14/29 31/15/31 32/127/28
f 33/92/33 34/18/32 35/19/39 36/120/36
f 39/20/19 40/22/44 41/94/30 42/13/20
f 43/23/40 44/24/46 45/25/47 46/119/41
f 47/26/11 48/28/52 49/95/45 50/21/12
f 51/29/48 52/30/55 53/32/56 54/118/49
f 57/33/42 58/35/61 59/36/63 60/121/43
f 61/97/65 62/39/64 63/40/71 64/114/68
f 67/41/50 68/43/76 69/99/62 70/34/51
f 71/44/72 72/45/78 73/46/79 74/113/73
f 75/47/59 76/49/84 77/100/77 78/42/60
f 79/50/80 80/51/87 81/53/88 82/112/81
f 85/54/74 86/56/93 87/57/95 88/115/75
f 89/78/97 90/60/96 91/61/103 92/108/100
f 95/63/82 96/65/108 97/82/94 98/55/83
f 99/66/104 100/67/110 101/68/111 102/106/105
f 103/70/91 104/72/116 105/81/109 106/64/92
f 107/73/112 108/74/119 109/76/120 110/104/113
