# This file uses centimeters as units for non-parametric coordinates.

mtllib Wall_OutsideCorner.mtl
g default
v 0.000000 2.400000 0.000000
v 0.000000 0.000000 0.000000
v 1.000000 2.400000 0.000000
v 1.000000 0.000000 0.000000
v 0.000000 2.400000 1.000000
v 0.000000 0.000000 1.000000
vt 0.540946 0.955423
vt 0.279949 0.955423
vt 0.279949 0.329030
vt 0.540946 0.329030
vt 0.018951 0.955423
vt 0.018951 0.329030
vn -0.000000 0.000000 -1.000000
vn -0.000000 0.000000 -1.000000
vn -0.000000 0.000000 -1.000000
vn -0.000000 0.000000 -1.000000
vn -1.000000 0.000000 0.000000
vn -1.000000 0.000000 0.000000
vn -1.000000 0.000000 0.000000
vn -1.000000 0.000000 0.000000
s off
g OutsideCorner_Standard Wall_Standard
usemtl lambert1SG
f 2/3/1 1/2/2 3/5/3 4/6/4
f 5/1/5 1/2/6 2/3/7 6/4/8
