# This file uses centimeters as units for non-parametric coordinates.

mtllib Wall_HighDistorition_Sml_L.mtl
g default
v 0.000000 -0.000000 0.000000
v 0.000000 2.400000 0.000000
v 0.000000 2.400000 -0.200000
v 0.000000 -0.000000 -0.200000
v 1.000000 2.400000 0.514513
v 1.000000 2.400000 0.314513
v 1.000000 -0.000000 0.157445
v 1.000000 -0.000000 0.357445
v 0.000000 1.920000 0.000000
v 0.000000 1.920000 -0.200000
v 1.000000 1.920000 0.314513
v 1.000000 1.920000 0.514513
v 0.000000 1.440000 0.000000
v 0.000000 1.440000 -0.200000
v 1.000000 1.440000 0.197462
v 1.000000 1.440000 0.397462
v 0.000000 0.960000 0.000000
v 0.000000 0.960000 -0.200000
v 1.000000 0.960000 0.151947
v 1.000000 0.960000 0.351947
v 0.000000 0.480000 0.000000
v 0.000000 0.480000 -0.200000
v 1.000000 0.480000 0.151947
v 1.000000 0.480000 0.351947
vt 0.458333 0.050000
vt 0.375000 0.050000
vt 0.375000 0.000000
vt 0.458333 0.000000
vt 0.375000 0.500000
vt 0.375000 0.250000
vt 0.458333 0.250000
vt 0.458333 0.500000
vt 0.375000 0.750000
vt 0.375000 0.700000
vt 0.458333 0.700000
vt 0.458333 0.750000
vt 0.375000 1.000000
vt 0.458333 1.000000
vt 0.125000 0.000000
vt 0.125000 0.050000
vt 0.458333 0.850000
vt 0.125000 0.200000
vt 0.375000 0.200000
vt 0.125000 0.250000
vt 0.458333 0.550000
vt 0.375000 0.550000
vt 0.458333 0.400000
vt 0.458333 0.200000
vt 0.125000 0.150000
vt 0.375000 0.150000
vt 0.458333 0.600000
vt 0.375000 0.600000
vt 0.458333 0.550000
vt 0.458333 0.150000
vt 0.125000 0.100000
vt 0.375000 0.100000
vt 0.458333 0.650000
vt 0.375000 0.650000
vt 0.458333 0.700000
vt 0.458333 0.100000
vn -0.333139 0.002703 0.942874
vn -0.333138 0.002700 0.942874
vn -0.334285 0.005397 0.942456
vn -0.334285 0.005397 0.942457
vn 0.000000 1.000000 0.000000
vn 0.000000 1.000000 0.000000
vn 0.000000 1.000000 0.000000
vn 0.000000 1.000000 0.000000
vn 0.334285 -0.005397 -0.942456
vn 0.333138 -0.002700 -0.942874
vn 0.333139 -0.002703 -0.942874
vn 0.334285 -0.005397 -0.942457
vn 0.000000 -1.000000 0.000000
vn 0.000000 -1.000000 0.000000
vn 0.000000 -1.000000 0.000000
vn 0.000000 -1.000000 0.000000
vn -1.000000 0.000000 0.000000
vn -1.000000 0.000000 0.000000
vn -1.000000 0.000000 0.000000
vn -1.000000 0.000000 0.000000
vn 1.000000 0.000000 0.000000
vn 1.000000 0.000000 0.000000
vn 1.000000 0.000000 0.000000
vn 1.000000 0.000000 0.000000
vn -1.000000 0.000000 0.000000
vn -1.000000 0.000000 0.000000
vn -1.000000 0.000000 0.000000
vn -1.000000 0.000000 0.000000
vn 0.436719 0.052788 -0.898048
vn 0.435911 0.054765 -0.898322
vn 0.457507 0.000000 -0.889206
vn 0.457507 0.000000 -0.889206
vn 1.000000 0.000000 0.000000
vn 1.000000 0.000000 0.000000
vn 1.000000 0.000000 0.000000
vn 1.000000 0.000000 0.000000
vn -0.457507 0.000000 0.889206
vn -0.457507 0.000000 0.889206
vn -0.435911 -0.054765 0.898322
vn -0.436719 -0.052788 0.898048
vn -1.000000 0.000000 0.000000
vn -1.000000 0.000000 0.000000
vn 0.383593 0.079219 -0.920098
vn 0.382409 0.077955 -0.920699
vn 1.000000 -0.000000 0.000000
vn 1.000000 -0.000000 0.000000
vn -0.382409 -0.077955 0.920699
vn -0.383593 -0.079219 0.920098
vn -1.000000 0.000000 0.000000
vn -1.000000 0.000000 0.000000
vn 0.341492 0.022494 -0.939615
vn 0.341400 0.022275 -0.939654
vn 1.000000 -0.000000 0.000000
vn 1.000000 -0.000000 0.000000
vn -0.341400 -0.022275 0.939654
vn -0.341492 -0.022494 0.939615
s 1
g Wall_HighDistorition_Sml_L Wall_HighDistorition
usemtl initialShadingGroup
f 24/1/1 21/2/2 1/3/3 8/4/4
s off
f 3/5/5 2/6/6 5/7/7 6/8/8
s 2
f 4/9/9 22/10/10 23/11/11 7/12/12
s off
f 1/13/13 4/9/14 7/12/15 8/14/16
s 3
f 4/15/17 1/3/18 21/2/19 22/16/20
s 4
f 24/17/21 8/14/22 7/12/23 23/11/24
s 3
f 10/18/25 9/19/26 2/6/27 3/20/28
s 2
f 11/21/29 10/22/30 3/5/31 6/8/32
s 4
f 5/7/33 12/23/34 11/21/35 6/8/36
s 1
f 5/7/37 2/6/38 9/19/39 12/24/40
s 3
f 14/25/41 13/26/42 9/19/26 10/18/25
s 2
f 15/27/43 14/28/44 10/22/30 11/21/29
s 4
f 12/23/34 16/29/45 15/27/46 11/21/35
s 1
f 12/24/40 9/19/39 13/26/47 16/30/48
s 3
f 18/31/49 17/32/50 13/26/42 14/25/41
s 2
f 19/33/51 18/34/52 14/28/44 15/27/43
s 4
f 16/29/45 20/35/53 19/33/54 15/27/46
s 1
f 16/30/48 13/26/47 17/32/55 20/36/56
s 3
f 22/16/20 21/2/19 17/32/50 18/31/49
s 2
f 23/11/11 22/10/10 18/34/52 19/33/51
s 4
f 20/35/53 24/17/21 23/11/24 19/33/54
s 1
f 20/36/56 17/32/55 21/2/2 24/1/1
