# This file uses centimeters as units for non-parametric coordinates.

mtllib Wall_MidDistortion_SmlStraight.mtl
g default
v 0.000000 -0.000000 -0.000000
v 0.000000 2.400000 -0.000000
v 1.000000 2.400000 -0.000000
v 1.000000 -0.000000 -0.000000
v 0.500000 2.400000 -0.026433
v 0.500000 -0.000000 -0.036900
v 0.000000 1.200000 -0.000000
v 0.500000 1.200000 -0.029268
v 1.000000 1.200000 -0.000000
v 0.000000 0.600000 -0.000000
v 0.500000 0.600000 -0.042815
v 1.000000 0.600000 -0.000000
v 0.000000 1.800000 -0.000000
v 0.500000 1.800000 -0.039341
v 1.000000 1.800000 -0.000000
vt 0.280303 0.956273
vt 0.149627 0.956273
vt 0.149627 0.799462
vt 0.280303 0.799462
vt 0.018951 0.956273
vt 0.018951 0.799462
vt 0.149627 0.642651
vt 0.280303 0.642651
vt 0.018951 0.642651
vt 0.149627 0.485841
vt 0.280303 0.485841
vt 0.018951 0.485841
vt 0.149627 0.329030
vt 0.280303 0.329030
vt 0.018951 0.329030
vn -0.065628 -0.010733 0.997787
vn 0.000000 -0.010756 0.999942
vn 0.000000 -0.001180 0.999999
vn -0.067040 -0.001179 0.997750
vn 0.065628 -0.010733 0.997787
vn 0.067040 -0.001179 0.997750
vn 0.000000 -0.001448 0.999999
vn 0.070173 -0.001444 0.997534
vn 0.075681 -0.003171 0.997127
vn 0.000000 -0.003177 0.999995
vn -0.070173 -0.001444 0.997534
vn -0.075681 -0.003171 0.997127
vn 0.079462 0.004913 0.996826
vn 0.000000 0.004929 0.999988
vn -0.079462 0.004913 0.996826
s 1
g Wall_MidDistortion_SmlStraight Wall_MidDistorition
usemtl lambert1SG
f 3/1/1 5/2/2 14/3/3 15/4/4
f 5/2/2 2/5/5 13/6/6 14/3/3
f 8/7/7 7/9/8 10/12/9 11/10/10
f 9/8/11 8/7/7 11/10/10 12/11/12
f 11/10/10 10/12/9 1/15/13 6/13/14
f 12/11/12 11/10/10 6/13/14 4/14/15
f 14/3/3 13/6/6 7/9/8 8/7/7
f 15/4/4 14/3/3 8/7/7 9/8/11
