# This file uses centimeters as units for non-parametric coordinates.

mtllib Wall_HighDistortion_SmlStraight_R.mtl
g default
v 0.000000 0.000000 0.000000
v 0.000000 2.400000 0.000000
v 0.481280 0.536411 -0.042793
v 0.481279 0.705454 -0.042793
v 0.296081 0.679139 -0.032993
v 0.296081 0.520861 -0.032993
v 0.479607 1.124849 -0.038939
v 0.479551 1.283637 -0.040776
v 0.295968 1.279253 -0.025202
v 0.295968 1.120747 -0.023017
v 0.480204 1.723220 -0.045025
v 0.480192 1.881660 -0.043373
v 0.296058 1.879163 -0.050215
v 0.296058 1.720837 -0.053355
v 0.000000 1.720861 0.000000
v 0.000000 1.879139 0.000000
v 0.296081 2.400000 -0.043324
v 0.480068 2.400000 -0.047313
v 0.000000 1.120861 0.000000
v 0.000000 1.279139 0.000000
v 0.000000 0.520861 0.000000
v 0.000000 0.679139 0.000000
v 0.480068 -0.000000 -0.035051
v 0.296081 -0.000000 -0.023025
v 1.000000 2.400000 -0.126724
v 1.000000 -0.000000 -0.126724
v 0.664476 0.520439 -0.022107
v 0.664055 0.679139 -0.022139
v 0.664056 1.120861 -0.022139
v 0.664055 1.279139 -0.022139
v 0.664056 1.720861 -0.022139
v 0.664055 1.879139 -0.022139
v 1.000000 1.879139 -0.102495
v 1.000000 1.720861 -0.102495
v 0.664056 2.400000 -0.022139
v 1.000000 1.279139 -0.126724
v 1.000000 1.120862 -0.134360
v 1.000000 0.679139 -0.141088
v 1.000000 0.520861 -0.141088
v 0.664056 -0.000000 -0.022139
vt 0.093611 0.359910
vt 0.140899 0.538916
vt 0.093850 0.532229
vt 0.018266 0.532248
vt 0.140382 0.645333
vt 0.140435 0.685616
vt 0.093654 0.684522
vt 0.018270 0.684488
vt 0.141181 0.797237
vt 0.141148 0.837503
vt 0.140924 0.969040
vt 0.094391 0.836841
vt 0.018190 0.836831
vt 0.140902 0.496012
vt 0.140397 0.359889
vt 0.094228 0.968974
vt 0.018299 0.969017
vt 0.094456 0.796721
vt 0.018169 0.796618
vt 0.093608 0.644298
vt 0.018281 0.644329
vt 0.093847 0.492081
vt 0.018260 0.492079
vt 0.018260 0.359916
vt 0.027111 0.511703
vt 0.027206 0.552939
vt 0.072099 0.507671
vt 0.026526 0.380789
vt 0.071530 0.380631
vt 0.072078 0.546423
vt 0.154042 0.507671
vt 0.154095 0.546281
vt 0.072276 0.654264
vt 0.027069 0.655277
vt 0.027027 0.694014
vt 0.072278 0.692914
vt 0.154442 0.654329
vt 0.154414 0.692937
vt 0.072256 0.800765
vt 0.027026 0.801273
vt 0.026973 0.839921
vt 0.072146 0.839418
vt 0.154382 0.801100
vt 0.154241 0.839703
vt 0.071759 0.966550
vt 0.026439 0.966421
vt 0.153691 0.380315
vt 0.153936 0.967190
vn -0.019640 0.008964 0.999767
vn 0.081900 0.009562 0.996595
vn 0.080326 0.012282 0.996693
vn -0.016058 0.012078 0.999798
vn 0.086170 -0.009245 0.996238
vn -0.019019 -0.007816 0.999789
vn -0.012553 -0.004949 0.999909
vn 0.084634 -0.007186 0.996386
vn 0.098557 -0.008264 0.995097
vn 0.098045 0.007303 0.995155
vn 0.087630 0.027054 0.995786
vn -0.036072 0.017814 0.999190
vn -0.055791 0.012495 0.998364
vn 0.089400 0.021618 0.995761
vn 0.118287 0.025083 0.992663
vn 0.090754 -0.006455 0.995852
vn 0.093696 -0.006734 0.995578
vn -0.069900 -0.001981 0.997552
vn -0.066738 0.000464 0.997770
vn 0.094172 -0.005151 0.995543
vn 0.159834 -0.007292 0.987117
vn 0.142336 0.020617 0.989604
vn 0.156031 -0.006537 0.987731
vn 0.094175 0.009526 0.995510
vn 0.177204 0.008708 0.984136
vn 0.178537 0.011234 0.983869
vn 0.188678 -0.004611 0.982028
vn 0.320158 0.010008 0.947311
vn 0.327635 -0.005149 0.944791
vn 0.181279 -0.008299 0.983397
vn 0.146706 -0.015221 0.989063
vn 0.320586 -0.011298 0.947152
vn 0.276614 -0.025497 0.960643
vn 0.129805 -0.012127 0.991465
vn 0.127836 0.012033 0.991722
vn 0.256831 -0.019551 0.966259
vn 0.257830 0.017260 0.966036
vn 0.132279 0.016230 0.991080
vn 0.315868 0.012931 0.948715
vn 0.265319 0.022419 0.963900
s 1
g Wall_HighDistortion_SmlStraight_R Wall_HighDistorition
usemtl lambert1SG
f 3/14/1 6/22/2 24/1/3 23/15/4
f 5/3/5 4/2/6 7/5/7 10/20/8
f 6/22/2 5/3/5 22/4/9 21/23/10
f 9/7/11 8/6/12 11/9/13 14/18/14
f 10/20/8 9/7/11 20/8/15 19/21/16
f 13/12/17 12/10/18 18/11/19 17/16/20
f 14/18/14 13/12/17 16/13/21 15/19/22
f 13/12/17 17/16/20 2/17/23 16/13/21
f 9/7/11 14/18/14 15/19/22 20/8/15
f 5/3/5 10/20/8 19/21/16 22/4/9
f 24/1/3 6/22/2 21/23/10 1/24/24
f 3/14/1 4/2/6 5/3/5 6/22/2
f 7/5/7 8/6/12 9/7/11 10/20/8
f 11/9/13 12/10/18 13/12/17 14/18/14
f 27/27/25 3/25/1 23/28/4 40/29/26
f 28/30/27 27/27/25 39/31/28 38/32/29
f 4/26/6 28/30/27 29/33/30 7/34/7
f 30/36/31 29/33/30 37/37/32 36/38/33
f 8/35/12 30/36/31 31/39/34 11/40/13
f 32/42/35 31/39/34 34/43/36 33/44/37
f 12/41/18 32/42/35 35/45/38 18/46/19
f 39/31/28 27/27/25 40/29/26 26/47/39
f 37/37/32 29/33/30 28/30/27 38/32/29
f 34/43/36 31/39/34 30/36/31 36/38/33
f 25/48/40 35/45/38 32/42/35 33/44/37
f 27/27/25 28/30/27 4/26/6 3/25/1
f 29/33/30 30/36/31 8/35/12 7/34/7
f 31/39/34 32/42/35 12/41/18 11/40/13
