# This file uses centimeters as units for non-parametric coordinates.

mtllib Wall_Standard_Sml.mtl
g default
v 0.000000 -0.000000 0.000000
v 0.000000 2.400000 0.000000
v 0.000000 2.400000 -0.200000
v 0.000000 -0.000000 -0.200000
v 1.000000 2.400000 0.000000
v 1.000000 2.400000 -0.200000
v 1.000000 -0.000000 -0.200000
v 1.000000 -0.000000 0.000000
vt 0.375000 0.000000
vt 0.375000 0.250000
vt 0.375000 0.500000
vt 0.375000 0.750000
vt 0.375000 1.000000
vt 0.125000 0.000000
vt 0.125000 0.250000
vt 0.458333 0.250000
vt 0.458333 0.500000
vt 0.458333 0.750000
vt 0.458333 0.000000
vt 0.458333 1.000000
vn 0.000000 0.000000 1.000000
vn 0.000000 0.000000 1.000000
vn 0.000000 0.000000 1.000000
vn 0.000000 0.000000 1.000000
vn 0.000000 1.000000 0.000000
vn 0.000000 1.000000 0.000000
vn 0.000000 1.000000 0.000000
vn 0.000000 1.000000 0.000000
vn 0.000000 0.000000 -1.000000
vn 0.000000 0.000000 -1.000000
vn 0.000000 0.000000 -1.000000
vn 0.000000 0.000000 -1.000000
vn 0.000000 -1.000000 0.000000
vn 0.000000 -1.000000 0.000000
vn 0.000000 -1.000000 0.000000
vn 0.000000 -1.000000 0.000000
vn -1.000000 0.000000 0.000000
vn -1.000000 0.000000 0.000000
vn -1.000000 0.000000 0.000000
vn -1.000000 0.000000 0.000000
vn 1.000000 0.000000 0.000000
vn 1.000000 0.000000 0.000000
vn 1.000000 0.000000 0.000000
vn 1.000000 0.000000 0.000000
s off
g Wall_Standard_Sml
usemtl initialShadingGroup
f 5/8/1 2/2/2 1/1/3 8/11/4
f 3/3/5 2/2/6 5/8/7 6/9/8
f 4/4/9 3/3/10 6/9/11 7/10/12
f 1/5/13 4/4/14 7/10/15 8/12/16
f 4/6/17 1/1/18 2/2/19 3/7/20
f 5/8/21 8/12/22 7/10/23 6/9/24
