# This file uses centimeters as units for non-parametric coordinates.

mtllib Wall_HighDistortion_SmlWave_RL.mtl
g default
v 1.000000 2.400000 -0.126724
v 1.000000 0.000000 -0.126724
v 1.000000 1.879139 -0.102495
v 1.000000 1.720861 -0.102495
v 0.653436 1.720835 -0.103461
v 0.653410 1.879139 -0.104961
v 0.474836 1.894405 -0.119587
v 0.474995 1.731743 -0.118488
v 1.000000 1.279139 -0.126724
v 1.000000 1.120861 -0.134360
v 0.653604 1.120667 -0.090215
v 0.653410 1.279139 -0.090194
v 0.474727 1.282197 -0.100048
v 0.474740 1.123506 -0.098900
v 1.000000 0.681392 -0.141088
v 1.000000 0.518608 -0.141088
v 0.653420 0.520851 -0.090195
v 0.653410 0.679139 -0.090194
v 0.474920 0.686314 -0.092271
v 0.474934 0.526914 -0.092425
v 0.474874 2.400000 -0.097540
v 0.653436 2.400000 -0.090845
v 0.653436 -0.000000 -0.090845
v 0.474874 -0.000000 -0.097439
v 0.000000 2.400000 -0.126724
v 0.000000 -0.000000 -0.126724
v 0.000000 1.879139 -0.102495
v 0.000000 1.720861 -0.102495
v 0.000000 1.279139 -0.126724
v 0.000000 1.120861 -0.134360
v 0.000000 0.518608 -0.141088
v 0.000000 0.681392 -0.141088
v 0.296313 0.679165 -0.116472
v 0.296313 0.520835 -0.116472
v 0.296313 1.279165 -0.116472
v 0.296313 1.120836 -0.116472
v 0.296024 1.879456 -0.116345
v 0.296024 1.720544 -0.116407
v 0.296313 2.400000 -0.116472
v 0.296313 -0.000000 -0.116472
vt 0.150805 0.802578
vt 0.066507 0.841068
vt 0.066644 0.967798
vt 0.022928 0.844767
vt 0.151558 0.656485
vt 0.066612 0.695067
vt 0.023099 0.695841
vt 0.151638 0.510022
vt 0.066487 0.549143
vt 0.022904 0.384019
vt 0.023081 0.550927
vt 0.066454 0.510650
vt 0.066357 0.383986
vt 0.151086 0.383857
vt 0.066633 0.656524
vt 0.151674 0.549608
vt 0.066521 0.802547
vt 0.151362 0.695014
vt 0.151371 0.967833
vt 0.150797 0.841049
vt 0.023192 0.967825
vt 0.022974 0.805238
vt 0.023085 0.657254
vt 0.023047 0.512163
vt 0.018241 0.529439
vt 0.018254 0.487833
vt 0.094251 0.488428
vt 0.094236 0.528899
vt 0.140317 0.490000
vt 0.094291 0.355302
vt 0.140189 0.355316
vt 0.140302 0.530741
vt 0.140022 0.642494
vt 0.094196 0.641799
vt 0.018424 0.682263
vt 0.018320 0.641769
vt 0.094192 0.682275
vt 0.139979 0.683049
vt 0.139874 0.798022
vt 0.094120 0.795129
vt 0.018376 0.835723
vt 0.018353 0.795292
vt 0.094134 0.835774
vt 0.139853 0.839565
vt 0.140300 0.968908
vt 0.094406 0.968847
vt 0.018638 0.968971
vt 0.018509 0.355228
vn 0.036439 -0.007880 0.999305
vn 0.035789 0.008543 0.999323
vn 0.001768 -0.002280 0.999996
vn -0.001063 0.004802 0.999988
vn -0.048704 0.021765 0.998576
vn -0.059401 0.021734 0.997998
vn 0.023392 -0.001009 0.999726
vn -0.048004 -0.020802 0.998631
vn 0.011335 -0.005434 0.999921
vn -0.052033 -0.028250 0.998246
vn 0.130566 -0.011879 0.991369
vn 0.068409 -0.015473 0.997537
vn 0.074467 -0.005674 0.997207
vn -0.073374 0.006457 0.997284
vn -0.073319 0.005474 0.997294
vn 0.083962 -0.001896 0.996467
vn 0.129210 0.010010 0.991567
vn 0.138396 -0.005557 0.990361
vn 0.077751 0.005108 0.996960
vn -0.072684 -0.003975 0.997347
vn -0.072507 -0.005078 0.997355
vn 0.073751 0.006820 0.997253
vn 0.124248 0.013092 0.992165
vn 0.048146 0.009695 0.998793
vn -0.074549 -0.005594 0.997202
vn -0.064426 0.010555 0.997867
vn -0.086800 0.005060 0.996213
vn -0.092039 -0.001516 0.995754
vn -0.081906 0.006768 0.996617
vn -0.082435 -0.005011 0.996584
vn -0.008020 -0.026601 0.999614
vn -0.065205 -0.011959 0.997800
vn -0.025859 -0.010519 0.999610
vn 0.000080 -0.006297 0.999980
vn 0.015605 0.017865 0.999719
vn 0.016941 -0.020270 0.999651
vn -0.000481 0.005799 0.999983
vn -0.012240 0.006700 0.999903
vn 0.006059 0.023379 0.999708
vn -0.058783 0.013794 0.998176
s 1
g Wall_HighDistorition_SmlWave_RL Wall_HighDistorition
usemtl lambert1SG
f 4/1/1 3/20/2 6/2/3 5/17/4
f 5/17/4 8/22/5 13/7/6 12/6/7
f 7/4/8 6/2/3 22/3/9 21/21/10
f 10/5/11 9/18/12 12/6/7 11/15/13
f 11/15/13 14/23/14 19/11/15 18/9/16
f 16/8/17 15/16/18 18/9/16 17/12/19
f 17/12/19 20/24/20 24/10/21 23/13/22
f 16/8/17 17/12/19 23/13/22 2/14/23
f 10/5/11 11/15/13 18/9/16 15/16/18
f 4/1/1 5/17/4 12/6/7 9/18/12
f 1/19/24 22/3/9 6/2/3 3/20/2
f 5/17/4 6/2/3 7/4/8 8/22/5
f 11/15/13 12/6/7 13/7/6 14/23/14
f 17/12/19 18/9/16 19/11/15 20/24/20
f 32/25/25 31/26/26 34/27/27 33/28/28
f 20/29/20 34/27/27 40/30/29 24/31/21
f 33/28/28 19/32/15 14/33/14 36/34/30
f 29/35/31 30/36/32 36/34/30 35/37/33
f 35/37/33 13/38/6 8/39/5 38/40/34
f 27/41/35 28/42/36 38/40/34 37/43/37
f 37/43/37 7/44/8 21/45/10 39/46/38
f 37/43/37 39/46/38 25/47/39 27/41/35
f 35/37/33 38/40/34 28/42/36 29/35/31
f 33/28/28 36/34/30 30/36/32 32/25/25
f 40/30/29 34/27/27 31/26/26 26/48/40
f 20/29/20 19/32/15 33/28/28 34/27/27
f 14/33/14 13/38/6 35/37/33 36/34/30
f 8/39/5 7/44/8 37/43/37 38/40/34
