# This file uses centimeters as units for non-parametric coordinates.

mtllib Wall_MidDistortion_L1.mtl
g default
v 0.000000 -0.000000 0.039392
v 0.000000 2.400000 -0.021880
v 3.000000 2.400000 0.000000
v 3.000000 -0.000000 0.000000
v 2.000000 2.400000 0.007233
v 2.000000 -0.000000 0.007233
v 0.995757 2.381328 -0.019894
v 1.000000 -0.000000 0.001376
v 0.985748 1.300469 -0.063407
v 0.000000 1.600000 -0.031681
v 3.000000 1.600000 0.000000
v 2.000000 1.600000 -0.031019
v 1.000000 0.800000 -0.048279
v 0.000000 0.800000 0.001962
v 3.000000 0.800000 0.000000
v 2.000000 0.800000 -0.033818
v 0.500000 2.400000 -0.027703
v 0.500000 1.600000 -0.055121
v 0.500000 0.800000 -0.028104
v 0.500000 -0.000000 0.020375
v 1.495753 2.383150 0.006445
v 1.484939 1.329630 -0.033985
v 1.500000 0.800000 -0.032071
v 1.500000 -0.000000 0.008962
v 2.500000 2.400000 0.000516
v 2.500000 1.600000 -0.018610
v 2.500000 0.800000 -0.020010
v 2.500000 -0.000000 0.000516
v 0.000000 2.000000 -0.031634
v 0.500000 2.000000 -0.045558
v 0.962999 1.700166 -0.054121
v 1.462190 1.729329 -0.024585
v 2.000000 2.000000 -0.011893
v 2.500000 2.000000 -0.009047
v 3.000000 2.000000 0.000000
v 0.000000 1.200000 -0.021937
v 0.500000 1.200000 -0.047510
v 1.000035 1.180937 -0.057620
v 1.500031 1.182792 -0.031358
v 2.000000 1.200000 -0.032418
v 2.500000 1.200000 -0.019310
v 3.000000 1.200000 0.000000
v 0.000000 0.400000 0.026989
v 0.500000 0.400000 0.002192
v 1.000000 0.400000 -0.019730
v 1.500000 0.400000 -0.011545
v 2.000000 0.400000 -0.013292
v 2.500000 0.400000 -0.009747
v 3.000000 0.400000 0.000000
vt 0.278149 0.450652
vt 0.278193 0.555448
vt 0.147419 0.555257
vt 0.147268 0.450408
vt 0.801189 0.555062
vt 0.670379 0.555147
vt 0.670365 0.450534
vt 0.801105 0.450484
vt 0.539639 0.450567
vt 0.539640 0.555262
vt 0.408953 0.555291
vt 0.408909 0.450557
vt 0.268556 0.790670
vt 0.277257 0.968906
vt 0.147538 0.973718
vt 0.147537 0.869062
vt 0.801494 0.973382
vt 0.670782 0.973521
vt 0.670654 0.868920
vt 0.801389 0.868813
vt 0.399252 0.798391
vt 0.539928 0.869066
vt 0.540049 0.973751
vt 0.408195 0.969513
vt 0.278200 0.654986
vt 0.274443 0.686238
vt 0.147549 0.764486
vt 0.147495 0.659925
vt 0.801320 0.764237
vt 0.670529 0.764313
vt 0.670464 0.659732
vt 0.801263 0.659650
vt 0.409044 0.655403
vt 0.539721 0.659822
vt 0.539793 0.764383
vt 0.405113 0.693817
vt 0.016786 0.973721
vt 0.016774 0.869108
vt 0.016700 0.764480
vt 0.016637 0.659796
vt 0.016493 0.554977
vt 0.016389 0.450178
vt 0.147255 0.345739
vt 0.016433 0.345555
vt 0.278115 0.345947
vt 0.408882 0.345848
vt 0.539621 0.345865
vt 0.670353 0.345927
vt 0.801062 0.345917
vn 0.010696 0.058913 0.998206
vn 0.001869 0.046131 0.998934
vn 0.045859 0.058384 0.997240
vn 0.045309 0.057362 0.997325
vn -0.034517 0.005973 0.999386
vn -0.028322 0.011951 0.999527
vn -0.013288 0.025647 0.999583
vn -0.019489 0.012825 0.999728
vn -0.001802 0.044849 0.998992
vn -0.009543 0.021238 0.999729
vn -0.014911 0.030706 0.999417
vn -0.008285 0.053909 0.998512
vn -0.031978 -0.036008 0.998840
vn -0.037467 -0.046752 0.998204
vn 0.000220 -0.041880 0.999123
vn 0.007284 -0.033255 0.999420
vn -0.008530 -0.011952 0.999892
vn -0.002328 -0.023902 0.999712
vn -0.011889 -0.023899 0.999644
vn -0.018090 -0.011951 0.999765
vn -0.029692 -0.039682 0.998771
vn -0.001876 -0.040369 0.999183
vn 0.001771 -0.042528 0.999094
vn -0.028634 -0.046777 0.998495
vn -0.004977 0.024892 0.999678
vn -0.017617 -0.002816 0.999841
vn 0.027572 -0.002445 0.999617
vn 0.042087 0.035505 0.998483
vn -0.032771 -0.006411 0.999442
vn -0.026574 -0.012825 0.999565
vn -0.032401 -0.001749 0.999473
vn -0.038591 -0.000874 0.999255
vn -0.019065 0.005869 0.999801
vn -0.014021 -0.001710 0.999900
vn -0.009588 -0.022438 0.999702
vn -0.025576 -0.014628 0.999566
vn 0.019731 -0.034483 0.999211
vn 0.028534 -0.023248 0.999323
vn 0.043149 0.004842 0.999057
vn 0.052221 0.037855 0.997918
vn 0.055061 0.061450 0.996590
vn 0.049200 0.053529 0.997354
vn 0.042291 0.043585 0.998154
vn 0.043740 0.038168 0.998314
vn 0.012569 0.050494 0.998645
vn -0.006138 0.051583 0.998650
vn 0.003321 0.044845 0.998989
vn -0.003028 0.025650 0.999666
vn -0.009230 0.012827 0.999875
s 1
g Wall_MidDistortion_L1 Wall_MidDistortion
usemtl lambert1SG
f 45/1/1 13/2/2 19/3/3 44/4/4
f 15/5/5 27/6/6 48/7/7 49/8/8
f 47/9/9 16/10/10 23/11/11 46/12/12
f 31/13/13 7/14/14 17/15/15 30/16/16
f 3/17/17 25/18/18 34/19/19 35/20/20
f 32/21/21 33/22/22 5/23/23 21/24/24
f 38/25/25 9/26/26 18/27/27 37/28/28
f 11/29/29 26/30/30 41/31/31 42/32/32
f 39/33/33 40/34/34 12/35/35 22/36/36
f 30/16/16 17/15/15 2/37/37 29/38/38
f 37/28/28 18/27/27 10/39/39 36/40/40
f 44/4/4 19/3/3 14/41/41 43/42/42
f 31/13/13 32/21/21 21/24/24 7/14/14
f 38/25/25 39/33/33 22/36/36 9/26/26
f 46/12/12 23/11/11 13/2/2 45/1/1
f 25/18/18 5/23/23 33/22/22 34/19/19
f 41/31/31 26/30/30 12/35/35 40/34/34
f 48/7/7 27/6/6 16/10/10 47/9/9
f 18/27/27 30/16/16 29/38/38 10/39/39
f 9/26/26 31/13/13 30/16/16 18/27/27
f 9/26/26 22/36/36 32/21/21 31/13/13
f 22/36/36 12/35/35 33/22/22 32/21/21
f 34/19/19 33/22/22 12/35/35 26/30/30
f 35/20/20 34/19/19 26/30/30 11/29/29
f 19/3/3 37/28/28 36/40/40 14/41/41
f 13/2/2 38/25/25 37/28/28 19/3/3
f 13/2/2 23/11/11 39/33/33 38/25/25
f 23/11/11 16/10/10 40/34/34 39/33/33
f 27/6/6 41/31/31 40/34/34 16/10/10
f 42/32/32 41/31/31 27/6/6 15/5/5
f 20/43/43 44/4/4 43/42/42 1/44/44
f 8/45/45 45/1/1 44/4/4 20/43/43
f 24/46/46 46/12/12 45/1/1 8/45/45
f 6/47/47 47/9/9 46/12/12 24/46/46
f 28/48/48 48/7/7 47/9/9 6/47/47
f 49/8/8 48/7/7 28/48/48 4/49/49
