# This file uses centimeters as units for non-parametric coordinates.

mtllib Wall_SlightDistortion_SmlWave.mtl
g default
v 1.000000 2.400000 0.059872
v 1.000000 -0.000000 0.059872
v 0.519151 2.400000 0.075622
v 0.519151 -0.000000 0.083466
v 1.000000 1.600000 0.059872
v 0.519151 1.600000 0.065241
v 1.000000 0.800000 0.059872
v 0.519151 0.800000 0.066553
v 0.000000 -0.000000 0.059872
v 0.000000 2.400000 0.059872
v 0.000000 1.600000 0.059872
v 0.000000 0.800000 0.059872
vt 0.279996 0.537866
vt 0.154473 0.537866
vt 0.154473 0.329030
vt 0.279996 0.329030
vt 0.279996 0.746702
vt 0.154473 0.746702
vt 0.018951 0.537866
vt 0.018951 0.329030
vt 0.279996 0.955539
vt 0.154473 0.955539
vt 0.018951 0.746702
vt 0.018951 0.955539
vn 0.022001 0.005694 0.999742
vn 0.022002 0.005694 0.999742
vn 0.031464 0.010565 0.999449
vn 0.031464 0.010565 0.999449
vn 0.021955 -0.006486 0.999738
vn 0.021955 -0.006486 0.999738
vn 0.017243 -0.002834 0.999847
vn 0.017243 -0.002834 0.999847
vn -0.029145 0.010565 0.999519
vn -0.020379 0.005694 0.999776
vn -0.020378 0.005694 0.999776
vn -0.029145 0.010565 0.999519
vn -0.015972 -0.002834 0.999868
vn -0.020336 -0.006487 0.999772
vn -0.020336 -0.006487 0.999772
vn -0.015971 -0.002834 0.999868
s 1
g Wall_SlightDistortion_SmlWave Wall_SlightDistortion
usemtl lambert1SG
f 7/1/1 8/2/2 4/3/3 2/4/4
f 1/9/5 3/10/6 6/6/7 5/5/8
f 5/5/8 6/6/7 8/2/2 7/1/1
s 2
f 4/3/9 8/2/10 12/7/11 9/8/12
f 6/6/13 3/10/14 10/12/15 11/11/16
f 8/2/10 6/6/13 11/11/16 12/7/11
