# This file uses centimeters as units for non-parametric coordinates.

mtllib Wall_HighDistortion_L2.mtl
g default
v -3.000000 -0.000000 0.357445
v -3.000000 2.400000 0.514513
v 0.000000 2.400000 0.157068
v 0.000000 -0.000000 -0.021279
v -0.600000 2.400000 0.228557
v -0.600000 -0.000000 0.050210
v -1.200000 2.400000 0.324013
v -1.200000 -0.000000 0.121699
v -1.800000 2.400000 0.395502
v -1.800000 -0.000000 0.193188
v -2.400000 2.400000 0.443024
v -2.400000 -0.000000 0.264677
v -0.600000 1.920000 0.234749
v -1.218342 1.803316 0.394116
v -1.818111 1.786686 0.465605
v -2.400000 1.920000 0.449216
v -3.000000 1.920000 0.514513
v 0.000000 1.920000 0.157068
v -0.600000 1.440000 0.096682
v -1.205038 1.323500 0.256049
v -1.804808 1.306870 0.327538
v -2.400000 1.440000 0.311149
v -3.000000 1.440000 0.397462
v 0.000000 1.440000 0.019001
v -0.600000 0.960000 -0.012032
v -1.200000 0.960000 0.081702
v -1.800000 0.960000 0.153191
v -2.400000 0.960000 0.202435
v -3.000000 0.960000 0.351947
v 0.000000 0.960000 -0.083521
v -0.600000 0.480000 -0.012032
v -1.200000 0.480000 0.059457
v -1.800000 0.480000 0.130946
v -2.400000 0.480000 0.202435
v -3.000000 0.480000 0.351947
v 0.000000 0.480000 -0.083521
vt 0.177966 0.329030
vt 0.177966 0.456242
vt 0.018951 0.456242
vt 0.018951 0.329030
vt 0.336980 0.329030
vt 0.336980 0.456242
vt 0.177966 0.583453
vt 0.018951 0.583453
vt 0.495995 0.329030
vt 0.495995 0.456242
vt 0.336980 0.583453
vt 0.177966 0.710665
vt 0.018951 0.710665
vt 0.655009 0.329030
vt 0.655009 0.456242
vt 0.495995 0.583453
vt 0.335706 0.675382
vt 0.177966 0.837876
vt 0.018951 0.837876
vt 0.814023 0.456242
vt 0.814023 0.329030
vt 0.655009 0.583453
vt 0.494659 0.679790
vt 0.332180 0.802545
vt 0.177966 0.965088
vt 0.018951 0.965087
vt 0.814023 0.583453
vt 0.655009 0.710665
vt 0.491133 0.806952
vt 0.336980 0.965088
vt 0.814023 0.710665
vt 0.655009 0.837876
vt 0.495995 0.965087
vt 0.814023 0.837876
vt 0.655009 0.965088
vt 0.814023 0.965088
vn 0.158171 0.098045 0.982532
vn 0.164968 0.043691 0.985331
vn 0.219867 0.034426 0.974922
vn 0.197435 0.069001 0.977885
vn 0.118069 0.063935 0.990945
vn 0.122635 0.058494 0.990727
vn 0.117343 0.127705 0.984846
vn 0.117343 0.127705 0.984846
vn 0.122725 0.047064 0.991324
vn 0.117343 0.127705 0.984846
vn 0.113660 0.047075 0.992404
vn 0.117343 0.127705 0.984846
vn 0.187861 -0.106772 0.976375
vn 0.163610 0.038294 0.985782
vn 0.156624 0.088882 0.983651
vn 0.183041 -0.085373 0.979391
vn 0.045157 -0.092738 0.994666
vn 0.078744 0.091873 0.992652
vn 0.049684 -0.100599 0.993686
vn 0.071470 0.039556 0.996658
vn 0.118298 -0.126585 0.984877
vn 0.113252 0.006409 0.993546
vn 0.123356 0.006401 0.992342
vn 0.124672 -0.139722 0.982311
vn 0.192191 -0.263842 0.945225
vn 0.191505 -0.315532 0.929390
vn 0.035357 -0.324160 0.945341
vn 0.053503 -0.250695 0.966587
vn 0.155434 -0.206705 0.965978
vn 0.122039 -0.243588 0.962170
vn 0.149562 -0.135159 0.979471
vn 0.152133 -0.193690 0.969196
vn 0.083500 -0.198230 0.976592
vn 0.136043 -0.121904 0.983174
vn 0.216667 -0.078728 0.973066
vn 0.120113 -0.107716 0.986899
s 1
g Wall_HighDistorition_L2 Wall_HighDistorition
usemtl lambert1SG
f 12/1/1 34/2/2 35/3/3 1/4/4
f 36/20/5 31/15/6 6/14/7 4/21/8
f 6/14/7 31/15/6 32/10/9 8/9/10
f 8/9/10 32/10/9 33/6/11 10/5/12
f 10/5/12 33/6/11 34/2/2 12/1/1
f 13/32/13 5/35/14 7/33/15 14/29/16
f 15/24/17 14/29/16 7/33/15 9/30/18
f 16/18/19 15/24/17 9/30/18 11/25/20
f 17/19/21 16/18/19 11/25/20 2/26/22
f 3/36/23 5/35/14 13/32/13 18/34/24
f 19/28/25 13/32/13 14/29/16 20/23/26
f 21/17/27 20/23/26 14/29/16 15/24/17
f 22/12/28 21/17/27 15/24/17 16/18/19
f 23/13/29 22/12/28 16/18/19 17/19/21
f 18/34/24 13/32/13 19/28/25 24/31/30
f 25/22/31 19/28/25 20/23/26 26/16/32
f 27/11/33 26/16/32 20/23/26 21/17/27
f 28/7/34 27/11/33 21/17/27 22/12/28
f 29/8/35 28/7/34 22/12/28 23/13/29
f 24/31/30 19/28/25 25/22/31 30/27/36
f 31/15/6 25/22/31 26/16/32 32/10/9
f 33/6/11 32/10/9 26/16/32 27/11/33
f 34/2/2 33/6/11 27/11/33 28/7/34
f 35/3/3 34/2/2 28/7/34 29/8/35
f 30/27/36 25/22/31 31/15/6 36/20/5
