# This file uses centimeters as units for non-parametric coordinates.

mtllib Wall_Standard_Sml.mtl
g default
v 1.000000 -0.000000 -0.000000
v 1.000000 2.400000 -0.000000
v 2.000000 2.400000 -0.000000
v 2.000000 -0.000000 -0.000000
vt 0.279949 0.955423
vt 0.018951 0.955423
vt 0.018951 0.329030
vt 0.279949 0.329030
vn 0.000000 0.000000 1.000000
vn 0.000000 0.000000 1.000000
vn 0.000000 0.000000 1.000000
vn 0.000000 0.000000 1.000000
s off
g Wall_Standard_Sml Wall_Standard
usemtl lambert1SG
f 3/1/1 2/2/2 1/3/3 4/4/4
