# This file uses centimeters as units for non-parametric coordinates.

mtllib Wall_SlightDistortion_L2.mtl
g default
v -3.000000 -0.000000 0.059872
v -3.000000 2.400000 0.059872
v 0.000000 2.400000 0.000000
v 0.000000 -0.000000 0.000000
v -1.000000 2.400000 0.000000
v -1.000000 -0.000000 0.000000
v -2.000000 2.400000 0.000554
v -2.000000 -0.000000 0.000554
v -2.000000 1.600000 -0.078750
v -3.000000 1.600000 0.059872
v 0.000000 1.600000 0.000000
v -1.000000 1.600000 -0.038252
v -2.000000 0.800000 0.000554
v -3.000000 0.800000 0.059872
v 0.000000 0.800000 0.000000
v -1.000000 0.800000 0.000000
vt 0.280335 0.329030
vt 0.280335 0.538137
vt 0.018951 0.538137
vt 0.018951 0.329030
vt 0.541718 0.329030
vt 0.541718 0.538137
vt 0.280335 0.747243
vt 0.018951 0.747243
vt 0.803102 0.538137
vt 0.803102 0.329030
vt 0.541718 0.747243
vt 0.280335 0.956350
vt 0.018951 0.956350
vt 0.803102 0.747243
vt 0.541718 0.956350
vt 0.803102 0.956350
vn 0.029922 -0.000000 0.999552
vn 0.034740 0.030743 0.998923
vn 0.078873 0.024698 0.996579
vn 0.059214 -0.000000 0.998245
vn -0.009562 0.011952 0.999883
vn -0.009633 0.024337 0.999657
vn 0.000277 0.000000 1.000000
vn -0.000000 0.000000 1.000000
vn 0.039287 0.000000 0.999228
vn 0.039505 -0.061332 0.997335
vn 0.098369 -0.049264 0.993930
vn 0.098488 0.000000 0.995138
vn -0.019117 -0.023896 0.999532
vn -0.019522 -0.048623 0.998626
vn -0.019546 0.000000 0.999809
vn -0.019123 -0.000000 0.999817
s 1
g Wall_SlightDistortion_L2 Wall_SlightDistortion
usemtl lambert1SG
f 8/1/1 13/2/2 14/3/3 1/4/4
f 15/9/5 16/6/6 6/5/7 4/10/8
f 6/5/7 16/6/6 13/2/2 8/1/1
f 9/7/9 7/12/10 2/13/11 10/8/12
f 3/16/13 5/15/14 12/11/15 11/14/16
f 9/7/9 12/11/15 5/15/14 7/12/10
f 13/2/2 9/7/9 10/8/12 14/3/3
f 11/14/16 12/11/15 16/6/6 15/9/5
f 13/2/2 16/6/6 12/11/15 9/7/9
