# This file uses centimeters as units for non-parametric coordinates.

mtllib Wall_HighDistortion_SmlStraight_R.mtl
g default
v 0.000000 0.000000 0.000000
v 0.000000 2.400000 0.000000
v 0.481280 0.536411 -0.042793
v 0.481279 0.705454 -0.042793
v 0.296081 0.679139 -0.032993
v 0.296081 0.520861 -0.032993
v 0.479607 1.124849 -0.038939
v 0.479551 1.283637 -0.040776
v 0.295968 1.279253 -0.025202
v 0.295968 1.120747 -0.023017
v 0.480204 1.723220 -0.045025
v 0.480192 1.881660 -0.043373
v 0.296058 1.879163 -0.050215
v 0.296058 1.720837 -0.053355
v 0.000000 1.720861 0.000000
v 0.000000 1.879139 0.000000
v 0.296081 2.400000 -0.043324
v 0.480068 2.400000 -0.047313
v 0.000000 1.120861 0.000000
v 0.000000 1.279139 0.000000
v 0.000000 0.520861 0.000000
v 0.000000 0.679139 0.000000
v 0.480068 -0.000000 -0.035051
v 0.296081 -0.000000 -0.023025
v 1.000000 2.400000 -0.126724
v 1.000000 -0.000000 -0.126724
v 0.664476 0.520439 -0.022107
v 0.664055 0.679139 -0.022139
v 0.664056 1.120861 -0.022139
v 0.664055 1.279139 -0.022139
v 0.664056 1.720861 -0.022139
v 0.664055 1.879139 -0.022139
v 1.000000 1.879139 -0.102495
v 1.000000 1.720861 -0.102495
v 0.664056 2.400000 -0.022139
v 1.000000 1.279139 -0.126724
v 1.000000 1.120862 -0.134360
v 1.000000 0.679139 -0.141088
v 1.000000 0.520861 -0.141088
v 0.664056 -0.000000 -0.022139
vt 0.407445 0.497287
vt 0.362056 0.493476
vt 0.362056 0.365822
vt 0.407148 0.365822
vt 0.407445 0.538717
vt 0.362056 0.532267
vt 0.289492 0.493476
vt 0.289492 0.365822
vt 0.452343 0.493373
vt 0.452240 0.365822
vt 0.452240 0.532267
vt 0.407035 0.641503
vt 0.362028 0.640498
vt 0.289492 0.532267
vt 0.534575 0.493476
vt 0.534575 0.365822
vt 0.534575 0.532267
vt 0.452240 0.640526
vt 0.407021 0.680420
vt 0.362028 0.679345
vt 0.289492 0.640526
vt 0.534575 0.640526
vt 0.452240 0.679317
vt 0.407181 0.788154
vt 0.362050 0.787570
vt 0.289492 0.679317
vt 0.534575 0.679317
vt 0.452240 0.787575
vt 0.407179 0.826985
vt 0.362050 0.826373
vt 0.289492 0.787576
vt 0.534575 0.787576
vt 0.452240 0.826367
vt 0.407148 0.954021
vt 0.362056 0.954021
vt 0.289492 0.826367
vt 0.534575 0.826367
vt 0.452240 0.954021
vt 0.289492 0.954021
vt 0.534575 0.954021
vn -0.019640 0.008964 0.999767
vn 0.081900 0.009562 0.996595
vn 0.080326 0.012282 0.996693
vn -0.016058 0.012078 0.999798
vn 0.086170 -0.009245 0.996238
vn -0.019019 -0.007816 0.999789
vn -0.012553 -0.004949 0.999909
vn 0.084634 -0.007186 0.996386
vn 0.098557 -0.008264 0.995097
vn 0.098045 0.007303 0.995155
vn 0.087630 0.027054 0.995786
vn -0.036072 0.017814 0.999190
vn -0.055791 0.012495 0.998364
vn 0.089400 0.021618 0.995761
vn 0.118287 0.025083 0.992663
vn 0.090754 -0.006455 0.995852
vn 0.093696 -0.006734 0.995578
vn -0.069900 -0.001981 0.997552
vn -0.066738 0.000464 0.997770
vn 0.094172 -0.005151 0.995543
vn 0.159834 -0.007292 0.987117
vn 0.142336 0.020617 0.989604
vn 0.156031 -0.006537 0.987731
vn 0.094175 0.009526 0.995510
vn 0.177204 0.008708 0.984136
vn 0.178537 0.011234 0.983869
vn 0.188678 -0.004611 0.982028
vn 0.320158 0.010008 0.947311
vn 0.327635 -0.005149 0.944791
vn 0.181279 -0.008299 0.983397
vn 0.146706 -0.015221 0.989063
vn 0.320586 -0.011298 0.947152
vn 0.276614 -0.025497 0.960643
vn 0.129805 -0.012127 0.991465
vn 0.127836 0.012033 0.991722
vn 0.256831 -0.019551 0.966259
vn 0.257830 0.017260 0.966036
vn 0.132279 0.016230 0.991080
vn 0.315868 0.012931 0.948715
vn 0.265319 0.022419 0.963900
s 1
g Wall_HighDistortion_SmlStraight_R Wall_HighDistorition
usemtl lambert1SG
f 3/1/1 6/2/2 24/3/3 23/4/4
f 5/6/5 4/5/6 7/12/7 10/13/8
f 6/2/2 5/6/5 22/14/9 21/7/10
f 9/20/11 8/19/12 11/24/13 14/25/14
f 10/13/8 9/20/11 20/26/15 19/21/16
f 13/30/17 12/29/18 18/34/19 17/35/20
f 14/25/14 13/30/17 16/36/21 15/31/22
f 13/30/17 17/35/20 2/39/23 16/36/21
f 9/20/11 14/25/14 15/31/22 20/26/15
f 5/6/5 10/13/8 19/21/16 22/14/9
f 24/3/3 6/2/2 21/7/10 1/8/24
f 3/1/1 4/5/6 5/6/5 6/2/2
f 7/12/7 8/19/12 9/20/11 10/13/8
f 11/24/13 12/29/18 13/30/17 14/25/14
f 27/9/25 3/1/1 23/4/4 40/10/26
f 28/11/27 27/9/25 39/15/28 38/17/29
f 4/5/6 28/11/27 29/18/30 7/12/7
f 30/23/31 29/18/30 37/22/32 36/27/33
f 8/19/12 30/23/31 31/28/34 11/24/13
f 32/33/35 31/28/34 34/32/36 33/37/37
f 12/29/18 32/33/35 35/38/38 18/34/19
f 39/15/28 27/9/25 40/10/26 26/16/39
f 37/22/32 29/18/30 28/11/27 38/17/29
f 34/32/36 31/28/34 30/23/31 36/27/33
f 25/40/40 35/38/38 32/33/35 33/37/37
f 27/9/25 28/11/27 4/5/6 3/1/1
f 29/18/30 30/23/31 8/19/12 7/12/7
f 31/28/34 32/33/35 12/29/18 11/24/13
