# This file uses centimeters as units for non-parametric coordinates.

mtllib NewspaperStory_001.mtl
g default
v 10.570776 0.000000 8.722587
v 52.570793 0.000000 8.722587
v 10.570776 0.055308 8.722587
v 52.570793 0.055308 8.722587
v 10.570776 0.055308 -50.677414
v 52.570793 0.055308 -50.677414
v 10.570776 0.000000 -50.677414
v 52.570793 0.000000 -50.677414
v -33.227695 0.000000 57.627853
v 7.954865 0.000000 49.381744
v -33.227695 0.055308 57.627853
v 7.954865 0.055308 49.381744
v -44.890041 0.055308 -0.616028
v -3.707481 0.055308 -8.862137
v -44.890041 0.000000 -0.616028
v -3.707481 0.000000 -8.862137
v -37.338081 0.000000 -15.732790
v 4.661938 0.000000 -15.732790
v -37.338081 0.055308 -15.732790
v 4.661938 0.055308 -15.732790
v -37.338081 0.055308 -75.132790
v 4.661938 0.055308 -75.132790
v -37.338081 0.000000 -75.132790
v 4.661938 0.000000 -75.132790
v -7.574438 0.100000 57.061489
v 33.842712 0.100000 64.034386
v -7.574438 0.155308 57.061489
v 33.842712 0.155308 64.034386
v 2.287229 0.155308 -1.514172
v 43.704384 0.155308 5.458729
v 2.287229 0.100000 -1.514172
v 43.704384 0.100000 5.458729
v -81.957962 0.100000 -3.051421
v -40.540810 0.100000 3.921477
v -81.957962 0.155308 -3.051421
v -40.540810 0.155308 3.921477
v -72.096298 0.155308 -61.627083
v -30.679142 0.155308 -54.654182
v -72.096298 0.100000 -61.627083
v -30.679142 0.100000 -54.654182
vt 0.281649 0.354907
vt 0.054486 0.355116
vt 0.501707 0.354901
vt 0.281939 0.354907
vt 0.501716 0.665717
vt 0.281947 0.665723
vt 0.502005 0.665716
vt 0.274216 0.665958
vt 0.501707 0.354612
vt 0.281948 0.666012
vt 0.281658 0.665723
vt 0.281939 0.354618
vt 0.274254 0.355143
vt 0.501716 0.666006
vt 0.054448 0.665931
vt 0.501997 0.354901
vt 0.281939 0.672642
vt 0.501707 0.672636
vt 0.501707 0.672925
vt 0.281939 0.672931
vt 0.501716 0.983741
vt 0.281947 0.983747
vt 0.501716 0.984030
vt 0.281948 0.984036
vt 0.274216 0.983982
vt 0.054448 0.983955
vt 0.054486 0.673140
vt 0.274254 0.673167
vt 0.501997 0.672925
vt 0.502005 0.983741
vt 0.281658 0.983747
vt 0.281649 0.672932
vt 0.747049 0.672642
vt 0.966817 0.672636
vt 0.966817 0.672925
vt 0.747049 0.672931
vt 0.966826 0.983741
vt 0.747058 0.983747
vt 0.966827 0.984030
vt 0.747058 0.984036
vt 0.739327 0.983982
vt 0.519558 0.983955
vt 0.519596 0.673140
vt 0.739364 0.673167
vt 0.967107 0.672925
vt 0.967116 0.983741
vt 0.746768 0.983747
vt 0.746759 0.672932
vt 0.747049 0.350643
vt 0.966817 0.350636
vt 0.966817 0.350926
vt 0.747049 0.350932
vt 0.966826 0.661741
vt 0.747058 0.661747
vt 0.966827 0.662031
vt 0.747058 0.662037
vt 0.739327 0.661983
vt 0.519558 0.661956
vt 0.519596 0.351141
vt 0.739364 0.351167
vt 0.967107 0.350926
vt 0.967116 0.661741
vt 0.746768 0.661748
vt 0.746759 0.350932
vt 0.538640 0.022542
vt 0.758409 0.022536
vt 0.758409 0.022826
vt 0.538640 0.022832
vt 0.758417 0.333641
vt 0.538649 0.333647
vt 0.758418 0.333930
vt 0.538649 0.333937
vt 0.530918 0.333882
vt 0.311149 0.333856
vt 0.311187 0.023040
vt 0.530955 0.023067
vt 0.758698 0.022826
vt 0.758707 0.333641
vt 0.538359 0.333647
vt 0.538350 0.022832
vn 0.000000 0.000000 1.000000
vn 0.000000 0.000000 1.000000
vn 0.000000 0.000000 1.000000
vn 0.000000 0.000000 1.000000
vn 0.000000 1.000000 0.000000
vn 0.000000 1.000000 0.000000
vn 0.000000 1.000000 0.000000
vn 0.000000 1.000000 0.000000
vn 0.000000 0.000000 -1.000000
vn 0.000000 0.000000 -1.000000
vn 0.000000 0.000000 -1.000000
vn 0.000000 0.000000 -1.000000
vn 0.000000 -1.000000 0.000000
vn 0.000000 -1.000000 0.000000
vn 0.000000 -1.000000 0.000000
vn 0.000000 -1.000000 0.000000
vn 1.000000 0.000000 0.000000
vn 1.000000 0.000000 0.000000
vn 1.000000 0.000000 0.000000
vn 1.000000 0.000000 0.000000
vn -1.000000 0.000000 0.000000
vn -1.000000 0.000000 0.000000
vn -1.000000 0.000000 0.000000
vn -1.000000 0.000000 0.000000
vn 0.196336 0.000000 0.980537
vn 0.196336 0.000000 0.980537
vn 0.196336 0.000000 0.980537
vn 0.196336 0.000000 0.980537
vn 0.000000 1.000000 0.000000
vn 0.000000 1.000000 0.000000
vn 0.000000 1.000000 0.000000
vn 0.000000 1.000000 0.000000
vn -0.196336 0.000000 -0.980537
vn -0.196336 0.000000 -0.980537
vn -0.196336 0.000000 -0.980537
vn -0.196336 0.000000 -0.980537
vn 0.000000 -1.000000 0.000000
vn 0.000000 -1.000000 0.000000
vn 0.000000 -1.000000 0.000000
vn 0.000000 -1.000000 0.000000
vn 0.980537 0.000000 -0.196336
vn 0.980537 0.000000 -0.196336
vn 0.980537 0.000000 -0.196336
vn 0.980537 0.000000 -0.196336
vn -0.980537 0.000000 0.196336
vn -0.980537 0.000000 0.196336
vn -0.980537 0.000000 0.196336
vn -0.980537 0.000000 0.196336
vn 0.000000 0.000000 1.000000
vn 0.000000 0.000000 1.000000
vn 0.000000 0.000000 1.000000
vn 0.000000 0.000000 1.000000
vn 0.000000 1.000000 0.000000
vn 0.000000 1.000000 0.000000
vn 0.000000 1.000000 0.000000
vn 0.000000 1.000000 0.000000
vn 0.000000 0.000000 -1.000000
vn 0.000000 0.000000 -1.000000
vn 0.000000 0.000000 -1.000000
vn 0.000000 0.000000 -1.000000
vn 0.000000 -1.000000 0.000000
vn 0.000000 -1.000000 0.000000
vn 0.000000 -1.000000 0.000000
vn 0.000000 -1.000000 0.000000
vn 1.000000 0.000000 0.000000
vn 1.000000 0.000000 0.000000
vn 1.000000 0.000000 0.000000
vn 1.000000 0.000000 0.000000
vn -1.000000 0.000000 0.000000
vn -1.000000 0.000000 0.000000
vn -1.000000 0.000000 0.000000
vn -1.000000 0.000000 0.000000
vn -0.166021 0.000000 0.986122
vn -0.166021 0.000000 0.986122
vn -0.166021 0.000000 0.986122
vn -0.166021 0.000000 0.986122
vn 0.000000 1.000000 0.000000
vn 0.000000 1.000000 0.000000
vn 0.000000 1.000000 0.000000
vn 0.000000 1.000000 0.000000
vn 0.166021 0.000000 -0.986122
vn 0.166021 0.000000 -0.986122
vn 0.166021 0.000000 -0.986122
vn 0.166021 0.000000 -0.986122
vn 0.000000 -1.000000 0.000000
vn 0.000000 -1.000000 0.000000
vn 0.000000 -1.000000 0.000000
vn 0.000000 -1.000000 0.000000
vn 0.986122 0.000000 0.166021
vn 0.986122 0.000000 0.166021
vn 0.986122 0.000000 0.166021
vn 0.986122 0.000000 0.166021
vn -0.986122 0.000000 -0.166021
vn -0.986122 0.000000 -0.166021
vn -0.986122 0.000000 -0.166021
vn -0.986122 0.000000 -0.166021
vn -0.166021 0.000000 0.986122
vn -0.166021 0.000000 0.986122
vn -0.166021 0.000000 0.986122
vn -0.166021 0.000000 0.986122
vn 0.000000 1.000000 0.000000
vn 0.000000 1.000000 0.000000
vn 0.000000 1.000000 0.000000
vn 0.000000 1.000000 0.000000
vn 0.166021 0.000000 -0.986122
vn 0.166021 0.000000 -0.986122
vn 0.166021 0.000000 -0.986122
vn 0.166021 0.000000 -0.986122
vn 0.000000 -1.000000 0.000000
vn 0.000000 -1.000000 0.000000
vn 0.000000 -1.000000 0.000000
vn 0.000000 -1.000000 0.000000
vn 0.986122 0.000000 0.166021
vn 0.986122 0.000000 0.166021
vn 0.986122 0.000000 0.166021
vn 0.986122 0.000000 0.166021
vn -0.986122 0.000000 -0.166021
vn -0.986122 0.000000 -0.166021
vn -0.986122 0.000000 -0.166021
vn -0.986122 0.000000 -0.166021
s off
g NewspaperStory_001
usemtl lambert1SG
f 1/12/1 2/9/2 4/3/3 3/4/4
f 3/4/5 4/3/6 6/5/7 5/6/8
f 5/6/9 6/5/10 8/14/11 7/10/12
f 7/8/13 8/15/14 2/2/15 1/13/16
f 2/16/17 8/7/18 6/5/19 4/3/20
f 7/11/21 1/1/22 3/4/23 5/6/24
f 9/17/25 10/18/26 12/19/27 11/20/28
f 11/20/29 12/19/30 14/21/31 13/22/32
f 13/22/33 14/21/34 16/23/35 15/24/36
f 15/25/37 16/26/38 10/27/39 9/28/40
f 10/29/41 16/30/42 14/21/43 12/19/44
f 15/31/45 9/32/46 11/20/47 13/22/48
f 17/33/49 18/34/50 20/35/51 19/36/52
f 19/36/53 20/35/54 22/37/55 21/38/56
f 21/38/57 22/37/58 24/39/59 23/40/60
f 23/41/61 24/42/62 18/43/63 17/44/64
f 18/45/65 24/46/66 22/37/67 20/35/68
f 23/47/69 17/48/70 19/36/71 21/38/72
f 25/49/73 26/50/74 28/51/75 27/52/76
f 27/52/77 28/51/78 30/53/79 29/54/80
f 29/54/81 30/53/82 32/55/83 31/56/84
f 31/57/85 32/58/86 26/59/87 25/60/88
f 26/61/89 32/62/90 30/53/91 28/51/92
f 31/63/93 25/64/94 27/52/95 29/54/96
f 33/65/97 34/66/98 36/67/99 35/68/100
f 35/68/101 36/67/102 38/69/103 37/70/104
f 37/70/105 38/69/106 40/71/107 39/72/108
f 39/73/109 40/74/110 34/75/111 33/76/112
f 34/77/113 40/78/114 38/69/115 36/67/116
f 39/79/117 33/80/118 35/68/119 37/70/120
