# This file uses centimeters as units for non-parametric coordinates.

mtllib BrickWall_001.mtl
g default
v 27.350887 0.379962 -0.379962
v 26.899048 0.379962 0.000000
v 26.899048 0.000000 -0.379962
v 26.899048 7.600000 -0.379962
v 26.899048 7.220039 0.000000
v 27.350887 7.220039 -0.379962
v 26.899048 7.220039 -11.000000
v 26.899048 7.600000 -10.620039
v 27.350887 7.220039 -10.620039
v 26.899048 0.000000 -10.620039
v 26.899048 0.379962 -11.000000
v 27.350887 0.379962 -10.620039
v 13.675444 7.600000 -0.379962
v 13.675444 7.220039 0.000000
v 13.675444 0.379962 0.000000
v 13.675444 0.000000 -0.379962
v 13.675444 0.000000 -10.620039
v 13.675444 0.379962 -11.000000
v 13.675444 7.220039 -11.000000
v 13.675444 7.600000 -10.620039
v -27.308611 0.000000 -0.379962
v -27.308611 0.379962 0.000000
v -27.760448 0.379962 -0.379962
v -27.760448 7.220039 -0.379962
v -27.308611 7.220039 0.000000
v -27.308611 7.600000 -0.379962
v -27.760448 7.220039 -10.620039
v -27.308611 7.600000 -10.620039
v -27.308611 7.220039 -11.000000
v -27.760448 0.379962 -10.620039
v -27.308611 0.379962 -11.000000
v -27.308611 0.000000 -10.620039
v -14.085007 7.600000 -0.379962
v -14.085007 7.220039 0.000000
v -14.085007 0.379962 0.000000
v -14.085007 0.000000 -0.379962
v -14.085007 0.000000 -10.620039
v -14.085007 0.379962 -11.000000
v -14.085007 7.220039 -11.000000
v -14.085007 7.600000 -10.620039
v -13.780096 7.954316 0.000000
v -14.236956 7.954316 -0.379962
v 13.417830 7.954316 -0.379962
v 12.960970 7.954316 0.000000
v -14.236956 15.263156 -0.379962
v -13.780096 15.263156 0.000000
v -13.780096 15.643117 -0.379962
v 12.960971 15.643117 -0.379962
v 12.960971 15.263156 -0.000000
v 13.417831 15.263156 -0.379962
v -14.236956 15.263156 -10.620039
v -13.780096 15.643117 -10.620039
v -13.780096 15.263156 -11.000000
v 12.960970 15.263156 -11.000000
v 12.960970 15.643117 -10.620039
v 13.417830 15.263156 -10.620039
v -14.236956 7.954316 -10.620039
v -13.780096 7.954316 -11.000000
v 12.960970 7.954316 -11.000000
v 13.417830 7.954316 -10.620039
vt 0.418771 0.217557
vt 0.417127 0.168907
vt 0.448931 0.165866
vt 0.452534 0.216603
vt 0.416413 0.217552
vt 0.414858 0.168709
vt 0.449033 0.163076
vt 0.415652 0.166167
vt 0.455292 0.217305
vt 0.451667 0.165183
vt 0.417192 0.220154
vt 0.457077 0.219118
vt 0.151306 0.167092
vt 0.151579 0.215745
vt 0.119005 0.216843
vt 0.117925 0.167875
vt 0.154194 0.216532
vt 0.154168 0.166638
vt 0.151642 0.218567
vt 0.118810 0.219628
vt 0.116205 0.217309
vt 0.115235 0.167081
vt 0.117797 0.165074
vt 0.151286 0.164296
vt 0.515072 0.212694
vt 0.519868 0.164876
vt 0.556399 0.174005
vt 0.546883 0.216708
vt 0.513020 0.212928
vt 0.517719 0.164143
vt 0.557863 0.171668
vt 0.521161 0.162784
vt 0.605843 0.383147
vt 0.605966 0.334204
vt 0.516047 0.215134
vt 0.547398 0.219454
vt 0.517987 0.162774
vt 0.512718 0.214466
vt 0.053470 0.168829
vt 0.050211 0.218434
vt 0.013346 0.209689
vt 0.021692 0.166106
vt 0.055108 0.168440
vt 0.052120 0.219005
vt 0.048996 0.220925
vt 0.011889 0.212032
vt 0.733653 0.383470
vt 0.733777 0.334527
vt 0.021209 0.163336
vt 0.052953 0.166127
vt 0.051902 0.221583
vt 0.055098 0.165864
vt 0.512535 0.215119
vt 0.518184 0.161678
vt 0.351976 0.168626
vt 0.351844 0.218257
vt 0.352148 0.166036
vt 0.351752 0.220848
vt 0.218019 0.167582
vt 0.217930 0.216914
vt 0.218134 0.164991
vt 0.217780 0.219498
vt 0.154592 0.164080
vt 0.154366 0.219126
vt 0.115069 0.219610
vt 0.051927 0.221577
vt 0.113641 0.165105
vt 0.055446 0.165959
vt 0.733646 0.386038
vt 0.605836 0.385715
vt 0.605973 0.331636
vt 0.733783 0.331958
vt 0.602242 0.456841
vt 0.539039 0.456681
vt 0.539122 0.423989
vt 0.602324 0.424149
vt 0.734924 0.457176
vt 0.735007 0.424484
vt 0.605748 0.420648
vt 0.733558 0.420971
vt 0.798127 0.457336
vt 0.798210 0.424643
vt 0.602655 0.293184
vt 0.539452 0.293025
vt 0.539535 0.260332
vt 0.602738 0.260492
vt 0.735338 0.293520
vt 0.735420 0.260827
vt 0.733871 0.297026
vt 0.606061 0.296702
vt 0.798540 0.293679
vt 0.798623 0.260987
vt 0.452678 0.162819
vt 0.452621 0.219462
vt 0.559001 0.175152
vt 0.549500 0.217799
vt 0.010724 0.208586
vt 0.019060 0.165054
vn 0.000000 -0.707107 0.707107
vn 0.000000 -0.707107 0.707107
vn 0.000000 -0.707107 0.707107
vn 0.000000 -0.707107 0.707107
vn 0.643607 -0.765356 0.000000
vn 0.643607 -0.765356 0.000000
vn 0.643607 -0.765356 0.000000
vn 0.643607 -0.765356 0.000000
vn 0.643606 0.000000 0.765357
vn 0.643606 0.000000 0.765357
vn 0.643606 0.000000 0.765357
vn 0.643606 0.000000 0.765357
vn 0.000000 0.707108 0.707106
vn 0.000000 0.707108 0.707106
vn 0.000000 0.707108 0.707106
vn 0.000000 0.707108 0.707106
vn 0.643606 0.765357 0.000000
vn 0.643606 0.765357 0.000000
vn 0.643606 0.765357 0.000000
vn 0.643606 0.765357 0.000000
vn 0.000000 0.707107 -0.707107
vn 0.000000 0.707107 -0.707107
vn 0.000000 0.707107 -0.707107
vn 0.000000 0.707107 -0.707107
vn 0.643605 0.000000 -0.765358
vn 0.643605 0.000000 -0.765358
vn 0.643605 0.000000 -0.765358
vn 0.643605 0.000000 -0.765358
vn 0.000000 -0.707106 -0.707108
vn 0.000000 -0.707106 -0.707108
vn 0.000000 -0.707106 -0.707108
vn 0.000000 -0.707106 -0.707108
vn -0.000000 -0.000000 1.000000
vn -0.000000 -0.000000 1.000000
vn -0.000000 -0.000000 1.000000
vn -0.000000 -0.000000 1.000000
vn 0.000000 1.000000 0.000000
vn 0.000000 1.000000 0.000000
vn 0.000000 1.000000 0.000000
vn 0.000000 1.000000 0.000000
vn 0.000000 0.000000 -1.000000
vn 0.000000 0.000000 -1.000000
vn 0.000000 0.000000 -1.000000
vn 0.000000 0.000000 -1.000000
vn 0.000000 -1.000000 0.000000
vn 0.000000 -1.000000 0.000000
vn 0.000000 -1.000000 0.000000
vn 0.000000 -1.000000 0.000000
vn 1.000000 0.000000 0.000000
vn 1.000000 0.000000 0.000000
vn 1.000000 0.000000 0.000000
vn 1.000000 0.000000 0.000000
vn 0.511094 -0.607773 0.607778
vn 0.511094 -0.607773 0.607778
vn 0.511094 -0.607773 0.607778
vn 0.511094 0.607774 0.607778
vn 0.511094 0.607774 0.607778
vn 0.511094 0.607774 0.607778
vn 0.511095 0.607774 -0.607777
vn 0.511095 0.607774 -0.607777
vn 0.511095 0.607774 -0.607777
vn 0.511092 -0.607774 -0.607779
vn 0.511092 -0.607774 -0.607779
vn 0.511092 -0.607774 -0.607779
vn -0.643607 -0.765356 0.000000
vn -0.643607 -0.765356 0.000000
vn -0.643607 -0.765356 0.000000
vn -0.643607 -0.765356 0.000000
vn 0.000000 -0.707107 0.707107
vn 0.000000 -0.707107 0.707107
vn -0.643608 0.000000 0.765356
vn -0.643608 0.000000 0.765356
vn -0.643608 0.000000 0.765356
vn -0.643608 0.000000 0.765356
vn -0.643606 0.765357 0.000000
vn -0.643606 0.765357 0.000000
vn -0.643606 0.765357 0.000000
vn -0.643606 0.765357 0.000000
vn -0.643606 0.000000 -0.765357
vn -0.643606 0.000000 -0.765357
vn -0.643606 0.000000 -0.765357
vn -0.643606 0.000000 -0.765357
vn 0.000000 -0.707106 -0.707108
vn 0.000000 -0.707106 -0.707108
vn -1.000000 0.000000 0.000000
vn -1.000000 0.000000 0.000000
vn -1.000000 0.000000 0.000000
vn -1.000000 0.000000 0.000000
vn -0.511093 -0.607779 0.607774
vn -0.511093 -0.607779 0.607774
vn -0.511093 -0.607779 0.607774
vn -0.511092 0.607779 0.607774
vn -0.511092 0.607779 0.607774
vn -0.511092 0.607779 0.607774
vn -0.511093 0.607779 -0.607774
vn -0.511093 0.607779 -0.607774
vn -0.511093 0.607779 -0.607774
vn -0.511090 -0.607780 -0.607775
vn -0.511090 -0.607780 -0.607775
vn -0.511090 -0.607780 -0.607775
vn 0.000000 0.707108 0.707106
vn 0.000000 0.707108 0.707106
vn 0.000000 0.707108 0.707106
vn 0.000000 0.707108 0.707106
vn 0.000000 0.000000 1.000000
vn 0.000000 0.000000 1.000000
vn 0.000000 0.000000 1.000000
vn 0.000000 0.000000 1.000000
vn 0.000000 -0.707107 0.707107
vn 0.000000 -0.707107 0.707107
vn 0.000000 -1.000000 0.000000
vn 0.000000 -1.000000 0.000000
vn 0.000000 -1.000000 0.000000
vn 0.000000 -1.000000 0.000000
vn 0.000000 -0.707106 -0.707108
vn 0.000000 -0.707106 -0.707108
vn 0.000000 0.000000 -1.000000
vn 0.000000 0.000000 -1.000000
vn 0.000000 0.000000 -1.000000
vn 0.000000 0.000000 -1.000000
vn 0.000000 0.707107 -0.707107
vn 0.000000 0.707107 -0.707107
vn 0.000000 0.707107 -0.707107
vn 0.000000 0.707107 -0.707107
vn 0.000000 1.000000 0.000000
vn 0.000000 1.000000 0.000000
vn 0.000000 1.000000 0.000000
vn 0.000000 1.000000 0.000000
vn -0.639435 0.000000 0.768845
vn -0.639435 0.000000 0.768845
vn -0.639435 0.000000 0.768845
vn -0.639435 0.000000 0.768845
vn 0.639434 -0.000000 0.768846
vn 0.639434 -0.000000 0.768846
vn 0.639434 -0.000000 0.768846
vn 0.639434 -0.000000 0.768846
vn -0.639433 0.768846 0.000000
vn -0.639433 0.768847 0.000000
vn -0.639433 0.768847 0.000000
vn -0.639433 0.768847 0.000000
vn 0.000000 0.707107 0.707107
vn 0.000000 0.707107 0.707107
vn 0.000000 0.707107 0.707107
vn 0.000000 0.707107 0.707107
vn 0.639432 0.768847 -0.000000
vn 0.639432 0.768848 -0.000000
vn 0.639432 0.768847 -0.000000
vn 0.639432 0.768848 -0.000000
vn -0.639434 0.000000 -0.768846
vn -0.639434 0.000000 -0.768846
vn -0.639434 0.000000 -0.768846
vn -0.639434 0.000000 -0.768846
vn 0.000000 0.707106 -0.707107
vn 0.000000 0.707106 -0.707107
vn 0.000000 0.707106 -0.707107
vn 0.000000 0.707106 -0.707107
vn 0.639434 0.000000 -0.768846
vn 0.639434 0.000000 -0.768846
vn 0.639434 0.000000 -0.768846
vn 0.639434 0.000000 -0.768846
vn 0.000000 0.000000 1.000000
vn 0.000000 0.000000 1.000000
vn 0.000000 0.000000 1.000000
vn 0.000000 0.000000 1.000000
vn 0.000000 1.000000 0.000000
vn 0.000000 1.000000 0.000000
vn 0.000000 1.000000 0.000000
vn 0.000000 1.000000 0.000000
vn 0.000000 0.000000 -1.000000
vn 0.000000 0.000000 -1.000000
vn 0.000000 0.000000 -1.000000
vn 0.000000 0.000000 -1.000000
vn 1.000000 -0.000000 -0.000000
vn 1.000000 -0.000000 -0.000000
vn 1.000000 -0.000000 -0.000000
vn 1.000000 -0.000000 -0.000000
vn -1.000000 0.000000 0.000000
vn -1.000000 0.000000 0.000000
vn -1.000000 0.000000 0.000000
vn -1.000000 0.000000 0.000000
vn -0.506925 0.609520 0.609518
vn -0.506925 0.609520 0.609518
vn -0.506925 0.609520 0.609518
vn 0.506924 0.609520 0.609520
vn 0.506924 0.609520 0.609520
vn 0.506924 0.609520 0.609520
vn -0.506927 0.609518 -0.609518
vn -0.506927 0.609518 -0.609518
vn -0.506927 0.609518 -0.609518
vn 0.506925 0.609519 -0.609519
vn 0.506925 0.609519 -0.609519
vn 0.506925 0.609519 -0.609519
vn 0.000000 0.000000 1.000000
vn 0.000000 0.000000 1.000000
vn 0.000000 0.000000 1.000000
vn 0.000000 0.000000 1.000000
vn 0.000000 0.000000 -1.000000
vn 0.000000 0.000000 -1.000000
vn 0.000000 0.000000 -1.000000
vn 0.000000 0.000000 -1.000000
vn -0.824622 0.115870 0.553691
vn -0.824622 0.115870 0.553691
vn -0.824622 0.115870 0.553691
vn -0.824622 0.115870 0.553691
vn -0.824620 0.115869 -0.553693
vn -0.824620 0.115869 -0.553693
vn -0.824620 0.115869 -0.553693
vn -0.824620 0.115869 -0.553693
vn -0.919052 -0.394137 0.000000
vn -0.919052 -0.394137 0.000000
vn -0.919052 -0.394137 0.000000
vn -0.919052 -0.394137 0.000000
vn 0.587722 0.524823 -0.615747
vn 0.587722 0.524823 -0.615747
vn 0.587722 0.524823 -0.615747
vn 0.587722 0.524823 -0.615747
vn 0.587724 0.524823 0.615745
vn 0.587724 0.524823 0.615745
vn 0.587724 0.524823 0.615745
vn 0.587724 0.524823 0.615745
vn 0.808813 0.588066 0.000000
vn 0.808813 0.588066 0.000000
vn 0.808813 0.588066 0.000000
vn 0.808813 0.588066 0.000000
s 1
g BrickWall_001 LooseMaterials
usemtl lambert1SG
f 15/58/1 16/56/2 3/5/3 2/11/4
s off
f 1/1/5 3/5/6 10/6/7 12/2/8
f 2/11/9 1/1/10 6/4/11 5/94/12
f 13/29/13 14/53/14 5/12/15 4/9/16
f 4/9/17 6/4/18 9/3/19 8/10/20
f 19/54/21 20/30/22 8/10/23 7/93/24
f 7/7/25 9/3/26 12/2/27 11/8/28
s 2
f 17/55/29 18/57/30 11/8/31 10/6/32
s 3
f 15/73/33 2/74/34 5/75/35 14/76/36
s off
f 20/30/37 13/29/38 4/9/39 8/10/40
s 4
f 19/83/41 7/84/42 11/85/43 18/86/44
s 5
f 17/55/45 10/6/46 3/5/47 16/56/48
s off
f 1/1/49 12/2/50 9/3/51 6/4/52
f 1/1/53 2/11/54 3/5/55
f 4/9/56 5/94/57 6/4/58
f 7/7/59 8/10/60 9/3/61
f 10/6/62 11/8/63 12/2/64
f 21/17/65 23/14/66 30/13/67 32/18/68
s 1
f 35/62/69 36/60/70 16/56/2 15/58/1
s off
f 23/14/71 22/19/72 25/20/73 24/15/74
f 24/15/75 26/21/76 28/22/77 27/16/78
f 27/16/79 29/23/80 31/24/81 30/13/82
s 2
f 37/59/83 38/61/84 18/57/30 17/55/29
s off
f 30/13/85 23/14/86 24/15/87 27/16/88
f 21/17/89 22/19/90 23/14/91
f 24/15/92 25/20/93 26/21/94
f 27/16/95 28/22/96 29/23/97
f 30/13/98 31/24/99 32/18/100
f 26/21/101 25/65/102 34/66/103 33/44/104
s 3
f 22/81/105 35/77/106 34/78/107 25/82/108
s 1
f 22/64/109 21/17/110 36/60/70 35/62/69
s 5
f 32/18/111 37/59/112 36/60/113 21/17/114
s 2
f 32/18/115 31/63/116 38/61/84 37/59/83
s 4
f 29/91/117 39/87/118 38/88/119 31/92/120
s off
f 29/67/121 28/22/122 40/43/123 39/68/124
f 26/21/125 33/44/126 40/43/127 28/22/128
f 42/40/129 41/45/130 46/46/131 45/41/132
f 44/35/133 43/25/134 50/28/135 49/36/136
f 45/41/137 47/97/138 52/98/139 51/42/140
f 48/33/141 47/47/142 46/69/143 49/70/144
f 48/96/145 50/28/146 56/27/147 55/95/148
f 51/42/149 53/49/150 58/50/151 57/39/152
f 54/71/153 53/72/154 52/48/155 55/34/156
f 54/31/157 56/27/158 60/26/159 59/32/160
f 46/69/161 41/80/162 44/79/163 49/70/164
f 52/48/165 47/47/166 48/33/167 55/34/168
f 59/90/169 58/89/170 53/72/171 54/71/172
f 43/25/173 60/26/174 56/27/175 50/28/176
f 57/39/177 42/40/178 45/41/179 51/42/180
f 45/41/181 46/46/182 47/97/183
f 48/96/184 49/36/185 50/28/186
f 51/42/187 52/98/188 53/49/189
f 54/31/190 55/95/191 56/27/192
f 44/79/193 41/80/194 34/78/195 14/76/196
s 3
f 35/77/106 15/73/33 14/76/36 34/78/107
s off
f 58/89/197 59/90/198 19/83/199 39/87/200
s 4
f 39/87/118 19/83/41 18/86/44 38/88/119
s 5
f 37/59/112 17/55/45 16/56/48 36/60/113
s off
f 33/44/201 34/51/202 41/45/203 42/40/204
f 39/52/205 40/43/206 57/39/207 58/50/208
f 40/43/209 33/44/210 42/40/211 57/39/212
f 20/30/213 19/37/214 59/32/215 60/26/216
f 14/38/217 13/29/218 43/25/219 44/35/220
f 13/29/221 20/30/222 60/26/223 43/25/224
